<svg xmlns="http://www.w3.org/2000/svg" viewBox="0 0 1037.81 1017.74">
  <g id="Layer_2" data-name="Layer 2">
    <g id="Layer_1-2" data-name="Layer 1">
      <g>
        <path d="M582.46,1017.74c-78.69.15-141.44-10.28-202.87-30-30.15-9.69-60.81-17.76-90-30.44C205.5,920.77,134,867.13,80.14,789.54a494.15,494.15,0,0,1-72.53-158c-8.75-33.53-9.23-67.78-5.09-102.1C8.87,476.85,19.47,425.2,36.06,375c30.75-93.07,78.61-175.07,146.51-243.81C235.25,77.85,297.91,43,368.59,23.09,427.85,6.39,488.06-1.6,549.44.27c31.48,1,62.68,5.11,93.87,9.22,19.93,2.62,40,4.29,59.68,8.8,39.28,9,75.21,26,108.88,48.68,51,34.32,95.81,75.7,131.79,127,31.21,44.52,53.21,93.67,68.26,146.4,13,45.45,21.92,91.68,24.81,139.05,4.78,78.26-6.28,153.94-34.63,226.74-6,15.4-11.33,31.1-17.8,46.27-5.51,12.91-13.17,24.68-20.14,36.79C937.81,835,907,877,868,912.1c-57.47,51.76-123.9,83.38-198.44,97.08A544.26,544.26,0,0,1,582.46,1017.74Zm-7.21-50.63c30.85-.23,61.59-2.27,92-8.15,90-17.44,162.75-64.83,219.35-139.4,34-44.79,57.87-95.49,76.94-148.73C982,619.3,991.14,566,990,510.91a618.43,618.43,0,0,0-19-139.48c-11.31-44.69-28.14-86.91-51.77-126.09-34.91-57.89-81.4-103.41-137-139-29.76-19-61.58-32.74-96.11-39.26-32.29-6.1-64.86-9.82-97.5-12.9q-27.9-2.64-55.89-3.9a390.05,390.05,0,0,0-77.49,4.45c-17.12,2.66-34,6.21-50.85,10.11-12.6,2.93-24.86,7.24-37.2,11.18-40,12.76-75.13,33-102.57,67.18-25.89,32.25-54.32,62.29-78.33,96.24a512.21,512.21,0,0,0-93.68,255c-3,33.88-2.53,67.58,3.4,101.18,8.26,46.84,26.27,89.64,49.82,129.93,44.59,76.26,106.07,133.95,181,176.49C404.24,945.92,487.23,966.91,575.25,967.11Z" style="fill: #262525"/>
        <path d="M575.24,967.1c-88-.19-171-21.18-248.46-65.14-75-42.54-136.44-100.23-181-176.49-23.55-40.29-41.56-83.09-49.82-129.93-5.93-33.6-6.37-67.3-3.4-101.18a512.21,512.21,0,0,1,93.68-254.95c24-33.95,52.44-64,78.33-96.24C292,109,327.12,88.75,367.11,76c12.34-3.94,24.6-8.25,37.2-11.18,16.85-3.9,33.73-7.45,50.85-10.11a390.05,390.05,0,0,1,77.49-4.45q28,1.26,55.89,3.9c32.64,3.08,65.21,6.8,97.5,12.9,34.53,6.52,66.35,20.21,96.11,39.26,55.64,35.62,102.13,81.14,137,139,23.63,39.18,40.46,81.4,51.77,126.09a618.43,618.43,0,0,1,19,139.48c1.14,55.1-8,108.39-26.5,159.92-19.07,53.24-42.93,103.94-76.94,148.73C830,894.13,757.23,941.52,667.21,959,636.84,964.84,606.1,966.88,575.24,967.1Zm-16.81-155c12.07-.64,27.22-1.2,42.26-4.41,95.54-20.4,165-75.65,205.31-168.6,21.72-50,27.75-103.2,22.63-157.7-1.43-15.21-3-30.56-9.15-44.74C814.16,424.31,805.7,416,792,415c-9.69-.69-14.93,3-17.75,12.74a26.92,26.92,0,0,0-.56,9.9c.66,8.05,2,16,3.38,23.93,4.46,26.33,6.28,52.83,4.24,79.56-5,64.84-31.35,118.5-77.53,161.81A213.46,213.46,0,0,1,658.66,735a219.31,219.31,0,0,1-94.92,26.45c-38.63,1.78-75.53-6.3-110.68-22.47-45.85-21.1-83.56-52.79-110.56-97.29-19-31.35-28.39-65.94-30.1-102.92a263.72,263.72,0,0,1,.64-34.43c1.72-20.43,5.86-40.47,8.91-60.68,1.71-11.31,4.26-22.59,2.42-34.19-2.28-14.45-12.7-20.85-25.93-16.31C287.51,397,282,405.71,279.25,416.33a451.05,451.05,0,0,0-14.72,99.55c-1,33.6,3.26,66.51,14,98.23,26.89,79.68,79.41,134.74,152.06,169.8C470,803,511.61,812.93,558.43,812.07ZM508,270.63c-.4-15.2-.72-33-6-50.21-3.92-12.72-12.43-20.37-25.12-22.2-11.89-1.71-20.75,4.23-27.25,14-10.24,15.36-15.39,32.69-16,51.29-.89,27.62-.12,55.24,1,82.85a63.6,63.6,0,0,0,7.33,27.16c6.63,12.63,21.71,17.37,32.31,8.95,12.62-10,23.66-22,26.73-39.31A422,422,0,0,0,508,270.63Zm168.67,14.8a200.36,200.36,0,0,0-1.84-31.17c-1.79-11.9-4.47-23.56-10.78-33.85-11.22-18.28-34.52-19.5-46.17-2-8.37,12.6-13.54,26.63-13.28,42.48.47,28.66,3.07,57.14,5.6,85.65a69.46,69.46,0,0,0,8.14,27.77c8.54,15.74,29.46,15.42,38.51.13,4.23-7.13,7.05-14.74,9.54-22.57C673.43,329.57,676.27,306.55,676.62,285.43Z" style="fill: #e6b066"/>
        <path d="M558.43,812.07c-46.82.86-88.4-9.1-127.88-28.16-72.65-35.06-125.17-90.12-152.06-169.8-10.7-31.72-15-64.63-14-98.23a451.05,451.05,0,0,1,14.72-99.55c2.76-10.62,8.26-19.37,19.19-23.13,13.23-4.54,23.65,1.86,25.93,16.31,1.84,11.6-.71,22.88-2.42,34.19-3.05,20.21-7.19,40.25-8.91,60.68a263.72,263.72,0,0,0-.64,34.43c1.71,37,11.08,71.57,30.1,102.92,27,44.5,64.71,76.19,110.56,97.29,35.15,16.17,72.05,24.25,110.68,22.47A219.31,219.31,0,0,0,658.66,735a213.46,213.46,0,0,0,45.12-32.1c46.18-43.31,72.57-97,77.53-161.81,2-26.73.22-53.23-4.24-79.56-1.34-7.95-2.72-15.88-3.38-23.93a26.92,26.92,0,0,1,.56-9.9C777.07,418,782.31,414.31,792,415c13.7,1,22.16,9.31,27.48,21.62,6.12,14.18,7.72,29.53,9.15,44.74,5.12,54.5-.91,107.66-22.63,157.7-40.34,93-109.77,148.2-205.31,168.6C585.65,810.87,570.5,811.43,558.43,812.07Z" style="fill: #262525"/>
        <path d="M508,270.63a422,422,0,0,1-7,72.51c-3.07,17.3-14.11,29.28-26.73,39.31-10.6,8.42-25.68,3.68-32.31-8.95a63.6,63.6,0,0,1-7.33-27.16c-1.08-27.61-1.85-55.23-1-82.85.6-18.6,5.75-35.93,16-51.29,6.5-9.75,15.36-15.69,27.25-14,12.69,1.83,21.2,9.48,25.12,22.2C507.23,237.59,507.55,255.43,508,270.63Z" style="fill: #262525"/>
        <path d="M676.62,285.43c-.35,21.12-3.19,44.14-10.28,66.46-2.49,7.83-5.31,15.44-9.54,22.57-9,15.29-30,15.61-38.51-.13a69.46,69.46,0,0,1-8.14-27.77c-2.53-28.51-5.13-57-5.6-85.65-.26-15.85,4.91-29.88,13.28-42.48,11.65-17.52,34.95-16.3,46.17,2,6.31,10.29,9,22,10.78,33.85A200.36,200.36,0,0,1,676.62,285.43Z" style="fill: #262525"/>
      </g>
    </g>
  </g>
</svg>
