<svg width="206" height="71" viewBox="0 0 206 71" fill="none" xmlns="http://www.w3.org/2000/svg">
<rect width="206" height="71" rx="35.5" fill="#2E4A62"/>
<path d="M46.0389 42H42.7434L47.7647 27.4545H51.7278L56.742 42H53.4466L49.8031 30.7784H49.6895L46.0389 42ZM45.8329 36.2827H53.617V38.6832H45.8329V36.2827ZM62.8429 46.3182C61.8627 46.3182 61.0223 46.1832 60.3216 45.9134C59.6255 45.6482 59.0716 45.286 58.6596 44.8267C58.2477 44.3674 57.9802 43.8513 57.8571 43.2784L60.6554 42.902C60.7406 43.1198 60.8755 43.3234 61.0602 43.5128C61.2449 43.7022 61.4887 43.8537 61.7917 43.9673C62.0995 44.0857 62.4735 44.1449 62.9139 44.1449C63.572 44.1449 64.1142 43.9839 64.5403 43.6619C64.9712 43.3447 65.1866 42.812 65.1866 42.0639V40.0682H65.0588C64.9262 40.3712 64.7273 40.6577 64.4622 40.9276C64.197 41.1974 63.8561 41.4176 63.4395 41.5881C63.0228 41.7585 62.5256 41.8438 61.948 41.8438C61.1288 41.8438 60.3831 41.6544 59.7108 41.2756C59.0431 40.892 58.5105 40.3073 58.1127 39.5213C57.7198 38.7306 57.5233 37.7315 57.5233 36.5241C57.5233 35.2884 57.7245 34.2562 58.127 33.4276C58.5294 32.599 59.0645 31.9787 59.7321 31.5668C60.4044 31.1548 61.1407 30.9489 61.9409 30.9489C62.5517 30.9489 63.063 31.053 63.475 31.2614C63.8869 31.465 64.2183 31.7206 64.4693 32.0284C64.725 32.3314 64.9215 32.6297 65.0588 32.9233H65.1724V31.0909H68.1767V42.1065C68.1767 43.0346 67.9494 43.8111 67.4949 44.4361C67.0403 45.0611 66.4106 45.5298 65.6056 45.8423C64.8055 46.1596 63.8845 46.3182 62.8429 46.3182ZM62.9068 39.571C63.3945 39.571 63.8064 39.4503 64.1426 39.2088C64.4835 38.9626 64.7439 38.6122 64.9238 38.1577C65.1085 37.6984 65.2008 37.1491 65.2008 36.5099C65.2008 35.8707 65.1109 35.3168 64.9309 34.848C64.751 34.3745 64.4906 34.0076 64.1497 33.7472C63.8088 33.4867 63.3945 33.3565 62.9068 33.3565C62.4096 33.3565 61.9906 33.4915 61.6497 33.7614C61.3088 34.0265 61.0507 34.3958 60.8755 34.8693C60.7003 35.3428 60.6127 35.8897 60.6127 36.5099C60.6127 37.1397 60.7003 37.6842 60.8755 38.1435C61.0555 38.598 61.3135 38.9508 61.6497 39.2017C61.9906 39.4479 62.4096 39.571 62.9068 39.571ZM70.5843 42V31.0909H73.6099V42H70.5843ZM72.1042 29.6847C71.6544 29.6847 71.2685 29.5355 70.9466 29.2372C70.6293 28.9342 70.4707 28.572 70.4707 28.1506C70.4707 27.7339 70.6293 27.3764 70.9466 27.0781C71.2685 26.7751 71.6544 26.6236 72.1042 26.6236C72.554 26.6236 72.9376 26.7751 73.2548 27.0781C73.5768 27.3764 73.7377 27.7339 73.7377 28.1506C73.7377 28.572 73.5768 28.9342 73.2548 29.2372C72.9376 29.5355 72.554 29.6847 72.1042 29.6847ZM79.0591 27.4545V42H76.0336V27.4545H79.0591ZM86.4544 42.2131C85.3322 42.2131 84.3663 41.9858 83.5566 41.5312C82.7517 41.072 82.1315 40.4233 81.6958 39.5852C81.2602 38.7424 81.0424 37.7457 81.0424 36.5952C81.0424 35.473 81.2602 34.4882 81.6958 33.6406C82.1315 32.7931 82.7446 32.1326 83.5353 31.6591C84.3308 31.1856 85.2636 30.9489 86.3336 30.9489C87.0533 30.9489 87.7233 31.0649 88.3436 31.2969C88.9686 31.5241 89.5131 31.8674 89.9771 32.3267C90.4458 32.786 90.8104 33.3636 91.0708 34.0597C91.3313 34.7509 91.4615 35.5606 91.4615 36.4886V37.3196H82.2498V35.4446H88.6135C88.6135 35.009 88.5188 34.6231 88.3294 34.2869C88.14 33.9508 87.8772 33.688 87.541 33.4986C87.2096 33.3045 86.8237 33.2074 86.3833 33.2074C85.9241 33.2074 85.5169 33.3139 85.1618 33.527C84.8114 33.7353 84.5368 34.017 84.3379 34.3722C84.139 34.7225 84.0372 35.1132 84.0325 35.544V37.3267C84.0325 37.8665 84.1319 38.3329 84.3308 38.7259C84.5344 39.1188 84.8208 39.4219 85.1902 39.6349C85.5595 39.848 85.9975 39.9545 86.5041 39.9545C86.8403 39.9545 87.148 39.9072 87.4274 39.8125C87.7067 39.7178 87.9458 39.5758 88.1447 39.3864C88.3436 39.197 88.4951 38.965 88.5993 38.6903L91.3976 38.875C91.2555 39.5473 90.9643 40.1345 90.524 40.6364C90.0884 41.1335 89.5249 41.5218 88.8336 41.8011C88.1471 42.0758 87.354 42.2131 86.4544 42.2131ZM99.7711 26.7727L95.0836 44.1875H92.4771L97.1646 26.7727H99.7711ZM109.176 31.6378C109.119 31.0649 108.876 30.6198 108.445 30.3026C108.014 29.9853 107.429 29.8267 106.691 29.8267C106.189 29.8267 105.765 29.8977 105.419 30.0398C105.074 30.1771 104.808 30.3688 104.624 30.6151C104.444 30.8613 104.354 31.1406 104.354 31.4531C104.344 31.7135 104.399 31.9408 104.517 32.1349C104.64 32.3291 104.808 32.4972 105.021 32.6392C105.235 32.7765 105.481 32.8973 105.76 33.0014C106.039 33.1009 106.338 33.1861 106.655 33.2571L107.962 33.5696C108.596 33.7116 109.179 33.901 109.709 34.1378C110.239 34.3745 110.699 34.6657 111.087 35.0114C111.475 35.357 111.776 35.7642 111.989 36.233C112.207 36.7017 112.318 37.2391 112.323 37.8452C112.318 38.7353 112.091 39.5071 111.641 40.1605C111.196 40.8092 110.552 41.3134 109.709 41.6733C108.871 42.0284 107.86 42.206 106.676 42.206C105.502 42.206 104.479 42.026 103.608 41.6662C102.742 41.3063 102.065 40.7737 101.577 40.0682C101.094 39.358 100.841 38.4796 100.817 37.4332H103.793C103.826 37.9209 103.966 38.3281 104.212 38.6548C104.463 38.9768 104.797 39.2206 105.213 39.3864C105.635 39.5473 106.11 39.6278 106.641 39.6278C107.162 39.6278 107.614 39.5521 107.997 39.4006C108.386 39.2491 108.686 39.0384 108.899 38.7685C109.112 38.4986 109.219 38.1884 109.219 37.8381C109.219 37.5114 109.122 37.2367 108.928 37.0142C108.738 36.7917 108.459 36.6023 108.09 36.446C107.725 36.2898 107.278 36.1477 106.747 36.0199L105.164 35.6222C103.937 35.3239 102.969 34.8575 102.259 34.223C101.548 33.5885 101.196 32.7339 101.2 31.6591C101.196 30.7784 101.43 30.009 101.904 29.3509C102.382 28.6927 103.038 28.179 103.871 27.8097C104.704 27.4403 105.651 27.2557 106.712 27.2557C107.791 27.2557 108.734 27.4403 109.539 27.8097C110.348 28.179 110.978 28.6927 111.428 29.3509C111.878 30.009 112.11 30.7713 112.124 31.6378H109.176ZM119.263 42.2131C118.146 42.2131 117.185 41.9763 116.38 41.5028C115.58 41.0246 114.964 40.3617 114.533 39.5142C114.107 38.6667 113.894 37.6913 113.894 36.5881C113.894 35.4706 114.109 34.4905 114.54 33.6477C114.976 32.8002 115.594 32.1397 116.394 31.6662C117.194 31.188 118.146 30.9489 119.249 30.9489C120.201 30.9489 121.034 31.1217 121.749 31.4673C122.464 31.813 123.03 32.2983 123.447 32.9233C123.863 33.5483 124.093 34.2822 124.135 35.125H121.28C121.2 34.5805 120.987 34.1425 120.641 33.8111C120.3 33.4749 119.853 33.3068 119.299 33.3068C118.83 33.3068 118.421 33.4347 118.07 33.6903C117.724 33.9413 117.455 34.3082 117.26 34.7912C117.066 35.2741 116.969 35.8589 116.969 36.5455C116.969 37.2415 117.064 37.8333 117.253 38.321C117.448 38.8087 117.72 39.1804 118.07 39.4361C118.421 39.6918 118.83 39.8196 119.299 39.8196C119.644 39.8196 119.955 39.7486 120.229 39.6065C120.509 39.4645 120.738 39.2585 120.918 38.9886C121.103 38.714 121.224 38.3849 121.28 38.0014H124.135C124.088 38.8348 123.861 39.5687 123.454 40.2031C123.051 40.8329 122.495 41.3253 121.785 41.6804C121.074 42.0355 120.234 42.2131 119.263 42.2131ZM126.073 42V31.0909H129.006V32.9943H129.119C129.318 32.3172 129.652 31.8059 130.121 31.4602C130.59 31.1098 131.129 30.9347 131.74 30.9347C131.892 30.9347 132.055 30.9441 132.23 30.9631C132.405 30.982 132.559 31.008 132.692 31.0412V33.7259C132.55 33.6832 132.353 33.6454 132.102 33.6122C131.852 33.5791 131.622 33.5625 131.414 33.5625C130.968 33.5625 130.571 33.6596 130.22 33.8537C129.875 34.0431 129.6 34.3082 129.396 34.6491C129.198 34.9901 129.098 35.383 129.098 35.8281V42H126.073ZM141.252 37.3551V31.0909H144.278V42H141.373V40.0185H141.259C141.013 40.6577 140.603 41.1714 140.03 41.5597C139.462 41.9479 138.769 42.142 137.949 42.142C137.22 42.142 136.579 41.9763 136.025 41.6449C135.471 41.3134 135.037 40.8423 134.725 40.2315C134.417 39.6207 134.261 38.8892 134.256 38.0369V31.0909H137.282V37.4972C137.287 38.1411 137.459 38.6501 137.8 39.0241C138.141 39.3982 138.598 39.5852 139.171 39.5852C139.536 39.5852 139.876 39.5024 140.194 39.3366C140.511 39.1662 140.767 38.9152 140.961 38.5838C141.16 38.2524 141.257 37.8428 141.252 37.3551ZM146.698 42V31.0909H149.581V33.0156H149.709C149.936 32.3764 150.315 31.8722 150.845 31.5028C151.376 31.1335 152.01 30.9489 152.749 30.9489C153.497 30.9489 154.134 31.1359 154.659 31.5099C155.185 31.8793 155.535 32.3812 155.71 33.0156H155.824C156.047 32.3906 156.449 31.8911 157.031 31.517C157.619 31.1383 158.312 30.9489 159.112 30.9489C160.13 30.9489 160.957 31.2732 161.591 31.9219C162.23 32.5658 162.55 33.4796 162.55 34.6634V42H159.531V35.2599C159.531 34.6539 159.37 34.1993 159.048 33.8963C158.727 33.5933 158.324 33.4418 157.841 33.4418C157.292 33.4418 156.863 33.617 156.556 33.9673C156.248 34.313 156.094 34.7699 156.094 35.3381V42H153.161V35.196C153.161 34.661 153.007 34.2348 152.699 33.9176C152.396 33.6004 151.996 33.4418 151.499 33.4418C151.163 33.4418 150.86 33.527 150.59 33.6974C150.325 33.8632 150.114 34.0975 149.958 34.4006C149.801 34.6989 149.723 35.0492 149.723 35.4517V42H146.698Z" fill="white"/>
</svg>
