<svg width="156" height="71" viewBox="0 0 156 71" fill="none" xmlns="http://www.w3.org/2000/svg">
<rect width="156" height="71" rx="35.5" fill="#343434"/>
<path d="M42.9041 42H39.6087L44.63 27.4545H48.593L53.6072 42H50.3118L46.6683 30.7784H46.5547L42.9041 42ZM42.6982 36.2827H50.4822V38.6832H42.6982V36.2827ZM58.3267 35.6932V42H55.3011V31.0909H58.1847V33.0156H58.3125C58.554 32.3812 58.9588 31.8793 59.527 31.5099C60.0952 31.1359 60.7841 30.9489 61.5938 30.9489C62.3513 30.9489 63.0118 31.1146 63.5753 31.446C64.1387 31.7775 64.5767 32.2509 64.8892 32.8665C65.2017 33.4773 65.358 34.2064 65.358 35.054V42H62.3324V35.5938C62.3371 34.9261 62.1667 34.4053 61.821 34.0312C61.4754 33.6525 60.9995 33.4631 60.3935 33.4631C59.9863 33.4631 59.6264 33.5507 59.3139 33.7259C59.0062 33.901 58.7647 34.1567 58.5895 34.4929C58.419 34.8243 58.3314 35.2244 58.3267 35.6932ZM72.6573 46.3182C71.6772 46.3182 70.8368 46.1832 70.136 45.9134C69.44 45.6482 68.886 45.286 68.4741 44.8267C68.0621 44.3674 67.7946 43.8513 67.6715 43.2784L70.4698 42.902C70.555 43.1198 70.69 43.3234 70.8746 43.5128C71.0593 43.7022 71.3031 43.8537 71.6062 43.9673C71.9139 44.0857 72.288 44.1449 72.7283 44.1449C73.3865 44.1449 73.9286 43.9839 74.3548 43.6619C74.7856 43.3447 75.0011 42.812 75.0011 42.0639V40.0682H74.8732C74.7406 40.3712 74.5418 40.6577 74.2766 40.9276C74.0115 41.1974 73.6706 41.4176 73.2539 41.5881C72.8372 41.7585 72.3401 41.8438 71.7624 41.8438C70.9433 41.8438 70.1976 41.6544 69.5252 41.2756C68.8576 40.892 68.3249 40.3073 67.9272 39.5213C67.5342 38.7306 67.3377 37.7315 67.3377 36.5241C67.3377 35.2884 67.5389 34.2562 67.9414 33.4276C68.3439 32.599 68.8789 31.9787 69.5465 31.5668C70.2189 31.1548 70.9551 30.9489 71.7553 30.9489C72.3661 30.9489 72.8775 31.053 73.2894 31.2614C73.7013 31.465 74.0328 31.7206 74.2837 32.0284C74.5394 32.3314 74.7359 32.6297 74.8732 32.9233H74.9869V31.0909H77.9911V42.1065C77.9911 43.0346 77.7638 43.8111 77.3093 44.4361C76.8548 45.0611 76.225 45.5298 75.4201 45.8423C74.6199 46.1596 73.699 46.3182 72.6573 46.3182ZM72.7212 39.571C73.2089 39.571 73.6209 39.4503 73.957 39.2088C74.2979 38.9626 74.5584 38.6122 74.7383 38.1577C74.9229 37.6984 75.0153 37.1491 75.0153 36.5099C75.0153 35.8707 74.9253 35.3168 74.7454 34.848C74.5655 34.3745 74.305 34.0076 73.9641 33.7472C73.6232 33.4867 73.2089 33.3565 72.7212 33.3565C72.2241 33.3565 71.805 33.4915 71.4641 33.7614C71.1232 34.0265 70.8652 34.3958 70.69 34.8693C70.5148 35.3428 70.4272 35.8897 70.4272 36.5099C70.4272 37.1397 70.5148 37.6842 70.69 38.1435C70.8699 38.598 71.128 38.9508 71.4641 39.2017C71.805 39.4479 72.2241 39.571 72.7212 39.571ZM87.3945 37.3551V31.0909H90.4201V42H87.5153V40.0185H87.4016C87.1554 40.6577 86.7459 41.1714 86.1729 41.5597C85.6048 41.9479 84.9111 42.142 84.092 42.142C83.3628 42.142 82.7212 41.9763 82.1673 41.6449C81.6133 41.3134 81.18 40.8423 80.8675 40.2315C80.5598 39.6207 80.4035 38.8892 80.3988 38.0369V31.0909H83.4244V37.4972C83.4291 38.1411 83.6019 38.6501 83.9428 39.0241C84.2837 39.3982 84.7406 39.5852 85.3136 39.5852C85.6781 39.5852 86.0191 39.5024 86.3363 39.3366C86.6535 39.1662 86.9092 38.9152 87.1033 38.5838C87.3022 38.2524 87.3993 37.8428 87.3945 37.3551ZM95.8658 27.4545V42H92.8402V27.4545H95.8658ZM101.4 42.206C100.704 42.206 100.084 42.0852 99.5394 41.8438C98.9949 41.5975 98.564 41.2353 98.2468 40.7571C97.9343 40.2741 97.7781 39.6728 97.7781 38.9531C97.7781 38.3471 97.8893 37.8381 98.1119 37.4261C98.3344 37.0142 98.6374 36.6828 99.021 36.4318C99.4045 36.1809 99.8401 35.9915 100.328 35.8636C100.82 35.7358 101.336 35.6458 101.876 35.5938C102.511 35.5275 103.022 35.4659 103.41 35.4091C103.798 35.3475 104.08 35.2576 104.255 35.1392C104.431 35.0208 104.518 34.8456 104.518 34.6136V34.571C104.518 34.1212 104.376 33.7732 104.092 33.527C103.813 33.2808 103.415 33.1577 102.899 33.1577C102.354 33.1577 101.921 33.2784 101.599 33.5199C101.277 33.7566 101.064 34.0549 100.96 34.4148L98.1616 34.1875C98.3036 33.5246 98.583 32.9517 98.9996 32.4688C99.4163 31.9811 99.9537 31.607 100.612 31.3466C101.275 31.0814 102.042 30.9489 102.913 30.9489C103.519 30.9489 104.099 31.0199 104.653 31.1619C105.212 31.304 105.707 31.5241 106.137 31.8224C106.573 32.1207 106.916 32.5043 107.167 32.973C107.418 33.437 107.544 33.9934 107.544 34.642V42H104.674V40.4872H104.589C104.414 40.8281 104.18 41.1288 103.886 41.3892C103.592 41.6449 103.24 41.8461 102.828 41.9929C102.416 42.1349 101.94 42.206 101.4 42.206ZM102.267 40.1179C102.712 40.1179 103.105 40.0303 103.446 39.8551C103.787 39.6752 104.054 39.4337 104.248 39.1307C104.442 38.8277 104.539 38.4844 104.539 38.1009V36.9432C104.445 37.0047 104.315 37.0616 104.149 37.1136C103.988 37.161 103.806 37.206 103.602 37.2486C103.398 37.2865 103.195 37.322 102.991 37.3551C102.788 37.3835 102.603 37.4096 102.437 37.4332C102.082 37.4853 101.772 37.5682 101.507 37.6818C101.242 37.7955 101.036 37.9493 100.889 38.1435C100.742 38.3329 100.669 38.5696 100.669 38.8537C100.669 39.2656 100.818 39.5805 101.116 39.7983C101.419 40.0114 101.803 40.1179 102.267 40.1179ZM109.891 42V31.0909H112.824V32.9943H112.938C113.137 32.3172 113.471 31.8059 113.939 31.4602C114.408 31.1098 114.948 30.9347 115.559 30.9347C115.71 30.9347 115.873 30.9441 116.049 30.9631C116.224 30.982 116.378 31.008 116.51 31.0412V33.7259C116.368 33.6832 116.172 33.6454 115.921 33.6122C115.67 33.5791 115.44 33.5625 115.232 33.5625C114.787 33.5625 114.389 33.6596 114.039 33.8537C113.693 34.0431 113.418 34.3082 113.215 34.6491C113.016 34.9901 112.917 35.383 112.917 35.8281V42H109.891Z" fill="white"/>
</svg>
