<svg width="206" height="71" viewBox="0 0 206 71" fill="none" xmlns="http://www.w3.org/2000/svg">
<rect width="206" height="71" rx="35.5" fill="#E5E0D5"/>
<path d="M60.4886 32.5469H57.3778C57.321 32.1444 57.205 31.7869 57.0298 31.4744C56.8546 31.1572 56.6297 30.8873 56.3551 30.6648C56.0805 30.4422 55.7633 30.2718 55.4034 30.1534C55.0483 30.035 54.6624 29.9759 54.2457 29.9759C53.4929 29.9759 52.8371 30.1629 52.2784 30.5369C51.7197 30.9062 51.2865 31.446 50.9787 32.1562C50.6709 32.8617 50.517 33.7187 50.517 34.7273C50.517 35.7642 50.6709 36.6354 50.9787 37.3409C51.2912 38.0464 51.7268 38.5791 52.2855 38.9389C52.8442 39.2988 53.4905 39.4787 54.2244 39.4787C54.6364 39.4787 55.0175 39.4242 55.3679 39.3153C55.723 39.2064 56.0379 39.0478 56.3125 38.8395C56.5871 38.6264 56.8144 38.3684 56.9943 38.0653C57.179 37.7623 57.3068 37.4167 57.3778 37.0284L60.4886 37.0426C60.4081 37.7102 60.2069 38.3542 59.8849 38.9744C59.5677 39.59 59.1392 40.1416 58.5994 40.6293C58.0644 41.1122 57.4252 41.4957 56.6818 41.7798C55.9432 42.0592 55.1075 42.1989 54.1747 42.1989C52.8774 42.1989 51.7173 41.9053 50.6946 41.3182C49.6766 40.7311 48.8717 39.8812 48.2798 38.7685C47.6927 37.6558 47.3991 36.3087 47.3991 34.7273C47.3991 33.1411 47.6974 31.7917 48.294 30.679C48.8906 29.5663 49.7003 28.7187 50.723 28.1364C51.7457 27.5492 52.8963 27.2557 54.1747 27.2557C55.0175 27.2557 55.7988 27.3741 56.5185 27.6108C57.2429 27.8475 57.8845 28.1932 58.4432 28.6477C59.0019 29.0975 59.4564 29.6491 59.8068 30.3026C60.1619 30.956 60.3892 31.7041 60.4886 32.5469ZM65.6626 27.4545V42H62.6371V27.4545H65.6626ZM73.0153 42.2131C71.9121 42.2131 70.958 41.9787 70.1531 41.5099C69.3529 41.0365 68.735 40.3783 68.2994 39.5355C67.8638 38.688 67.646 37.7055 67.646 36.5881C67.646 35.4612 67.8638 34.4763 68.2994 33.6335C68.735 32.786 69.3529 32.1278 70.1531 31.6591C70.958 31.1856 71.9121 30.9489 73.0153 30.9489C74.1185 30.9489 75.0702 31.1856 75.8704 31.6591C76.6753 32.1278 77.2956 32.786 77.7312 33.6335C78.1668 34.4763 78.3846 35.4612 78.3846 36.5881C78.3846 37.7055 78.1668 38.688 77.7312 39.5355C77.2956 40.3783 76.6753 41.0365 75.8704 41.5099C75.0702 41.9787 74.1185 42.2131 73.0153 42.2131ZM73.0295 39.8693C73.5314 39.8693 73.9504 39.7273 74.2866 39.4432C74.6228 39.1544 74.8761 38.7614 75.0465 38.2642C75.2217 37.767 75.3093 37.2012 75.3093 36.5668C75.3093 35.9323 75.2217 35.3665 75.0465 34.8693C74.8761 34.3722 74.6228 33.9792 74.2866 33.6903C73.9504 33.4015 73.5314 33.2571 73.0295 33.2571C72.5228 33.2571 72.0967 33.4015 71.7511 33.6903C71.4102 33.9792 71.1521 34.3722 70.9769 34.8693C70.8065 35.3665 70.7212 35.9323 70.7212 36.5668C70.7212 37.2012 70.8065 37.767 70.9769 38.2642C71.1521 38.7614 71.4102 39.1544 71.7511 39.4432C72.0967 39.7273 72.5228 39.8693 73.0295 39.8693ZM87.3477 37.3551V31.0909H90.3732V42H87.4684V40.0185H87.3548C87.1085 40.6577 86.699 41.1714 86.1261 41.5597C85.5579 41.9479 84.8642 42.142 84.0451 42.142C83.3159 42.142 82.6744 41.9763 82.1204 41.6449C81.5664 41.3134 81.1332 40.8423 80.8207 40.2315C80.5129 39.6207 80.3567 38.8892 80.3519 38.0369V31.0909H83.3775V37.4972C83.3822 38.1411 83.555 38.6501 83.896 39.0241C84.2369 39.3982 84.6938 39.5852 85.2667 39.5852C85.6313 39.5852 85.9722 39.5024 86.2894 39.3366C86.6067 39.1662 86.8623 38.9152 87.0565 38.5838C87.2553 38.2524 87.3524 37.8428 87.3477 37.3551ZM96.8132 42.1776C95.9846 42.1776 95.2341 41.9645 94.5618 41.5384C93.8942 41.1075 93.3639 40.4754 92.9709 39.642C92.5826 38.804 92.3885 37.7765 92.3885 36.5597C92.3885 35.3097 92.5897 34.2704 92.9922 33.4418C93.3946 32.6084 93.9297 31.9858 94.5973 31.5739C95.2696 31.1572 96.0059 30.9489 96.8061 30.9489C97.4169 30.9489 97.9259 31.053 98.3331 31.2614C98.745 31.465 99.0765 31.7206 99.3274 32.0284C99.5831 32.3314 99.7772 32.6297 99.9098 32.9233H100.002V27.4545H103.021V42H100.038V40.2528H99.9098C99.7678 40.5559 99.5665 40.8565 99.3061 41.1548C99.0504 41.4484 98.7166 41.6922 98.3047 41.8864C97.8975 42.0805 97.4003 42.1776 96.8132 42.1776ZM97.772 39.7699C98.2597 39.7699 98.6716 39.6373 99.0078 39.3722C99.3487 39.1023 99.6091 38.7259 99.7891 38.2429C99.9737 37.7599 100.066 37.1941 100.066 36.5455C100.066 35.8968 99.9761 35.3333 99.7962 34.8551C99.6162 34.3769 99.3558 34.0076 99.0149 33.7472C98.674 33.4867 98.2597 33.3565 97.772 33.3565C97.2749 33.3565 96.8558 33.4915 96.5149 33.7614C96.174 34.0312 95.916 34.4053 95.7408 34.8835C95.5656 35.3617 95.478 35.9157 95.478 36.5455C95.478 37.1799 95.5656 37.741 95.7408 38.2287C95.9207 38.7116 96.1787 39.0904 96.5149 39.3651C96.8558 39.6349 97.2749 39.7699 97.772 39.7699ZM110.194 42V27.4545H119.825V29.9901H113.269V33.456H119.185V35.9915H113.269V42H110.194ZM121.661 42V31.0909H124.594V32.9943H124.707C124.906 32.3172 125.24 31.8059 125.709 31.4602C126.178 31.1098 126.717 30.9347 127.328 30.9347C127.48 30.9347 127.643 30.9441 127.818 30.9631C127.993 30.982 128.147 31.008 128.28 31.0412V33.7259C128.138 33.6832 127.941 33.6454 127.69 33.6122C127.439 33.5791 127.21 33.5625 127.001 33.5625C126.556 33.5625 126.159 33.6596 125.808 33.8537C125.463 34.0431 125.188 34.3082 124.984 34.6491C124.786 34.9901 124.686 35.383 124.686 35.8281V42H121.661ZM134.265 42.2131C133.162 42.2131 132.208 41.9787 131.403 41.5099C130.603 41.0365 129.985 40.3783 129.549 39.5355C129.114 38.688 128.896 37.7055 128.896 36.5881C128.896 35.4612 129.114 34.4763 129.549 33.6335C129.985 32.786 130.603 32.1278 131.403 31.6591C132.208 31.1856 133.162 30.9489 134.265 30.9489C135.368 30.9489 136.32 31.1856 137.12 31.6591C137.925 32.1278 138.546 32.786 138.981 33.6335C139.417 34.4763 139.635 35.4612 139.635 36.5881C139.635 37.7055 139.417 38.688 138.981 39.5355C138.546 40.3783 137.925 41.0365 137.12 41.5099C136.32 41.9787 135.368 42.2131 134.265 42.2131ZM134.279 39.8693C134.781 39.8693 135.2 39.7273 135.537 39.4432C135.873 39.1544 136.126 38.7614 136.297 38.2642C136.472 37.767 136.559 37.2012 136.559 36.5668C136.559 35.9323 136.472 35.3665 136.297 34.8693C136.126 34.3722 135.873 33.9792 135.537 33.6903C135.2 33.4015 134.781 33.2571 134.279 33.2571C133.773 33.2571 133.347 33.4015 133.001 33.6903C132.66 33.9792 132.402 34.3722 132.227 34.8693C132.056 35.3665 131.971 35.9323 131.971 36.5668C131.971 37.2012 132.056 37.767 132.227 38.2642C132.402 38.7614 132.66 39.1544 133.001 39.4432C133.347 39.7273 133.773 39.8693 134.279 39.8693ZM144.627 35.6932V42H141.602V31.0909H144.485V33.0156H144.613C144.855 32.3812 145.26 31.8793 145.828 31.5099C146.396 31.1359 147.085 30.9489 147.895 30.9489C148.652 30.9489 149.313 31.1146 149.876 31.446C150.44 31.7775 150.877 32.2509 151.19 32.8665C151.502 33.4773 151.659 34.2064 151.659 35.054V42H148.633V35.5938C148.638 34.9261 148.467 34.4053 148.122 34.0312C147.776 33.6525 147.3 33.4631 146.694 33.4631C146.287 33.4631 145.927 33.5507 145.615 33.7259C145.307 33.901 145.065 34.1567 144.89 34.4929C144.72 34.8243 144.632 35.2244 144.627 35.6932ZM159.846 31.0909V33.3636H153.276V31.0909H159.846ZM154.768 28.4773H157.793V38.6477C157.793 38.9271 157.836 39.1449 157.921 39.3011C158.006 39.4527 158.125 39.5592 158.276 39.6207C158.433 39.6823 158.612 39.7131 158.816 39.7131C158.958 39.7131 159.1 39.7012 159.242 39.6776C159.384 39.6491 159.493 39.6278 159.569 39.6136L160.045 41.8651C159.893 41.9124 159.68 41.9669 159.406 42.0284C159.131 42.0947 158.797 42.1349 158.404 42.1491C157.675 42.1776 157.036 42.0805 156.487 41.858C155.942 41.6354 155.518 41.2898 155.215 40.821C154.912 40.3523 154.763 39.7604 154.768 39.0455V28.4773Z" fill="#262525"/>
</svg>
