<svg width="146" height="71" viewBox="0 0 146 71" fill="none" xmlns="http://www.w3.org/2000/svg">
<rect width="146" height="71" rx="35.5" fill="#E5E0D5"/>
<path d="M44.479 42H39.3228V27.4545H44.5217C45.9847 27.4545 47.2442 27.7457 48.3001 28.3281C49.3559 28.9058 50.168 29.7367 50.7362 30.821C51.3091 31.9053 51.5955 33.2027 51.5955 34.7131C51.5955 36.2282 51.3091 37.5303 50.7362 38.6193C50.168 39.7083 49.3512 40.544 48.2859 41.1264C47.2253 41.7088 45.9563 42 44.479 42ZM42.3981 39.3651H44.3512C45.2603 39.3651 46.025 39.2041 46.6452 38.8821C47.2702 38.5554 47.739 38.0511 48.0515 37.3693C48.3687 36.6828 48.5273 35.7973 48.5273 34.7131C48.5273 33.6383 48.3687 32.7599 48.0515 32.0781C47.739 31.3963 47.2726 30.8944 46.6523 30.5724C46.0321 30.2505 45.2674 30.0895 44.3583 30.0895H42.3981V39.3651ZM58.7457 42.2131C57.6425 42.2131 56.6884 41.9787 55.8835 41.5099C55.0833 41.0365 54.4654 40.3783 54.0298 39.5355C53.5942 38.688 53.3764 37.7055 53.3764 36.5881C53.3764 35.4612 53.5942 34.4763 54.0298 33.6335C54.4654 32.786 55.0833 32.1278 55.8835 31.6591C56.6884 31.1856 57.6425 30.9489 58.7457 30.9489C59.849 30.9489 60.8007 31.1856 61.6009 31.6591C62.4058 32.1278 63.026 32.786 63.4616 33.6335C63.8973 34.4763 64.1151 35.4612 64.1151 36.5881C64.1151 37.7055 63.8973 38.688 63.4616 39.5355C63.026 40.3783 62.4058 41.0365 61.6009 41.5099C60.8007 41.9787 59.849 42.2131 58.7457 42.2131ZM58.7599 39.8693C59.2618 39.8693 59.6809 39.7273 60.017 39.4432C60.3532 39.1544 60.6065 38.7614 60.777 38.2642C60.9522 37.767 61.0398 37.2012 61.0398 36.5668C61.0398 35.9323 60.9522 35.3665 60.777 34.8693C60.6065 34.3722 60.3532 33.9792 60.017 33.6903C59.6809 33.4015 59.2618 33.2571 58.7599 33.2571C58.2533 33.2571 57.8272 33.4015 57.4815 33.6903C57.1406 33.9792 56.8826 34.3722 56.7074 34.8693C56.5369 35.3665 56.4517 35.9323 56.4517 36.5668C56.4517 37.2012 56.5369 37.767 56.7074 38.2642C56.8826 38.7614 57.1406 39.1544 57.4815 39.4432C57.8272 39.7273 58.2533 39.8693 58.7599 39.8693ZM71.0114 42.2131C69.8939 42.2131 68.9328 41.9763 68.1278 41.5028C67.3277 41.0246 66.7121 40.3617 66.2812 39.5142C65.8551 38.6667 65.642 37.6913 65.642 36.5881C65.642 35.4706 65.8575 34.4905 66.2884 33.6477C66.724 32.8002 67.3419 32.1397 68.142 31.6662C68.9422 31.188 69.8939 30.9489 70.9972 30.9489C71.9489 30.9489 72.7822 31.1217 73.4972 31.4673C74.2121 31.813 74.7779 32.2983 75.1946 32.9233C75.6113 33.5483 75.8409 34.2822 75.8835 35.125H73.0284C72.9479 34.5805 72.7348 34.1425 72.3892 33.8111C72.0483 33.4749 71.6009 33.3068 71.0469 33.3068C70.5781 33.3068 70.1686 33.4347 69.8182 33.6903C69.4725 33.9413 69.2027 34.3082 69.0085 34.7912C68.8144 35.2741 68.7173 35.8589 68.7173 36.5455C68.7173 37.2415 68.812 37.8333 69.0014 38.321C69.1955 38.8087 69.4678 39.1804 69.8182 39.4361C70.1686 39.6918 70.5781 39.8196 71.0469 39.8196C71.3925 39.8196 71.7027 39.7486 71.9773 39.6065C72.2566 39.4645 72.4863 39.2585 72.6662 38.9886C72.8509 38.714 72.9716 38.3849 73.0284 38.0014H75.8835C75.8362 38.8348 75.6089 39.5687 75.2017 40.2031C74.7992 40.8329 74.2429 41.3253 73.5327 41.6804C72.8224 42.0355 71.982 42.2131 71.0114 42.2131ZM80.5621 38.8608L80.5692 35.2315H81.0096L84.5039 31.0909H87.9769L83.2823 36.5739H82.565L80.5621 38.8608ZM77.8207 42V27.4545H80.8462V42H77.8207ZM84.6388 42L81.4286 37.2486L83.4457 35.1108L88.1829 42H84.6388ZM93.9837 42.2131C92.8615 42.2131 91.8956 41.9858 91.0859 41.5312C90.281 41.072 89.6607 40.4233 89.2251 39.5852C88.7895 38.7424 88.5717 37.7457 88.5717 36.5952C88.5717 35.473 88.7895 34.4882 89.2251 33.6406C89.6607 32.7931 90.2739 32.1326 91.0646 31.6591C91.8601 31.1856 92.7929 30.9489 93.8629 30.9489C94.5826 30.9489 95.2526 31.0649 95.8729 31.2969C96.4979 31.5241 97.0424 31.8674 97.5064 32.3267C97.9751 32.786 98.3397 33.3636 98.6001 34.0597C98.8606 34.7509 98.9908 35.5606 98.9908 36.4886V37.3196H89.7791V35.4446H96.1428C96.1428 35.009 96.0481 34.6231 95.8587 34.2869C95.6693 33.9508 95.4065 33.688 95.0703 33.4986C94.7389 33.3045 94.353 33.2074 93.9126 33.2074C93.4534 33.2074 93.0462 33.3139 92.6911 33.527C92.3407 33.7353 92.0661 34.017 91.8672 34.3722C91.6683 34.7225 91.5665 35.1132 91.5618 35.544V37.3267C91.5618 37.8665 91.6612 38.3329 91.8601 38.7259C92.0637 39.1188 92.3501 39.4219 92.7195 39.6349C93.0888 39.848 93.5268 39.9545 94.0334 39.9545C94.3696 39.9545 94.6773 39.9072 94.9567 39.8125C95.236 39.7178 95.4751 39.5758 95.674 39.3864C95.8729 39.197 96.0244 38.965 96.1286 38.6903L98.9268 38.875C98.7848 39.5473 98.4936 40.1345 98.0533 40.6364C97.6177 41.1335 97.0542 41.5218 96.3629 41.8011C95.6764 42.0758 94.8833 42.2131 93.9837 42.2131ZM100.965 42V31.0909H103.898V32.9943H104.012C104.211 32.3172 104.545 31.8059 105.013 31.4602C105.482 31.1098 106.022 30.9347 106.633 30.9347C106.784 30.9347 106.948 30.9441 107.123 30.9631C107.298 30.982 107.452 31.008 107.585 31.0412V33.7259C107.442 33.6832 107.246 33.6454 106.995 33.6122C106.744 33.5791 106.514 33.5625 106.306 33.5625C105.861 33.5625 105.463 33.6596 105.113 33.8537C104.767 34.0431 104.493 34.3082 104.289 34.6491C104.09 34.9901 103.991 35.383 103.991 35.8281V42H100.965Z" fill="#262525"/>
</svg>
