<svg width="156" height="71" viewBox="0 0 156 71" fill="none" xmlns="http://www.w3.org/2000/svg">
<rect width="156" height="71" rx="35.5" fill="#343434"/>
<path d="M53.4537 42V27.4545H63.0843V29.9901H56.5289V33.456H62.4451V35.9915H56.5289V42H53.4537ZM68.1216 27.4545V42H65.0961V27.4545H68.1216ZM73.6561 42.206C72.96 42.206 72.3398 42.0852 71.7953 41.8438C71.2508 41.5975 70.8199 41.2353 70.5027 40.7571C70.1902 40.2741 70.0339 39.6728 70.0339 38.9531C70.0339 38.3471 70.1452 37.8381 70.3677 37.4261C70.5903 37.0142 70.8933 36.6828 71.2768 36.4318C71.6603 36.1809 72.0959 35.9915 72.5836 35.8636C73.0761 35.7358 73.5922 35.6458 74.1319 35.5938C74.7664 35.5275 75.2778 35.4659 75.666 35.4091C76.0543 35.3475 76.336 35.2576 76.5112 35.1392C76.6864 35.0208 76.774 34.8456 76.774 34.6136V34.571C76.774 34.1212 76.6319 33.7732 76.3478 33.527C76.0685 33.2808 75.6708 33.1577 75.1547 33.1577C74.6101 33.1577 74.1769 33.2784 73.8549 33.5199C73.533 33.7566 73.3199 34.0549 73.2157 34.4148L70.4174 34.1875C70.5595 33.5246 70.8388 32.9517 71.2555 32.4688C71.6722 31.9811 72.2096 31.607 72.8677 31.3466C73.5306 31.0814 74.2976 30.9489 75.1689 30.9489C75.7749 30.9489 76.3549 31.0199 76.9089 31.1619C77.4676 31.304 77.9624 31.5241 78.3933 31.8224C78.8289 32.1207 79.1722 32.5043 79.4231 32.973C79.6741 33.437 79.7995 33.9934 79.7995 34.642V42H76.9302V40.4872H76.845C76.6698 40.8281 76.4354 41.1288 76.1419 41.3892C75.8483 41.6449 75.4956 41.8461 75.0836 41.9929C74.6717 42.1349 74.1958 42.206 73.6561 42.206ZM74.5225 40.1179C74.9676 40.1179 75.3606 40.0303 75.7015 39.8551C76.0424 39.6752 76.31 39.4337 76.5041 39.1307C76.6982 38.8277 76.7953 38.4844 76.7953 38.1009V36.9432C76.7006 37.0047 76.5704 37.0616 76.4047 37.1136C76.2437 37.161 76.0614 37.206 75.8578 37.2486C75.6542 37.2865 75.4506 37.322 75.247 37.3551C75.0434 37.3835 74.8587 37.4096 74.693 37.4332C74.3379 37.4853 74.0278 37.5682 73.7626 37.6818C73.4975 37.7955 73.2915 37.9493 73.1447 38.1435C72.9979 38.3329 72.9245 38.5696 72.9245 38.8537C72.9245 39.2656 73.0737 39.5805 73.372 39.7983C73.675 40.0114 74.0585 40.1179 74.5225 40.1179ZM91.2235 34.2017L88.4537 34.3722C88.4063 34.1354 88.3045 33.9223 88.1483 33.733C87.992 33.5388 87.786 33.3849 87.5304 33.2713C87.2794 33.1529 86.9788 33.0938 86.6284 33.0938C86.1596 33.0938 85.7643 33.1932 85.4423 33.392C85.1203 33.5862 84.9593 33.8466 84.9593 34.1733C84.9593 34.4337 85.0635 34.6539 85.2718 34.8338C85.4802 35.0137 85.8377 35.1581 86.3443 35.267L88.3187 35.6648C89.3793 35.8826 90.17 36.233 90.6909 36.7159C91.2117 37.1989 91.4721 37.8333 91.4721 38.6193C91.4721 39.3343 91.2614 39.9616 90.84 40.5014C90.4234 41.0412 89.8504 41.4626 89.1213 41.7656C88.3968 42.0639 87.5611 42.2131 86.6142 42.2131C85.17 42.2131 84.0195 41.9124 83.1625 41.3111C82.3102 40.705 81.8107 39.8812 81.6639 38.8395L84.6397 38.6832C84.7297 39.1236 84.9475 39.4598 85.2931 39.6918C85.6388 39.919 86.0815 40.0327 86.6213 40.0327C87.1516 40.0327 87.5777 39.9309 87.8997 39.7273C88.2264 39.5189 88.3921 39.2514 88.3968 38.9247C88.3921 38.6501 88.2761 38.4252 88.0488 38.25C87.8216 38.0701 87.4712 37.9328 86.9977 37.8381L85.1085 37.4616C84.0431 37.2486 83.2501 36.8793 82.7292 36.3537C82.2131 35.8281 81.9551 35.1581 81.9551 34.3438C81.9551 33.643 82.1445 33.0393 82.5233 32.5327C82.9068 32.026 83.4442 31.6354 84.1355 31.3608C84.8315 31.0862 85.6459 30.9489 86.5787 30.9489C87.9565 30.9489 89.0408 31.2401 89.8315 31.8224C90.627 32.4048 91.091 33.1979 91.2235 34.2017ZM96.1188 38.8608L96.1259 35.2315H96.5662L100.061 31.0909H103.534L98.839 36.5739H98.1216L96.1188 38.8608ZM93.3773 42V27.4545H96.4029V42H93.3773ZM100.195 42L96.9853 37.2486L99.0023 35.1108L103.74 42H100.195Z" fill="white"/>
</svg>
