<svg width="106" height="71" viewBox="0 0 106 71" fill="none" xmlns="http://www.w3.org/2000/svg">
<rect width="106" height="71" rx="35.5" fill="#E5E0D5"/>
<path d="M49.3485 32.1562C49.2491 31.8106 49.1094 31.5052 48.9295 31.2401C48.7496 30.9702 48.5294 30.7429 48.269 30.5582C48.0133 30.3688 47.7198 30.2244 47.3883 30.125C47.0616 30.0256 46.6994 29.9759 46.3017 29.9759C45.5583 29.9759 44.9049 30.1605 44.3414 30.5298C43.7827 30.8991 43.3471 31.4366 43.0346 32.142C42.7221 32.8428 42.5659 33.6998 42.5659 34.7131C42.5659 35.7263 42.7198 36.5881 43.0275 37.2983C43.3353 38.0085 43.7709 38.5507 44.3343 38.9247C44.8978 39.294 45.563 39.4787 46.3301 39.4787C47.0261 39.4787 47.6203 39.3556 48.1127 39.1094C48.6099 38.8584 48.9887 38.5057 49.2491 38.0511C49.5143 37.5966 49.6468 37.0592 49.6468 36.4389L50.2718 36.5312H46.5218V34.2159H52.6085V36.0483C52.6085 37.3267 52.3386 38.4252 51.7988 39.3438C51.2591 40.2576 50.5157 40.9631 49.5687 41.4602C48.6217 41.9527 47.5375 42.1989 46.3159 42.1989C44.9522 42.1989 43.7543 41.8982 42.7221 41.2969C41.6899 40.6908 40.885 39.8314 40.3074 38.7188C39.7344 37.6013 39.448 36.2756 39.448 34.7415C39.448 33.5625 39.6184 32.5114 39.9593 31.5881C40.305 30.66 40.7879 29.8741 41.4082 29.2301C42.0285 28.5862 42.7505 28.0961 43.5744 27.7599C44.3983 27.4238 45.2908 27.2557 46.252 27.2557C47.0758 27.2557 47.8429 27.3764 48.5531 27.6179C49.2633 27.8546 49.8931 28.1908 50.4423 28.6264C50.9963 29.062 51.4484 29.5805 51.7988 30.1818C52.1492 30.7784 52.3741 31.4366 52.4735 32.1562H49.3485ZM55.5453 42V31.0909H58.5708V42H55.5453ZM57.0652 29.6847C56.6154 29.6847 56.2295 29.5355 55.9075 29.2372C55.5903 28.9342 55.4316 28.572 55.4316 28.1506C55.4316 27.7339 55.5903 27.3764 55.9075 27.0781C56.2295 26.7751 56.6154 26.6236 57.0652 26.6236C57.515 26.6236 57.8985 26.7751 58.2157 27.0781C58.5377 27.3764 58.6987 27.7339 58.6987 28.1506C58.6987 28.572 58.5377 28.9342 58.2157 29.2372C57.8985 29.5355 57.515 29.6847 57.0652 29.6847ZM66.7971 31.0909V33.3636H60.2275V31.0909H66.7971ZM61.7189 28.4773H64.7445V38.6477C64.7445 38.9271 64.7871 39.1449 64.8723 39.3011C64.9576 39.4527 65.0759 39.5592 65.2275 39.6207C65.3837 39.6823 65.5636 39.7131 65.7672 39.7131C65.9093 39.7131 66.0513 39.7012 66.1934 39.6776C66.3354 39.6491 66.4443 39.6278 66.5201 39.6136L66.9959 41.8651C66.8444 41.9124 66.6313 41.9669 66.3567 42.0284C66.0821 42.0947 65.7483 42.1349 65.3553 42.1491C64.6261 42.1776 63.9869 42.0805 63.4377 41.858C62.8932 41.6354 62.4694 41.2898 62.1664 40.821C61.8633 40.3523 61.7142 39.7604 61.7189 39.0455V28.4773Z" fill="#262525"/>
</svg>
