<svg width="206" height="71" viewBox="0 0 206 71" fill="none" xmlns="http://www.w3.org/2000/svg">
<rect width="206" height="71" rx="35.5" fill="#EDC48A"/>
<path d="M50.0384 29.9901V27.4545H61.9844V29.9901H57.5312V42H54.4915V29.9901H50.0384ZM64.5128 46.0909C64.1293 46.0909 63.7694 46.0601 63.4332 45.9986C63.1018 45.9418 62.8272 45.8684 62.6094 45.7784L63.2912 43.5199C63.6463 43.6288 63.9659 43.688 64.25 43.6974C64.5388 43.7069 64.7874 43.6406 64.9957 43.4986C65.2088 43.3565 65.3816 43.1151 65.5142 42.7741L65.6918 42.3125L61.7784 31.0909H64.9602L67.2188 39.1023H67.3324L69.6122 31.0909H72.8153L68.5753 43.179C68.3717 43.7661 68.0947 44.2775 67.7443 44.7131C67.3987 45.1534 66.9607 45.492 66.4304 45.7287C65.9001 45.9702 65.2609 46.0909 64.5128 46.0909ZM74.3636 46.0909V31.0909H77.3466V32.9233H77.4815C77.6141 32.6297 77.8059 32.3314 78.0568 32.0284C78.3125 31.7206 78.6439 31.465 79.0511 31.2614C79.4631 31.053 79.9744 30.9489 80.5852 30.9489C81.3807 30.9489 82.1146 31.1572 82.7869 31.5739C83.4593 31.9858 83.9967 32.6084 84.3991 33.4418C84.8016 34.2704 85.0028 35.3097 85.0028 36.5597C85.0028 37.7765 84.8063 38.804 84.4134 39.642C84.0251 40.4754 83.4948 41.1075 82.8224 41.5384C82.1548 41.9645 81.4067 42.1776 80.5781 42.1776C79.991 42.1776 79.4915 42.0805 79.0795 41.8864C78.6723 41.6922 78.3385 41.4484 78.0781 41.1548C77.8177 40.8565 77.6188 40.5559 77.4815 40.2528H77.3892V46.0909H74.3636ZM77.3253 36.5455C77.3253 37.1941 77.4152 37.7599 77.5952 38.2429C77.7751 38.7259 78.0355 39.1023 78.3764 39.3722C78.7173 39.6373 79.1316 39.7699 79.6193 39.7699C80.1117 39.7699 80.5284 39.6349 80.8693 39.3651C81.2102 39.0904 81.4683 38.7116 81.6435 38.2287C81.8234 37.741 81.9134 37.1799 81.9134 36.5455C81.9134 35.9157 81.8258 35.3617 81.6506 34.8835C81.4754 34.4053 81.2173 34.0312 80.8764 33.7614C80.5355 33.4915 80.1165 33.3565 79.6193 33.3565C79.1269 33.3565 78.7102 33.4867 78.3693 33.7472C78.0331 34.0076 77.7751 34.3769 77.5952 34.8551C77.4152 35.3333 77.3253 35.8968 77.3253 36.5455ZM91.9915 42.2131C90.8693 42.2131 89.9034 41.9858 89.0938 41.5312C88.2888 41.072 87.6686 40.4233 87.233 39.5852C86.7973 38.7424 86.5795 37.7457 86.5795 36.5952C86.5795 35.473 86.7973 34.4882 87.233 33.6406C87.6686 32.7931 88.2817 32.1326 89.0724 31.6591C89.8679 31.1856 90.8007 30.9489 91.8707 30.9489C92.5904 30.9489 93.2604 31.0649 93.8807 31.2969C94.5057 31.5241 95.0502 31.8674 95.5142 32.3267C95.983 32.786 96.3475 33.3636 96.608 34.0597C96.8684 34.7509 96.9986 35.5606 96.9986 36.4886V37.3196H87.7869V35.4446H94.1506C94.1506 35.009 94.0559 34.6231 93.8665 34.2869C93.6771 33.9508 93.4143 33.688 93.0781 33.4986C92.7467 33.3045 92.3608 33.2074 91.9205 33.2074C91.4612 33.2074 91.054 33.3139 90.6989 33.527C90.3485 33.7353 90.0739 34.017 89.875 34.3722C89.6761 34.7225 89.5743 35.1132 89.5696 35.544V37.3267C89.5696 37.8665 89.669 38.3329 89.8679 38.7259C90.0715 39.1188 90.358 39.4219 90.7273 39.6349C91.0966 39.848 91.5346 39.9545 92.0412 39.9545C92.3774 39.9545 92.6851 39.9072 92.9645 39.8125C93.2438 39.7178 93.483 39.5758 93.6818 39.3864C93.8807 39.197 94.0322 38.965 94.1364 38.6903L96.9347 38.875C96.7926 39.5473 96.5014 40.1345 96.0611 40.6364C95.6255 41.1335 95.062 41.5218 94.3707 41.8011C93.6842 42.0758 92.8911 42.2131 91.9915 42.2131ZM106.92 31.6378C106.864 31.0649 106.62 30.6198 106.189 30.3026C105.758 29.9853 105.173 29.8267 104.435 29.8267C103.933 29.8267 103.509 29.8977 103.163 30.0398C102.818 30.1771 102.553 30.3688 102.368 30.6151C102.188 30.8613 102.098 31.1406 102.098 31.4531C102.089 31.7135 102.143 31.9408 102.261 32.1349C102.384 32.3291 102.553 32.4972 102.766 32.6392C102.979 32.7765 103.225 32.8973 103.504 33.0014C103.784 33.1009 104.082 33.1861 104.399 33.2571L105.706 33.5696C106.34 33.7116 106.923 33.901 107.453 34.1378C107.983 34.3745 108.443 34.6657 108.831 35.0114C109.219 35.357 109.52 35.7642 109.733 36.233C109.951 36.7017 110.062 37.2391 110.067 37.8452C110.062 38.7353 109.835 39.5071 109.385 40.1605C108.94 40.8092 108.296 41.3134 107.453 41.6733C106.615 42.0284 105.604 42.206 104.42 42.206C103.246 42.206 102.223 42.026 101.352 41.6662C100.486 41.3063 99.8087 40.7737 99.321 40.0682C98.8381 39.358 98.5848 38.4796 98.5611 37.4332H101.537C101.57 37.9209 101.71 38.3281 101.956 38.6548C102.207 38.9768 102.541 39.2206 102.957 39.3864C103.379 39.5473 103.855 39.6278 104.385 39.6278C104.906 39.6278 105.358 39.5521 105.741 39.4006C106.13 39.2491 106.43 39.0384 106.643 38.7685C106.857 38.4986 106.963 38.1884 106.963 37.8381C106.963 37.5114 106.866 37.2367 106.672 37.0142C106.482 36.7917 106.203 36.6023 105.834 36.446C105.469 36.2898 105.022 36.1477 104.491 36.0199L102.908 35.6222C101.681 35.3239 100.713 34.8575 100.003 34.223C99.2926 33.5885 98.9399 32.7339 98.9446 31.6591C98.9399 30.7784 99.1742 30.009 99.6477 29.3509C100.126 28.6927 100.782 28.179 101.615 27.8097C102.448 27.4403 103.395 27.2557 104.456 27.2557C105.536 27.2557 106.478 27.4403 107.283 27.8097C108.092 28.179 108.722 28.6927 109.172 29.3509C109.622 30.009 109.854 30.7713 109.868 31.6378H106.92ZM117.007 42.2131C115.89 42.2131 114.929 41.9763 114.124 41.5028C113.324 41.0246 112.708 40.3617 112.277 39.5142C111.851 38.6667 111.638 37.6913 111.638 36.5881C111.638 35.4706 111.854 34.4905 112.284 33.6477C112.72 32.8002 113.338 32.1397 114.138 31.6662C114.938 31.188 115.89 30.9489 116.993 30.9489C117.945 30.9489 118.778 31.1217 119.493 31.4673C120.208 31.813 120.774 32.2983 121.191 32.9233C121.607 33.5483 121.837 34.2822 121.88 35.125H119.025C118.944 34.5805 118.731 34.1425 118.385 33.8111C118.044 33.4749 117.597 33.3068 117.043 33.3068C116.574 33.3068 116.165 33.4347 115.814 33.6903C115.469 33.9413 115.199 34.3082 115.005 34.7912C114.81 35.2741 114.713 35.8589 114.713 36.5455C114.713 37.2415 114.808 37.8333 114.998 38.321C115.192 38.8087 115.464 39.1804 115.814 39.4361C116.165 39.6918 116.574 39.8196 117.043 39.8196C117.389 39.8196 117.699 39.7486 117.973 39.6065C118.253 39.4645 118.482 39.2585 118.662 38.9886C118.847 38.714 118.968 38.3849 119.025 38.0014H121.88C121.832 38.8348 121.605 39.5687 121.198 40.2031C120.795 40.8329 120.239 41.3253 119.529 41.6804C118.819 42.0355 117.978 42.2131 117.007 42.2131ZM123.817 42V31.0909H126.75V32.9943H126.864C127.063 32.3172 127.396 31.8059 127.865 31.4602C128.334 31.1098 128.874 30.9347 129.484 30.9347C129.636 30.9347 129.799 30.9441 129.974 30.9631C130.15 30.982 130.304 31.008 130.436 31.0412V33.7259C130.294 33.6832 130.098 33.6454 129.847 33.6122C129.596 33.5791 129.366 33.5625 129.158 33.5625C128.713 33.5625 128.315 33.6596 127.964 33.8537C127.619 34.0431 127.344 34.3082 127.141 34.6491C126.942 34.9901 126.842 35.383 126.842 35.8281V42H123.817ZM132 42V31.0909H135.026V42H132ZM133.52 29.6847C133.07 29.6847 132.685 29.5355 132.363 29.2372C132.045 28.9342 131.887 28.572 131.887 28.1506C131.887 27.7339 132.045 27.3764 132.363 27.0781C132.685 26.7751 133.07 26.6236 133.52 26.6236C133.97 26.6236 134.354 26.7751 134.671 27.0781C134.993 27.3764 135.154 27.7339 135.154 28.1506C135.154 28.572 134.993 28.9342 134.671 29.2372C134.354 29.5355 133.97 29.6847 133.52 29.6847ZM137.45 46.0909V31.0909H140.433V32.9233H140.567C140.7 32.6297 140.892 32.3314 141.143 32.0284C141.398 31.7206 141.73 31.465 142.137 31.2614C142.549 31.053 143.06 30.9489 143.671 30.9489C144.467 30.9489 145.201 31.1572 145.873 31.5739C146.545 31.9858 147.083 32.6084 147.485 33.4418C147.888 34.2704 148.089 35.3097 148.089 36.5597C148.089 37.7765 147.892 38.804 147.499 39.642C147.111 40.4754 146.581 41.1075 145.908 41.5384C145.241 41.9645 144.493 42.1776 143.664 42.1776C143.077 42.1776 142.577 42.0805 142.165 41.8864C141.758 41.6922 141.424 41.4484 141.164 41.1548C140.904 40.8565 140.705 40.5559 140.567 40.2528H140.475V46.0909H137.45ZM140.411 36.5455C140.411 37.1941 140.501 37.7599 140.681 38.2429C140.861 38.7259 141.121 39.1023 141.462 39.3722C141.803 39.6373 142.218 39.7699 142.705 39.7699C143.198 39.7699 143.614 39.6349 143.955 39.3651C144.296 39.0904 144.554 38.7116 144.729 38.2287C144.909 37.741 144.999 37.1799 144.999 36.5455C144.999 35.9157 144.912 35.3617 144.737 34.8835C144.561 34.4053 144.303 34.0312 143.962 33.7614C143.621 33.4915 143.202 33.3565 142.705 33.3565C142.213 33.3565 141.796 33.4867 141.455 33.7472C141.119 34.0076 140.861 34.3769 140.681 34.8551C140.501 35.3333 140.411 35.8968 140.411 36.5455ZM155.908 31.0909V33.3636H149.339V31.0909H155.908ZM150.83 28.4773H153.856V38.6477C153.856 38.9271 153.898 39.1449 153.984 39.3011C154.069 39.4527 154.187 39.5592 154.339 39.6207C154.495 39.6823 154.675 39.7131 154.879 39.7131C155.021 39.7131 155.163 39.7012 155.305 39.6776C155.447 39.6491 155.556 39.6278 155.631 39.6136L156.107 41.8651C155.956 41.9124 155.743 41.9669 155.468 42.0284C155.193 42.0947 154.86 42.1349 154.467 42.1491C153.737 42.1776 153.098 42.0805 152.549 41.858C152.004 41.6354 151.581 41.2898 151.278 40.821C150.975 40.3523 150.826 39.7604 150.83 39.0455V28.4773Z" fill="black"/>
</svg>
