<svg width="184" height="71" viewBox="0 0 184 71" fill="none" xmlns="http://www.w3.org/2000/svg">
<rect width="184" height="71" rx="35.5" fill="#C87F50"/>
<path d="M49.2417 27.4545L52.7573 38.5057H52.8922L56.415 27.4545H59.824L54.8098 42H50.8468L45.8255 27.4545H49.2417ZM65.2591 42.2131C64.1369 42.2131 63.171 41.9858 62.3613 41.5312C61.5564 41.072 60.9361 40.4233 60.5005 39.5852C60.0649 38.7424 59.8471 37.7457 59.8471 36.5952C59.8471 35.473 60.0649 34.4882 60.5005 33.6406C60.9361 32.7931 61.5493 32.1326 62.34 31.6591C63.1355 31.1856 64.0682 30.9489 65.1383 30.9489C65.858 30.9489 66.528 31.0649 67.1483 31.2969C67.7733 31.5241 68.3178 31.8674 68.7818 32.3267C69.2505 32.786 69.6151 33.3636 69.8755 34.0597C70.1359 34.7509 70.2662 35.5606 70.2662 36.4886V37.3196H61.0545V35.4446H67.4181C67.4181 35.009 67.3234 34.6231 67.1341 34.2869C66.9447 33.9508 66.6819 33.688 66.3457 33.4986C66.0143 33.3045 65.6284 33.2074 65.188 33.2074C64.7288 33.2074 64.3216 33.3139 63.9664 33.527C63.6161 33.7353 63.3414 34.017 63.1426 34.3722C62.9437 34.7225 62.8419 35.1132 62.8372 35.544V37.3267C62.8372 37.8665 62.9366 38.3329 63.1355 38.7259C63.3391 39.1188 63.6255 39.4219 63.9949 39.6349C64.3642 39.848 64.8021 39.9545 65.3088 39.9545C65.6449 39.9545 65.9527 39.9072 66.2321 39.8125C66.5114 39.7178 66.7505 39.5758 66.9494 39.3864C67.1483 39.197 67.2998 38.965 67.4039 38.6903L70.2022 38.875C70.0602 39.5473 69.769 40.1345 69.3287 40.6364C68.8931 41.1335 68.3296 41.5218 67.6383 41.8011C66.9518 42.0758 66.1587 42.2131 65.2591 42.2131ZM77.1696 42.2131C76.0521 42.2131 75.091 41.9763 74.286 41.5028C73.4859 41.0246 72.8703 40.3617 72.4395 39.5142C72.0133 38.6667 71.8002 37.6913 71.8002 36.5881C71.8002 35.4706 72.0157 34.4905 72.4466 33.6477C72.8822 32.8002 73.5001 32.1397 74.3002 31.6662C75.1004 31.188 76.0521 30.9489 77.1554 30.9489C78.1071 30.9489 78.9404 31.1217 79.6554 31.4673C80.3703 31.813 80.9361 32.2983 81.3528 32.9233C81.7695 33.5483 81.9991 34.2822 82.0417 35.125H79.1866C79.1061 34.5805 78.8931 34.1425 78.5474 33.8111C78.2065 33.4749 77.7591 33.3068 77.2051 33.3068C76.7363 33.3068 76.3268 33.4347 75.9764 33.6903C75.6307 33.9413 75.3609 34.3082 75.1667 34.7912C74.9726 35.2741 74.8755 35.8589 74.8755 36.5455C74.8755 37.2415 74.9702 37.8333 75.1596 38.321C75.3538 38.8087 75.626 39.1804 75.9764 39.4361C76.3268 39.6918 76.7363 39.8196 77.2051 39.8196C77.5507 39.8196 77.8609 39.7486 78.1355 39.6065C78.4148 39.4645 78.6445 39.2585 78.8244 38.9886C79.0091 38.714 79.1298 38.3849 79.1866 38.0014H82.0417C81.9944 38.8348 81.7671 39.5687 81.3599 40.2031C80.9574 40.8329 80.4011 41.3253 79.6909 41.6804C78.9806 42.0355 78.1402 42.2131 77.1696 42.2131ZM89.7814 31.0909V33.3636H83.2118V31.0909H89.7814ZM84.7033 28.4773H87.7289V38.6477C87.7289 38.9271 87.7715 39.1449 87.8567 39.3011C87.9419 39.4527 88.0603 39.5592 88.2118 39.6207C88.3681 39.6823 88.548 39.7131 88.7516 39.7131C88.8936 39.7131 89.0357 39.7012 89.1777 39.6776C89.3198 39.6491 89.4287 39.6278 89.5044 39.6136L89.9803 41.8651C89.8288 41.9124 89.6157 41.9669 89.3411 42.0284C89.0665 42.0947 88.7327 42.1349 88.3397 42.1491C87.6105 42.1776 86.9713 42.0805 86.4221 41.858C85.8775 41.6354 85.4538 41.2898 85.1507 40.821C84.8477 40.3523 84.6986 39.7604 84.7033 39.0455V28.4773ZM96.5641 42.2131C95.4609 42.2131 94.5068 41.9787 93.7019 41.5099C92.9017 41.0365 92.2838 40.3783 91.8482 39.5355C91.4126 38.688 91.1948 37.7055 91.1948 36.5881C91.1948 35.4612 91.4126 34.4763 91.8482 33.6335C92.2838 32.786 92.9017 32.1278 93.7019 31.6591C94.5068 31.1856 95.4609 30.9489 96.5641 30.9489C97.6673 30.9489 98.619 31.1856 99.4192 31.6591C100.224 32.1278 100.844 32.786 101.28 33.6335C101.716 34.4763 101.933 35.4612 101.933 36.5881C101.933 37.7055 101.716 38.688 101.28 39.5355C100.844 40.3783 100.224 41.0365 99.4192 41.5099C98.619 41.9787 97.6673 42.2131 96.5641 42.2131ZM96.5783 39.8693C97.0802 39.8693 97.4992 39.7273 97.8354 39.4432C98.1716 39.1544 98.4249 38.7614 98.5953 38.2642C98.7705 37.767 98.8581 37.2012 98.8581 36.5668C98.8581 35.9323 98.7705 35.3665 98.5953 34.8693C98.4249 34.3722 98.1716 33.9792 97.8354 33.6903C97.4992 33.4015 97.0802 33.2571 96.5783 33.2571C96.0717 33.2571 95.6455 33.4015 95.2999 33.6903C94.959 33.9792 94.7009 34.3722 94.5257 34.8693C94.3553 35.3665 94.2701 35.9323 94.2701 36.5668C94.2701 37.2012 94.3553 37.767 94.5257 38.2642C94.7009 38.7614 94.959 39.1544 95.2999 39.4432C95.6455 39.7273 96.0717 39.8693 96.5783 39.8693ZM103.901 42V31.0909H106.834V32.9943H106.948C107.146 32.3172 107.48 31.8059 107.949 31.4602C108.418 31.1098 108.958 30.9347 109.568 30.9347C109.72 30.9347 109.883 30.9441 110.058 30.9631C110.234 30.982 110.387 31.008 110.52 31.0412V33.7259C110.378 33.6832 110.182 33.6454 109.931 33.6122C109.68 33.5791 109.45 33.5625 109.242 33.5625C108.797 33.5625 108.399 33.6596 108.048 33.8537C107.703 34.0431 107.428 34.3082 107.225 34.6491C107.026 34.9901 106.926 35.383 106.926 35.8281V42H103.901ZM117.297 42H112.141V27.4545H117.34C118.803 27.4545 120.063 27.7457 121.118 28.3281C122.174 28.9058 122.986 29.7367 123.555 30.821C124.127 31.9053 124.414 33.2027 124.414 34.7131C124.414 36.2282 124.127 37.5303 123.555 38.6193C122.986 39.7083 122.17 40.544 121.104 41.1264C120.044 41.7088 118.775 42 117.297 42ZM115.216 39.3651H117.17C118.079 39.3651 118.843 39.2041 119.464 38.8821C120.089 38.5554 120.557 38.0511 120.87 37.3693C121.187 36.6828 121.346 35.7973 121.346 34.7131C121.346 33.6383 121.187 32.7599 120.87 32.0781C120.557 31.3963 120.091 30.8944 119.471 30.5724C118.85 30.2505 118.086 30.0895 117.177 30.0895H115.216V39.3651ZM126.692 42V27.4545H132.516C133.586 27.4545 134.478 27.6132 135.193 27.9304C135.908 28.2476 136.446 28.688 136.806 29.2514C137.165 29.8101 137.345 30.4541 137.345 31.1832C137.345 31.7514 137.232 32.2509 137.004 32.6818C136.777 33.108 136.465 33.4583 136.067 33.733C135.674 34.0028 135.224 34.1946 134.718 34.3082V34.4503C135.271 34.474 135.79 34.6302 136.273 34.919C136.761 35.2079 137.156 35.6127 137.459 36.1335C137.762 36.6496 137.914 37.2652 137.914 37.9801C137.914 38.7519 137.722 39.4408 137.338 40.0469C136.959 40.6482 136.398 41.1241 135.655 41.4744C134.912 41.8248 133.995 42 132.906 42H126.692ZM129.767 39.4858H132.274C133.131 39.4858 133.756 39.3224 134.149 38.9957C134.542 38.6643 134.739 38.224 134.739 37.6747C134.739 37.2723 134.642 36.9171 134.448 36.6094C134.253 36.3016 133.977 36.0601 133.617 35.8849C133.262 35.7098 132.838 35.6222 132.345 35.6222H129.767V39.4858ZM129.767 33.5412H132.047C132.468 33.5412 132.843 33.4678 133.169 33.321C133.501 33.1695 133.761 32.9564 133.95 32.6818C134.145 32.4072 134.242 32.0781 134.242 31.6946C134.242 31.169 134.055 30.7453 133.681 30.4233C133.311 30.1013 132.786 29.9403 132.104 29.9403H129.767V33.5412Z" fill="white"/>
</svg>
