<svg width="184" height="71" viewBox="0 0 184 71" fill="none" xmlns="http://www.w3.org/2000/svg">
<rect width="184" height="71" rx="35.5" fill="#C87F50"/>
<path d="M45.4126 27.4545H49.2053L53.2109 37.2273H53.3814L57.3871 27.4545H61.1797V42H58.1967V32.5327H58.076L54.3118 41.929H52.2805L48.5163 32.4972H48.3956V42H45.4126V27.4545ZM68.5856 42.2131C67.4824 42.2131 66.5283 41.9787 65.7234 41.5099C64.9232 41.0365 64.3053 40.3783 63.8697 39.5355C63.4341 38.688 63.2163 37.7055 63.2163 36.5881C63.2163 35.4612 63.4341 34.4763 63.8697 33.6335C64.3053 32.786 64.9232 32.1278 65.7234 31.6591C66.5283 31.1856 67.4824 30.9489 68.5856 30.9489C69.6888 30.9489 70.6405 31.1856 71.4407 31.6591C72.2456 32.1278 72.8659 32.786 73.3015 33.6335C73.7371 34.4763 73.9549 35.4612 73.9549 36.5881C73.9549 37.7055 73.7371 38.688 73.3015 39.5355C72.8659 40.3783 72.2456 41.0365 71.4407 41.5099C70.6405 41.9787 69.6888 42.2131 68.5856 42.2131ZM68.5998 39.8693C69.1017 39.8693 69.5207 39.7273 69.8569 39.4432C70.1931 39.1544 70.4464 38.7614 70.6168 38.2642C70.792 37.767 70.8796 37.2012 70.8796 36.5668C70.8796 35.9323 70.792 35.3665 70.6168 34.8693C70.4464 34.3722 70.1931 33.9792 69.8569 33.6903C69.5207 33.4015 69.1017 33.2571 68.5998 33.2571C68.0932 33.2571 67.667 33.4015 67.3214 33.6903C66.9805 33.9792 66.7224 34.3722 66.5472 34.8693C66.3768 35.3665 66.2915 35.9323 66.2915 36.5668C66.2915 37.2012 66.3768 37.767 66.5472 38.2642C66.7224 38.7614 66.9805 39.1544 67.3214 39.4432C67.667 39.7273 68.0932 39.8693 68.5998 39.8693ZM78.9478 35.6932V42H75.9222V31.0909H78.8058V33.0156H78.9336C79.1751 32.3812 79.5799 31.8793 80.1481 31.5099C80.7163 31.1359 81.4052 30.9489 82.2148 30.9489C82.9724 30.9489 83.6329 31.1146 84.1964 31.446C84.7598 31.7775 85.1978 32.2509 85.5103 32.8665C85.8228 33.4773 85.979 34.2064 85.979 35.054V42H82.9535V35.5938C82.9582 34.9261 82.7878 34.4053 82.4421 34.0312C82.0965 33.6525 81.6206 33.4631 81.0146 33.4631C80.6074 33.4631 80.2475 33.5507 79.935 33.7259C79.6272 33.901 79.3858 34.1567 79.2106 34.4929C79.0401 34.8243 78.9525 35.2244 78.9478 35.6932ZM93.2784 46.3182C92.2983 46.3182 91.4579 46.1832 90.7571 45.9134C90.0611 45.6482 89.5071 45.286 89.0952 44.8267C88.6832 44.3674 88.4157 43.8513 88.2926 43.2784L91.0909 42.902C91.1761 43.1198 91.3111 43.3234 91.4957 43.5128C91.6804 43.7022 91.9242 43.8537 92.2273 43.9673C92.535 44.0857 92.9091 44.1449 93.3494 44.1449C94.0076 44.1449 94.5497 43.9839 94.9759 43.6619C95.4067 43.3447 95.6222 42.812 95.6222 42.0639V40.0682H95.4943C95.3617 40.3712 95.1629 40.6577 94.8977 40.9276C94.6326 41.1974 94.2917 41.4176 93.875 41.5881C93.4583 41.7585 92.9612 41.8438 92.3835 41.8438C91.5644 41.8438 90.8187 41.6544 90.1463 41.2756C89.4787 40.892 88.946 40.3073 88.5483 39.5213C88.1553 38.7306 87.9588 37.7315 87.9588 36.5241C87.9588 35.2884 88.16 34.2562 88.5625 33.4276C88.965 32.599 89.5 31.9787 90.1676 31.5668C90.84 31.1548 91.5762 30.9489 92.3764 30.9489C92.9872 30.9489 93.4986 31.053 93.9105 31.2614C94.3224 31.465 94.6539 31.7206 94.9048 32.0284C95.1605 32.3314 95.357 32.6297 95.4943 32.9233H95.608V31.0909H98.6122V42.1065C98.6122 43.0346 98.3849 43.8111 97.9304 44.4361C97.4759 45.0611 96.8461 45.5298 96.0412 45.8423C95.241 46.1596 94.3201 46.3182 93.2784 46.3182ZM93.3423 39.571C93.83 39.571 94.242 39.4503 94.5781 39.2088C94.919 38.9626 95.1795 38.6122 95.3594 38.1577C95.544 37.6984 95.6364 37.1491 95.6364 36.5099C95.6364 35.8707 95.5464 35.3168 95.3665 34.848C95.1866 34.3745 94.9261 34.0076 94.5852 33.7472C94.2443 33.4867 93.83 33.3565 93.3423 33.3565C92.8452 33.3565 92.4261 33.4915 92.0852 33.7614C91.7443 34.0265 91.4863 34.3958 91.3111 34.8693C91.1359 35.3428 91.0483 35.8897 91.0483 36.5099C91.0483 37.1397 91.1359 37.6842 91.3111 38.1435C91.491 38.598 91.7491 38.9508 92.0852 39.2017C92.4261 39.4479 92.8452 39.571 93.3423 39.571ZM105.949 42.2131C104.846 42.2131 103.892 41.9787 103.087 41.5099C102.286 41.0365 101.669 40.3783 101.233 39.5355C100.797 38.688 100.58 37.7055 100.58 36.5881C100.58 35.4612 100.797 34.4763 101.233 33.6335C101.669 32.786 102.286 32.1278 103.087 31.6591C103.892 31.1856 104.846 30.9489 105.949 30.9489C107.052 30.9489 108.004 31.1856 108.804 31.6591C109.609 32.1278 110.229 32.786 110.665 33.6335C111.1 34.4763 111.318 35.4612 111.318 36.5881C111.318 37.7055 111.1 38.688 110.665 39.5355C110.229 40.3783 109.609 41.0365 108.804 41.5099C108.004 41.9787 107.052 42.2131 105.949 42.2131ZM105.963 39.8693C106.465 39.8693 106.884 39.7273 107.22 39.4432C107.556 39.1544 107.81 38.7614 107.98 38.2642C108.155 37.767 108.243 37.2012 108.243 36.5668C108.243 35.9323 108.155 35.3665 107.98 34.8693C107.81 34.3722 107.556 33.9792 107.22 33.6903C106.884 33.4015 106.465 33.2571 105.963 33.2571C105.456 33.2571 105.03 33.4015 104.685 33.6903C104.344 33.9792 104.086 34.3722 103.911 34.8693C103.74 35.3665 103.655 35.9323 103.655 36.5668C103.655 37.2012 103.74 37.767 103.911 38.2642C104.086 38.7614 104.344 39.1544 104.685 39.4432C105.03 39.7273 105.456 39.8693 105.963 39.8693ZM118.499 42H113.342V27.4545H118.541C120.004 27.4545 121.264 27.7457 122.32 28.3281C123.375 28.9058 124.188 29.7367 124.756 30.821C125.329 31.9053 125.615 33.2027 125.615 34.7131C125.615 36.2282 125.329 37.5303 124.756 38.6193C124.188 39.7083 123.371 40.544 122.305 41.1264C121.245 41.7088 119.976 42 118.499 42ZM116.418 39.3651H118.371C119.28 39.3651 120.045 39.2041 120.665 38.8821C121.29 38.5554 121.759 38.0511 122.071 37.3693C122.388 36.6828 122.547 35.7973 122.547 34.7131C122.547 33.6383 122.388 32.7599 122.071 32.0781C121.759 31.3963 121.292 30.8944 120.672 30.5724C120.052 30.2505 119.287 30.0895 118.378 30.0895H116.418V39.3651ZM127.893 42V27.4545H133.717C134.787 27.4545 135.68 27.6132 136.395 27.9304C137.109 28.2476 137.647 28.688 138.007 29.2514C138.367 29.8101 138.547 30.4541 138.547 31.1832C138.547 31.7514 138.433 32.2509 138.206 32.6818C137.978 33.108 137.666 33.4583 137.268 33.733C136.875 34.0028 136.425 34.1946 135.919 34.3082V34.4503C136.473 34.474 136.991 34.6302 137.474 34.919C137.962 35.2079 138.357 35.6127 138.66 36.1335C138.963 36.6496 139.115 37.2652 139.115 37.9801C139.115 38.7519 138.923 39.4408 138.539 40.0469C138.161 40.6482 137.6 41.1241 136.856 41.4744C136.113 41.8248 135.197 42 134.108 42H127.893ZM130.968 39.4858H133.475C134.333 39.4858 134.958 39.3224 135.35 38.9957C135.743 38.6643 135.94 38.224 135.94 37.6747C135.94 37.2723 135.843 36.9171 135.649 36.6094C135.455 36.3016 135.178 36.0601 134.818 35.8849C134.463 35.7098 134.039 35.6222 133.547 35.6222H130.968V39.4858ZM130.968 33.5412H133.248C133.67 33.5412 134.044 33.4678 134.37 33.321C134.702 33.1695 134.962 32.9564 135.152 32.6818C135.346 32.4072 135.443 32.0781 135.443 31.6946C135.443 31.169 135.256 30.7453 134.882 30.4233C134.512 30.1013 133.987 29.9403 133.305 29.9403H130.968V33.5412Z" fill="white"/>
</svg>
