<svg width="184" height="71" viewBox="0 0 184 71" fill="none" xmlns="http://www.w3.org/2000/svg">
<rect width="184" height="71" rx="35.5" fill="#C87F50"/>
<path d="M50.4244 31.6378C50.3675 31.0649 50.1237 30.6198 49.6928 30.3026C49.262 29.9853 48.6772 29.8267 47.9386 29.8267C47.4367 29.8267 47.0129 29.8977 46.6673 30.0398C46.3216 30.1771 46.0565 30.3688 45.8718 30.6151C45.6919 30.8613 45.6019 31.1406 45.6019 31.4531C45.5924 31.7135 45.6469 31.9408 45.7653 32.1349C45.8884 32.3291 46.0565 32.4972 46.2695 32.6392C46.4826 32.7765 46.7288 32.8973 47.0082 33.0014C47.2875 33.1009 47.5858 33.1861 47.9031 33.2571L49.2099 33.5696C49.8443 33.7116 50.4267 33.901 50.957 34.1378C51.4873 34.3745 51.9466 34.6657 52.3349 35.0114C52.7231 35.357 53.0238 35.7642 53.2369 36.233C53.4547 36.7017 53.5659 37.2391 53.5707 37.8452C53.5659 38.7353 53.3387 39.5071 52.8888 40.1605C52.4438 40.8092 51.7998 41.3134 50.957 41.6733C50.119 42.0284 49.1081 42.206 47.9244 42.206C46.7501 42.206 45.7274 42.026 44.8562 41.6662C43.9897 41.3063 43.3126 40.7737 42.8249 40.0682C42.342 39.358 42.0887 38.4796 42.065 37.4332H45.0408C45.074 37.9209 45.2137 38.3281 45.4599 38.6548C45.7108 38.9768 46.0446 39.2206 46.4613 39.3864C46.8827 39.5473 47.3585 39.6278 47.8888 39.6278C48.4097 39.6278 48.8619 39.5521 49.2454 39.4006C49.6336 39.2491 49.9343 39.0384 50.1474 38.7685C50.3604 38.4986 50.467 38.1884 50.467 37.8381C50.467 37.5114 50.3699 37.2367 50.1758 37.0142C49.9864 36.7917 49.707 36.6023 49.3377 36.446C48.9731 36.2898 48.5257 36.1477 47.9954 36.0199L46.4116 35.6222C45.1853 35.3239 44.217 34.8575 43.5067 34.223C42.7965 33.5885 42.4438 32.7339 42.4485 31.6591C42.4438 30.7784 42.6781 30.009 43.1516 29.3509C43.6299 28.6927 44.2856 28.179 45.119 27.8097C45.9523 27.4403 46.8993 27.2557 47.9599 27.2557C49.0394 27.2557 49.9817 27.4403 50.7866 27.8097C51.5962 28.179 52.226 28.6927 52.6758 29.3509C53.1256 30.009 53.3576 30.7713 53.3718 31.6378H50.4244ZM58.608 35.6932V42H55.5824V31.0909H58.4659V33.0156H58.5938C58.8352 32.3812 59.2401 31.8793 59.8082 31.5099C60.3764 31.1359 61.0653 30.9489 61.875 30.9489C62.6326 30.9489 63.2931 31.1146 63.8565 31.446C64.42 31.7775 64.858 32.2509 65.1705 32.8665C65.483 33.4773 65.6392 34.2064 65.6392 35.054V42H62.6136V35.5938C62.6184 34.9261 62.4479 34.4053 62.1023 34.0312C61.7566 33.6525 61.2808 33.4631 60.6747 33.4631C60.2675 33.4631 59.9077 33.5507 59.5952 33.7259C59.2874 33.901 59.0459 34.1567 58.8707 34.4929C58.7003 34.8243 58.6127 35.2244 58.608 35.6932ZM72.9528 42.2131C71.8496 42.2131 70.8955 41.9787 70.0906 41.5099C69.2904 41.0365 68.6725 40.3783 68.2369 39.5355C67.8013 38.688 67.5835 37.7055 67.5835 36.5881C67.5835 35.4612 67.8013 34.4763 68.2369 33.6335C68.6725 32.786 69.2904 32.1278 70.0906 31.6591C70.8955 31.1856 71.8496 30.9489 72.9528 30.9489C74.056 30.9489 75.0077 31.1856 75.8079 31.6591C76.6128 32.1278 77.2331 32.786 77.6687 33.6335C78.1043 34.4763 78.3221 35.4612 78.3221 36.5881C78.3221 37.7055 78.1043 38.688 77.6687 39.5355C77.2331 40.3783 76.6128 41.0365 75.8079 41.5099C75.0077 41.9787 74.056 42.2131 72.9528 42.2131ZM72.967 39.8693C73.4689 39.8693 73.8879 39.7273 74.2241 39.4432C74.5603 39.1544 74.8136 38.7614 74.984 38.2642C75.1592 37.767 75.2468 37.2012 75.2468 36.5668C75.2468 35.9323 75.1592 35.3665 74.984 34.8693C74.8136 34.3722 74.5603 33.9792 74.2241 33.6903C73.8879 33.4015 73.4689 33.2571 72.967 33.2571C72.4603 33.2571 72.0342 33.4015 71.6886 33.6903C71.3477 33.9792 71.0896 34.3722 70.9144 34.8693C70.744 35.3665 70.6587 35.9323 70.6587 36.5668C70.6587 37.2012 70.744 37.767 70.9144 38.2642C71.0896 38.7614 71.3477 39.1544 71.6886 39.4432C72.0342 39.7273 72.4603 39.8693 72.967 39.8693ZM82.168 42L79.1992 31.0909H82.2603L83.9506 38.4205H84.0501L85.8114 31.0909H88.8157L90.6055 38.3778H90.6978L92.3597 31.0909H95.4137L92.4521 42H89.2489L87.3739 35.1392H87.239L85.364 42H82.168ZM102.894 31.0909V33.3636H96.1612V31.0909H102.894ZM97.7024 42V30.3026C97.7024 29.5118 97.8563 28.8561 98.1641 28.3352C98.4766 27.8144 98.9027 27.4238 99.4425 27.1634C99.9822 26.9029 100.595 26.7727 101.282 26.7727C101.746 26.7727 102.17 26.8082 102.553 26.8793C102.942 26.9503 103.23 27.0142 103.42 27.071L102.88 29.3438C102.762 29.3059 102.615 29.2704 102.44 29.2372C102.269 29.2041 102.094 29.1875 101.914 29.1875C101.469 29.1875 101.159 29.2917 100.984 29.5C100.808 29.7036 100.721 29.9901 100.721 30.3594V42H97.7024ZM107.768 27.4545V42H104.743V27.4545H107.768ZM113.303 42.206C112.607 42.206 111.986 42.0852 111.442 41.8438C110.897 41.5975 110.466 41.2353 110.149 40.7571C109.837 40.2741 109.68 39.6728 109.68 38.9531C109.68 38.3471 109.792 37.8381 110.014 37.4261C110.237 37.0142 110.54 36.6828 110.923 36.4318C111.307 36.1809 111.742 35.9915 112.23 35.8636C112.723 35.7358 113.239 35.6458 113.778 35.5938C114.413 35.5275 114.924 35.4659 115.312 35.4091C115.701 35.3475 115.982 35.2576 116.158 35.1392C116.333 35.0208 116.42 34.8456 116.42 34.6136V34.571C116.42 34.1212 116.278 33.7732 115.994 33.527C115.715 33.2808 115.317 33.1577 114.801 33.1577C114.257 33.1577 113.823 33.2784 113.501 33.5199C113.179 33.7566 112.966 34.0549 112.862 34.4148L110.064 34.1875C110.206 33.5246 110.485 32.9517 110.902 32.4688C111.319 31.9811 111.856 31.607 112.514 31.3466C113.177 31.0814 113.944 30.9489 114.815 30.9489C115.421 30.9489 116.001 31.0199 116.555 31.1619C117.114 31.304 117.609 31.5241 118.04 31.8224C118.475 32.1207 118.819 32.5043 119.07 32.973C119.321 33.437 119.446 33.9934 119.446 34.642V42H116.577V40.4872H116.491C116.316 40.8281 116.082 41.1288 115.788 41.3892C115.495 41.6449 115.142 41.8461 114.73 41.9929C114.318 42.1349 113.842 42.206 113.303 42.206ZM114.169 40.1179C114.614 40.1179 115.007 40.0303 115.348 39.8551C115.689 39.6752 115.956 39.4337 116.151 39.1307C116.345 38.8277 116.442 38.4844 116.442 38.1009V36.9432C116.347 37.0047 116.217 37.0616 116.051 37.1136C115.89 37.161 115.708 37.206 115.504 37.2486C115.301 37.2865 115.097 37.322 114.893 37.3551C114.69 37.3835 114.505 37.4096 114.339 37.4332C113.984 37.4853 113.674 37.5682 113.409 37.6818C113.144 37.7955 112.938 37.9493 112.791 38.1435C112.644 38.3329 112.571 38.5696 112.571 38.8537C112.571 39.2656 112.72 39.5805 113.018 39.7983C113.321 40.0114 113.705 40.1179 114.169 40.1179ZM124.535 38.8608L124.542 35.2315H124.982L128.477 31.0909H131.95L127.255 36.5739H126.538L124.535 38.8608ZM121.793 42V27.4545H124.819V42H121.793ZM128.612 42L125.401 37.2486L127.418 35.1108L132.156 42H128.612ZM137.956 42.2131C136.834 42.2131 135.868 41.9858 135.059 41.5312C134.254 41.072 133.633 40.4233 133.198 39.5852C132.762 38.7424 132.544 37.7457 132.544 36.5952C132.544 35.473 132.762 34.4882 133.198 33.6406C133.633 32.7931 134.247 32.1326 135.037 31.6591C135.833 31.1856 136.766 30.9489 137.836 30.9489C138.555 30.9489 139.225 31.0649 139.846 31.2969C140.471 31.5241 141.015 31.8674 141.479 32.3267C141.948 32.786 142.312 33.3636 142.573 34.0597C142.833 34.7509 142.963 35.5606 142.963 36.4886V37.3196H133.752V35.4446H140.115C140.115 35.009 140.021 34.6231 139.831 34.2869C139.642 33.9508 139.379 33.688 139.043 33.4986C138.712 33.3045 138.326 33.2074 137.885 33.2074C137.426 33.2074 137.019 33.3139 136.664 33.527C136.313 33.7353 136.039 34.017 135.84 34.3722C135.641 34.7225 135.539 35.1132 135.534 35.544V37.3267C135.534 37.8665 135.634 38.3329 135.833 38.7259C136.036 39.1188 136.323 39.4219 136.692 39.6349C137.061 39.848 137.499 39.9545 138.006 39.9545C138.342 39.9545 138.65 39.9072 138.929 39.8125C139.209 39.7178 139.448 39.5758 139.647 39.3864C139.846 39.197 139.997 38.965 140.101 38.6903L142.9 38.875C142.757 39.5473 142.466 40.1345 142.026 40.6364C141.59 41.1335 141.027 41.5218 140.336 41.8011C139.649 42.0758 138.856 42.2131 137.956 42.2131Z" fill="white"/>
</svg>
