<svg width="134" height="71" viewBox="0 0 134 71" fill="none" xmlns="http://www.w3.org/2000/svg">
<rect width="134" height="71" rx="35.5" fill="#2E4A62"/>
<path d="M56.424 27.4545H59.4638V37.5966C59.4638 38.5341 59.2531 39.3485 58.8317 40.0398C58.415 40.7311 57.835 41.2637 57.0916 41.6378C56.3482 42.0118 55.4841 42.1989 54.4993 42.1989C53.6233 42.1989 52.8279 42.045 52.1129 41.7372C51.4027 41.4247 50.8393 40.9512 50.4226 40.3168C50.0059 39.6776 49.8 38.875 49.8047 37.9091H52.8658C52.8752 38.2926 52.9534 38.6217 53.1001 38.8963C53.2517 39.1662 53.4576 39.3745 53.718 39.5213C53.9832 39.6634 54.2957 39.7344 54.6555 39.7344C55.0343 39.7344 55.3539 39.6539 55.6143 39.4929C55.8795 39.3272 56.0807 39.0857 56.218 38.7685C56.3554 38.4512 56.424 38.0606 56.424 37.5966V27.4545ZM61.9496 42V31.0909H64.9751V42H61.9496ZM63.4695 29.6847C63.0196 29.6847 62.6338 29.5355 62.3118 29.2372C61.9946 28.9342 61.8359 28.572 61.8359 28.1506C61.8359 27.7339 61.9946 27.3764 62.3118 27.0781C62.6338 26.7751 63.0196 26.6236 63.4695 26.6236C63.9193 26.6236 64.3028 26.7751 64.62 27.0781C64.942 27.3764 65.103 27.7339 65.103 28.1506C65.103 28.572 64.942 28.9342 64.62 29.2372C64.3028 29.5355 63.9193 29.6847 63.4695 29.6847ZM67.3988 42V31.0909H70.332V32.9943H70.4457C70.6445 32.3172 70.9783 31.8059 71.4471 31.4602C71.9158 31.1098 72.4556 30.9347 73.0664 30.9347C73.2179 30.9347 73.3813 30.9441 73.5565 30.9631C73.7317 30.982 73.8855 31.008 74.0181 31.0412V33.7259C73.8761 33.6832 73.6796 33.6454 73.4286 33.6122C73.1777 33.5791 72.948 33.5625 72.7397 33.5625C72.2946 33.5625 71.8969 33.6596 71.5465 33.8537C71.2009 34.0431 70.9263 34.3082 70.7227 34.6491C70.5238 34.9901 70.4244 35.383 70.4244 35.8281V42H67.3988ZM78.3807 42.206C77.6847 42.206 77.0644 42.0852 76.5199 41.8438C75.9754 41.5975 75.5445 41.2353 75.2273 40.7571C74.9148 40.2741 74.7585 39.6728 74.7585 38.9531C74.7585 38.3471 74.8698 37.8381 75.0923 37.4261C75.3149 37.0142 75.6179 36.6828 76.0014 36.4318C76.3849 36.1809 76.8205 35.9915 77.3082 35.8636C77.8007 35.7358 78.3168 35.6458 78.8565 35.5938C79.491 35.5275 80.0024 35.4659 80.3906 35.4091C80.7789 35.3475 81.0606 35.2576 81.2358 35.1392C81.411 35.0208 81.4986 34.8456 81.4986 34.6136V34.571C81.4986 34.1212 81.3565 33.7732 81.0724 33.527C80.7931 33.2808 80.3954 33.1577 79.8793 33.1577C79.3348 33.1577 78.9015 33.2784 78.5795 33.5199C78.2576 33.7566 78.0445 34.0549 77.9403 34.4148L75.142 34.1875C75.2841 33.5246 75.5634 32.9517 75.9801 32.4688C76.3968 31.9811 76.9342 31.607 77.5923 31.3466C78.2552 31.0814 79.0223 30.9489 79.8935 30.9489C80.4995 30.9489 81.0795 31.0199 81.6335 31.1619C82.1922 31.304 82.687 31.5241 83.1179 31.8224C83.5535 32.1207 83.8968 32.5043 84.1477 32.973C84.3987 33.437 84.5241 33.9934 84.5241 34.642V42H81.6548V40.4872H81.5696C81.3944 40.8281 81.16 41.1288 80.8665 41.3892C80.5729 41.6449 80.2202 41.8461 79.8082 41.9929C79.3963 42.1349 78.9205 42.206 78.3807 42.206ZM79.2472 40.1179C79.6922 40.1179 80.0852 40.0303 80.4261 39.8551C80.767 39.6752 81.0346 39.4337 81.2287 39.1307C81.4228 38.8277 81.5199 38.4844 81.5199 38.1009V36.9432C81.4252 37.0047 81.295 37.0616 81.1293 37.1136C80.9683 37.161 80.786 37.206 80.5824 37.2486C80.3788 37.2865 80.1752 37.322 79.9716 37.3551C79.768 37.3835 79.5833 37.4096 79.4176 37.4332C79.0625 37.4853 78.7524 37.5682 78.4872 37.6818C78.2221 37.7955 78.0161 37.9493 77.8693 38.1435C77.7225 38.3329 77.6491 38.5696 77.6491 38.8537C77.6491 39.2656 77.7983 39.5805 78.0966 39.7983C78.3996 40.0114 78.7831 40.1179 79.2472 40.1179Z" fill="white"/>
</svg>
