<svg width="146" height="71" viewBox="0 0 146 71" fill="none" xmlns="http://www.w3.org/2000/svg">
<rect width="146" height="71" rx="35.5" fill="#E5E0D5"/>
<path d="M35.6529 42V27.4545H38.7282V39.4645H44.964V42H35.6529ZM50.0545 42.206C49.3585 42.206 48.7382 42.0852 48.1937 41.8438C47.6492 41.5975 47.2183 41.2353 46.9011 40.7571C46.5886 40.2741 46.4324 39.6728 46.4324 38.9531C46.4324 38.3471 46.5436 37.8381 46.7662 37.4261C46.9887 37.0142 47.2917 36.6828 47.6752 36.4318C48.0588 36.1809 48.4944 35.9915 48.9821 35.8636C49.4745 35.7358 49.9906 35.6458 50.5304 35.5938C51.1648 35.5275 51.6762 35.4659 52.0645 35.4091C52.4527 35.3475 52.7344 35.2576 52.9096 35.1392C53.0848 35.0208 53.1724 34.8456 53.1724 34.6136V34.571C53.1724 34.1212 53.0304 33.7732 52.7463 33.527C52.4669 33.2808 52.0692 33.1577 51.5531 33.1577C51.0086 33.1577 50.5753 33.2784 50.2534 33.5199C49.9314 33.7566 49.7183 34.0549 49.6142 34.4148L46.8159 34.1875C46.9579 33.5246 47.2373 32.9517 47.6539 32.4688C48.0706 31.9811 48.608 31.607 49.2662 31.3466C49.929 31.0814 50.6961 30.9489 51.5673 30.9489C52.1734 30.9489 52.7534 31.0199 53.3074 31.1619C53.8661 31.304 54.3609 31.5241 54.7917 31.8224C55.2273 32.1207 55.5706 32.5043 55.8216 32.973C56.0725 33.437 56.198 33.9934 56.198 34.642V42H53.3287V40.4872H53.2434C53.0682 40.8281 52.8339 41.1288 52.5403 41.3892C52.2467 41.6449 51.894 41.8461 51.4821 41.9929C51.0701 42.1349 50.5943 42.206 50.0545 42.206ZM50.921 40.1179C51.3661 40.1179 51.7591 40.0303 52.1 39.8551C52.4409 39.6752 52.7084 39.4337 52.9025 39.1307C53.0967 38.8277 53.1937 38.4844 53.1937 38.1009V36.9432C53.099 37.0047 52.9688 37.0616 52.8031 37.1136C52.6421 37.161 52.4598 37.206 52.2562 37.2486C52.0526 37.2865 51.849 37.322 51.6454 37.3551C51.4418 37.3835 51.2572 37.4096 51.0914 37.4332C50.7363 37.4853 50.4262 37.5682 50.161 37.6818C49.8959 37.7955 49.6899 37.9493 49.5431 38.1435C49.3964 38.3329 49.323 38.5696 49.323 38.8537C49.323 39.2656 49.4721 39.5805 49.7704 39.7983C50.0734 40.0114 50.457 40.1179 50.921 40.1179ZM58.5453 42V31.0909H61.4288V33.0156H61.5566C61.7839 32.3764 62.1627 31.8722 62.693 31.5028C63.2233 31.1335 63.8578 30.9489 64.5964 30.9489C65.3445 30.9489 65.9814 31.1359 66.5069 31.5099C67.0325 31.8793 67.3829 32.3812 67.5581 33.0156H67.6717C67.8942 32.3906 68.2967 31.8911 68.8791 31.517C69.4662 31.1383 70.1599 30.9489 70.9601 30.9489C71.978 30.9489 72.8043 31.2732 73.4387 31.9219C74.0779 32.5658 74.3976 33.4796 74.3976 34.6634V42H71.3791V35.2599C71.3791 34.6539 71.2181 34.1993 70.8961 33.8963C70.5742 33.5933 70.1717 33.4418 69.6887 33.4418C69.1395 33.4418 68.711 33.617 68.4032 33.9673C68.0955 34.313 67.9416 34.7699 67.9416 35.3381V42H65.0083V35.196C65.0083 34.661 64.8545 34.2348 64.5467 33.9176C64.2437 33.6004 63.8436 33.4418 63.3464 33.4418C63.0102 33.4418 62.7072 33.527 62.4373 33.6974C62.1722 33.8632 61.9615 34.0975 61.8052 34.4006C61.649 34.6989 61.5708 35.0492 61.5708 35.4517V42H58.5453ZM76.8443 42V27.4545H79.8699V32.9233H79.9622C80.0948 32.6297 80.2865 32.3314 80.5375 32.0284C80.7931 31.7206 81.1246 31.465 81.5318 31.2614C81.9437 31.053 82.4551 30.9489 83.0659 30.9489C83.8613 30.9489 84.5952 31.1572 85.2676 31.5739C85.9399 31.9858 86.4773 32.6084 86.8798 33.4418C87.2823 34.2704 87.4835 35.3097 87.4835 36.5597C87.4835 37.7765 87.287 38.804 86.894 39.642C86.5057 40.4754 85.9754 41.1075 85.3031 41.5384C84.6355 41.9645 83.8874 42.1776 83.0588 42.1776C82.4717 42.1776 81.9721 42.0805 81.5602 41.8864C81.153 41.6922 80.8192 41.4484 80.5588 41.1548C80.2984 40.8565 80.0995 40.5559 79.9622 40.2528H79.8272V42H76.8443ZM79.8059 36.5455C79.8059 37.1941 79.8959 37.7599 80.0758 38.2429C80.2557 38.7259 80.5162 39.1023 80.8571 39.3722C81.198 39.6373 81.6123 39.7699 82.1 39.7699C82.5924 39.7699 83.0091 39.6349 83.35 39.3651C83.6909 39.0904 83.9489 38.7116 84.1241 38.2287C84.304 37.741 84.394 37.1799 84.394 36.5455C84.394 35.9157 84.3064 35.3617 84.1312 34.8835C83.956 34.4053 83.698 34.0312 83.3571 33.7614C83.0162 33.4915 82.5971 33.3565 82.1 33.3565C81.6075 33.3565 81.1909 33.4867 80.85 33.7472C80.5138 34.0076 80.2557 34.3769 80.0758 34.8551C79.8959 35.3333 79.8059 35.8968 79.8059 36.5455ZM93.5222 42.1776C92.6936 42.1776 91.9431 41.9645 91.2708 41.5384C90.6032 41.1075 90.0729 40.4754 89.6799 39.642C89.2916 38.804 89.0975 37.7765 89.0975 36.5597C89.0975 35.3097 89.2987 34.2704 89.7012 33.4418C90.1036 32.6084 90.6387 31.9858 91.3063 31.5739C91.9786 31.1572 92.7149 30.9489 93.5151 30.9489C94.1259 30.9489 94.6349 31.053 95.0421 31.2614C95.454 31.465 95.7855 31.7206 96.0364 32.0284C96.2921 32.3314 96.4862 32.6297 96.6188 32.9233H96.7111V27.4545H99.7296V42H96.7466V40.2528H96.6188C96.4767 40.5559 96.2755 40.8565 96.0151 41.1548C95.7594 41.4484 95.4256 41.6922 95.0137 41.8864C94.6065 42.0805 94.1093 42.1776 93.5222 42.1776ZM94.481 39.7699C94.9687 39.7699 95.3806 39.6373 95.7168 39.3722C96.0577 39.1023 96.3181 38.7259 96.498 38.2429C96.6827 37.7599 96.775 37.1941 96.775 36.5455C96.775 35.8968 96.6851 35.3333 96.5051 34.8551C96.3252 34.3769 96.0648 34.0076 95.7239 33.7472C95.383 33.4867 94.9687 33.3565 94.481 33.3565C93.9838 33.3565 93.5648 33.4915 93.2239 33.7614C92.883 34.0312 92.6249 34.4053 92.4498 34.8835C92.2746 35.3617 92.187 35.9157 92.187 36.5455C92.187 37.1799 92.2746 37.741 92.4498 38.2287C92.6297 38.7116 92.8877 39.0904 93.2239 39.3651C93.5648 39.6349 93.9838 39.7699 94.481 39.7699ZM105.328 42.206C104.632 42.206 104.012 42.0852 103.467 41.8438C102.923 41.5975 102.492 41.2353 102.175 40.7571C101.862 40.2741 101.706 39.6728 101.706 38.9531C101.706 38.3471 101.817 37.8381 102.04 37.4261C102.262 37.0142 102.565 36.6828 102.949 36.4318C103.332 36.1809 103.768 35.9915 104.256 35.8636C104.748 35.7358 105.264 35.6458 105.804 35.5938C106.438 35.5275 106.95 35.4659 107.338 35.4091C107.726 35.3475 108.008 35.2576 108.183 35.1392C108.358 35.0208 108.446 34.8456 108.446 34.6136V34.571C108.446 34.1212 108.304 33.7732 108.02 33.527C107.74 33.2808 107.343 33.1577 106.827 33.1577C106.282 33.1577 105.849 33.2784 105.527 33.5199C105.205 33.7566 104.992 34.0549 104.888 34.4148L102.089 34.1875C102.231 33.5246 102.511 32.9517 102.927 32.4688C103.344 31.9811 103.881 31.607 104.54 31.3466C105.202 31.0814 105.97 30.9489 106.841 30.9489C107.447 30.9489 108.027 31.0199 108.581 31.1619C109.14 31.304 109.634 31.5241 110.065 31.8224C110.501 32.1207 110.844 32.5043 111.095 32.973C111.346 33.437 111.471 33.9934 111.471 34.642V42H108.602V40.4872H108.517C108.342 40.8281 108.107 41.1288 107.814 41.3892C107.52 41.6449 107.167 41.8461 106.756 41.9929C106.344 42.1349 105.868 42.206 105.328 42.206ZM106.194 40.1179C106.64 40.1179 107.032 40.0303 107.373 39.8551C107.714 39.6752 107.982 39.4337 108.176 39.1307C108.37 38.8277 108.467 38.4844 108.467 38.1009V36.9432C108.372 37.0047 108.242 37.0616 108.077 37.1136C107.916 37.161 107.733 37.206 107.53 37.2486C107.326 37.2865 107.122 37.322 106.919 37.3551C106.715 37.3835 106.531 37.4096 106.365 37.4332C106.01 37.4853 105.7 37.5682 105.434 37.6818C105.169 37.7955 104.963 37.9493 104.817 38.1435C104.67 38.3329 104.596 38.5696 104.596 38.8537C104.596 39.2656 104.746 39.5805 105.044 39.7983C105.347 40.0114 105.73 40.1179 106.194 40.1179Z" fill="#262525"/>
</svg>
