<svg width="166" height="71" viewBox="0 0 166 71" fill="none" xmlns="http://www.w3.org/2000/svg">
<rect width="166" height="71" rx="35.5" fill="#EDC48A"/>
<path d="M49.2287 27.4545H52.2685V37.5966C52.2685 38.5341 52.0578 39.3485 51.6364 40.0398C51.2197 40.7311 50.6397 41.2637 49.8963 41.6378C49.1529 42.0118 48.2888 42.1989 47.304 42.1989C46.428 42.1989 45.6326 42.045 44.9176 41.7372C44.2074 41.4247 43.6439 40.9512 43.2273 40.3168C42.8106 39.6776 42.6046 38.875 42.6094 37.9091H45.6705C45.6799 38.2926 45.758 38.6217 45.9048 38.8963C46.0563 39.1662 46.2623 39.3745 46.5227 39.5213C46.7879 39.6634 47.1004 39.7344 47.4602 39.7344C47.839 39.7344 48.1586 39.6539 48.419 39.4929C48.6842 39.3272 48.8854 39.0857 49.0227 38.7685C49.16 38.4512 49.2287 38.0606 49.2287 37.5966V27.4545ZM57.8651 42.206C57.169 42.206 56.5488 42.0852 56.0043 41.8438C55.4598 41.5975 55.0289 41.2353 54.7116 40.7571C54.3991 40.2741 54.2429 39.6728 54.2429 38.9531C54.2429 38.3471 54.3542 37.8381 54.5767 37.4261C54.7992 37.0142 55.1023 36.6828 55.4858 36.4318C55.8693 36.1809 56.3049 35.9915 56.7926 35.8636C57.285 35.7358 57.8011 35.6458 58.3409 35.5938C58.9754 35.5275 59.4867 35.4659 59.875 35.4091C60.2633 35.3475 60.545 35.2576 60.7202 35.1392C60.8954 35.0208 60.983 34.8456 60.983 34.6136V34.571C60.983 34.1212 60.8409 33.7732 60.5568 33.527C60.2775 33.2808 59.8797 33.1577 59.3636 33.1577C58.8191 33.1577 58.3859 33.2784 58.0639 33.5199C57.742 33.7566 57.5289 34.0549 57.4247 34.4148L54.6264 34.1875C54.7685 33.5246 55.0478 32.9517 55.4645 32.4688C55.8812 31.9811 56.4186 31.607 57.0767 31.3466C57.7396 31.0814 58.5066 30.9489 59.3778 30.9489C59.9839 30.9489 60.5639 31.0199 61.1179 31.1619C61.6766 31.304 62.1714 31.5241 62.6023 31.8224C63.0379 32.1207 63.3812 32.5043 63.6321 32.973C63.883 33.437 64.0085 33.9934 64.0085 34.642V42H61.1392V40.4872H61.054C60.8788 40.8281 60.6444 41.1288 60.3509 41.3892C60.0573 41.6449 59.7045 41.8461 59.2926 41.9929C58.8807 42.1349 58.4048 42.206 57.8651 42.206ZM58.7315 40.1179C59.1766 40.1179 59.5696 40.0303 59.9105 39.8551C60.2514 39.6752 60.5189 39.4337 60.7131 39.1307C60.9072 38.8277 61.0043 38.4844 61.0043 38.1009V36.9432C60.9096 37.0047 60.7794 37.0616 60.6136 37.1136C60.4527 37.161 60.2704 37.206 60.0668 37.2486C59.8632 37.2865 59.6596 37.322 59.456 37.3551C59.2524 37.3835 59.0677 37.4096 58.902 37.4332C58.5469 37.4853 58.2367 37.5682 57.9716 37.6818C57.7064 37.7955 57.5005 37.9493 57.3537 38.1435C57.2069 38.3329 57.1335 38.5696 57.1335 38.8537C57.1335 39.2656 57.2827 39.5805 57.581 39.7983C57.884 40.0114 58.2675 40.1179 58.7315 40.1179ZM76.1357 31.0909L72.3217 42H68.9126L65.0987 31.0909H68.2947L70.5604 38.8963H70.674L72.9325 31.0909H76.1357ZM80.5018 42.206C79.8058 42.206 79.1855 42.0852 78.641 41.8438C78.0965 41.5975 77.6656 41.2353 77.3484 40.7571C77.0359 40.2741 76.8796 39.6728 76.8796 38.9531C76.8796 38.3471 76.9909 37.8381 77.2134 37.4261C77.436 37.0142 77.739 36.6828 78.1225 36.4318C78.506 36.1809 78.9416 35.9915 79.4293 35.8636C79.9218 35.7358 80.4379 35.6458 80.9776 35.5938C81.6121 35.5275 82.1235 35.4659 82.5117 35.4091C82.9 35.3475 83.1817 35.2576 83.3569 35.1392C83.5321 35.0208 83.6197 34.8456 83.6197 34.6136V34.571C83.6197 34.1212 83.4776 33.7732 83.1935 33.527C82.9142 33.2808 82.5165 33.1577 82.0004 33.1577C81.4558 33.1577 81.0226 33.2784 80.7006 33.5199C80.3787 33.7566 80.1656 34.0549 80.0614 34.4148L77.2631 34.1875C77.4052 33.5246 77.6845 32.9517 78.1012 32.4688C78.5179 31.9811 79.0553 31.607 79.7134 31.3466C80.3763 31.0814 81.1433 30.9489 82.0146 30.9489C82.6206 30.9489 83.2006 31.0199 83.7546 31.1619C84.3133 31.304 84.8081 31.5241 85.239 31.8224C85.6746 32.1207 86.0179 32.5043 86.2688 32.973C86.5198 33.437 86.6452 33.9934 86.6452 34.642V42H83.7759V40.4872H83.6907C83.5155 40.8281 83.2811 41.1288 82.9876 41.3892C82.694 41.6449 82.3413 41.8461 81.9293 41.9929C81.5174 42.1349 81.0415 42.206 80.5018 42.206ZM81.3683 40.1179C81.8133 40.1179 82.2063 40.0303 82.5472 39.8551C82.8881 39.6752 83.1557 39.4337 83.3498 39.1307C83.5439 38.8277 83.641 38.4844 83.641 38.1009V36.9432C83.5463 37.0047 83.4161 37.0616 83.2504 37.1136C83.0894 37.161 82.9071 37.206 82.7035 37.2486C82.4999 37.2865 82.2963 37.322 82.0927 37.3551C81.8891 37.3835 81.7044 37.4096 81.5387 37.4332C81.1836 37.4853 80.8735 37.5682 80.6083 37.6818C80.3432 37.7955 80.1372 37.9493 79.9904 38.1435C79.8436 38.3329 79.7702 38.5696 79.7702 38.8537C79.7702 39.2656 79.9194 39.5805 80.2177 39.7983C80.5207 40.0114 80.9042 40.1179 81.3683 40.1179ZM103.648 42.1989C102.554 42.1989 101.581 42.0213 100.729 41.6662C99.8815 41.3063 99.2163 40.8163 98.7333 40.196C98.2504 39.5758 98.0089 38.8726 98.0089 38.0866C98.0089 37.4806 98.1462 36.9242 98.4208 36.4176C98.7002 35.9062 99.079 35.4825 99.5572 35.1463C100.035 34.8054 100.57 34.5876 101.162 34.4929V34.3935C100.386 34.2372 99.756 33.8608 99.2731 33.2642C98.7901 32.6629 98.5487 31.9645 98.5487 31.169C98.5487 30.4162 98.7688 29.7462 99.2092 29.1591C99.6495 28.5672 100.253 28.1032 101.02 27.767C101.792 27.4261 102.668 27.2557 103.648 27.2557C104.628 27.2557 105.502 27.4261 106.269 27.767C107.041 28.108 107.647 28.5743 108.087 29.1662C108.527 29.7533 108.75 30.4209 108.755 31.169C108.75 31.9692 108.504 32.6676 108.016 33.2642C107.528 33.8608 106.903 34.2372 106.141 34.3935V34.4929C106.723 34.5876 107.251 34.8054 107.725 35.1463C108.203 35.4825 108.582 35.9062 108.861 36.4176C109.145 36.9242 109.29 37.4806 109.294 38.0866C109.29 38.8726 109.046 39.5758 108.563 40.196C108.08 40.8163 107.412 41.3063 106.56 41.6662C105.712 42.0213 104.742 42.1989 103.648 42.1989ZM103.648 39.9403C104.136 39.9403 104.562 39.8527 104.926 39.6776C105.291 39.4976 105.575 39.2514 105.779 38.9389C105.987 38.6217 106.091 38.2571 106.091 37.8452C106.091 37.4238 105.985 37.0521 105.772 36.7301C105.559 36.4034 105.27 36.1477 104.905 35.9631C104.541 35.7737 104.122 35.679 103.648 35.679C103.179 35.679 102.76 35.7737 102.391 35.9631C102.022 36.1477 101.73 36.4034 101.517 36.7301C101.309 37.0521 101.205 37.4238 101.205 37.8452C101.205 38.2571 101.307 38.6217 101.51 38.9389C101.714 39.2514 102 39.4976 102.37 39.6776C102.739 39.8527 103.165 39.9403 103.648 39.9403ZM103.648 33.4418C104.055 33.4418 104.417 33.3589 104.735 33.1932C105.052 33.0275 105.301 32.7978 105.48 32.5043C105.66 32.2107 105.75 31.8722 105.75 31.4886C105.75 31.1098 105.66 30.7784 105.48 30.4943C105.301 30.2055 105.054 29.9806 104.742 29.8196C104.429 29.6539 104.065 29.571 103.648 29.571C103.236 29.571 102.872 29.6539 102.554 29.8196C102.237 29.9806 101.989 30.2055 101.809 30.4943C101.633 30.7784 101.546 31.1098 101.546 31.4886C101.546 31.8722 101.636 32.2107 101.816 32.5043C101.996 32.7978 102.244 33.0275 102.561 33.1932C102.879 33.3589 103.241 33.4418 103.648 33.4418ZM115.791 39.7841V29.7273H118.334V39.7841H115.791ZM112.034 36.027V33.4844H122.091V36.027H112.034Z" fill="black"/>
</svg>
