<svg width="188" height="71" viewBox="0 0 188 71" fill="none" xmlns="http://www.w3.org/2000/svg">
<rect width="188" height="71" rx="35.5" fill="#343434"/>
<path d="M49.1412 42V27.4545H52.2164V33.456H58.4593V27.4545H61.5275V42H58.4593V35.9915H52.2164V42H49.1412ZM64.0062 42V31.0909H67.0318V42H64.0062ZM65.5261 29.6847C65.0763 29.6847 64.6904 29.5355 64.3684 29.2372C64.0512 28.9342 63.8926 28.572 63.8926 28.1506C63.8926 27.7339 64.0512 27.3764 64.3684 27.0781C64.6904 26.7751 65.0763 26.6236 65.5261 26.6236C65.9759 26.6236 66.3594 26.7751 66.6767 27.0781C66.9986 27.3764 67.1596 27.7339 67.1596 28.1506C67.1596 28.572 66.9986 28.9342 66.6767 29.2372C66.3594 29.5355 65.9759 29.6847 65.5261 29.6847ZM69.5123 42V27.4545H72.5378V32.9233H72.6301C72.7627 32.6297 72.9545 32.3314 73.2054 32.0284C73.4611 31.7206 73.7926 31.465 74.1998 31.2614C74.6117 31.053 75.123 30.9489 75.7338 30.9489C76.5293 30.9489 77.2632 31.1572 77.9355 31.5739C78.6079 31.9858 79.1453 32.6084 79.5478 33.4418C79.9502 34.2704 80.1515 35.3097 80.1515 36.5597C80.1515 37.7765 79.955 38.804 79.562 39.642C79.1737 40.4754 78.6434 41.1075 77.9711 41.5384C77.3034 41.9645 76.5553 42.1776 75.7267 42.1776C75.1396 42.1776 74.6401 42.0805 74.2282 41.8864C73.821 41.6922 73.4872 41.4484 73.2267 41.1548C72.9663 40.8565 72.7675 40.5559 72.6301 40.2528H72.4952V42H69.5123ZM72.4739 36.5455C72.4739 37.1941 72.5639 37.7599 72.7438 38.2429C72.9237 38.7259 73.1841 39.1023 73.525 39.3722C73.8659 39.6373 74.2802 39.7699 74.7679 39.7699C75.2604 39.7699 75.677 39.6349 76.0179 39.3651C76.3588 39.0904 76.6169 38.7116 76.7921 38.2287C76.972 37.741 77.062 37.1799 77.062 36.5455C77.062 35.9157 76.9744 35.3617 76.7992 34.8835C76.624 34.4053 76.3659 34.0312 76.025 33.7614C75.6841 33.4915 75.2651 33.3565 74.7679 33.3565C74.2755 33.3565 73.8588 33.4867 73.5179 33.7472C73.1818 34.0076 72.9237 34.3769 72.7438 34.8551C72.5639 35.3333 72.4739 35.8968 72.4739 36.5455ZM87.1419 42.2131C86.0197 42.2131 85.0538 41.9858 84.2441 41.5312C83.4392 41.072 82.819 40.4233 82.3833 39.5852C81.9477 38.7424 81.7299 37.7457 81.7299 36.5952C81.7299 35.473 81.9477 34.4882 82.3833 33.6406C82.819 32.7931 83.4321 32.1326 84.2228 31.6591C85.0183 31.1856 85.9511 30.9489 87.0211 30.9489C87.7408 30.9489 88.4108 31.0649 89.0311 31.2969C89.6561 31.5241 90.2006 31.8674 90.6646 32.3267C91.1333 32.786 91.4979 33.3636 91.7583 34.0597C92.0188 34.7509 92.149 35.5606 92.149 36.4886V37.3196H82.9373V35.4446H89.301C89.301 35.009 89.2063 34.6231 89.0169 34.2869C88.8275 33.9508 88.5647 33.688 88.2285 33.4986C87.8971 33.3045 87.5112 33.2074 87.0708 33.2074C86.6116 33.2074 86.2044 33.3139 85.8493 33.527C85.4989 33.7353 85.2243 34.017 85.0254 34.3722C84.8265 34.7225 84.7247 35.1132 84.72 35.544V37.3267C84.72 37.8665 84.8194 38.3329 85.0183 38.7259C85.2219 39.1188 85.5083 39.4219 85.8777 39.6349C86.247 39.848 86.685 39.9545 87.1916 39.9545C87.5278 39.9545 87.8355 39.9072 88.1149 39.8125C88.3942 39.7178 88.6333 39.5758 88.8322 39.3864C89.0311 39.197 89.1826 38.965 89.2868 38.6903L92.0851 38.875C91.943 39.5473 91.6518 40.1345 91.2115 40.6364C90.7759 41.1335 90.2124 41.5218 89.5211 41.8011C88.8346 42.0758 88.0415 42.2131 87.1419 42.2131ZM94.1234 42V31.0909H97.0566V32.9943H97.1703C97.3691 32.3172 97.7029 31.8059 98.1717 31.4602C98.6404 31.1098 99.1802 30.9347 99.791 30.9347C99.9425 30.9347 100.106 30.9441 100.281 30.9631C100.456 30.982 100.61 31.008 100.743 31.0412V33.7259C100.601 33.6832 100.404 33.6454 100.153 33.6122C99.9023 33.5791 99.6726 33.5625 99.4643 33.5625C99.0192 33.5625 98.6215 33.6596 98.2711 33.8537C97.9255 34.0431 97.6509 34.3082 97.4473 34.6491C97.2484 34.9901 97.149 35.383 97.149 35.8281V42H94.1234ZM105.333 35.6932V42H102.307V31.0909H105.191V33.0156H105.318C105.56 32.3812 105.965 31.8793 106.533 31.5099C107.101 31.1359 107.79 30.9489 108.6 30.9489C109.357 30.9489 110.018 31.1146 110.581 31.446C111.145 31.7775 111.583 32.2509 111.895 32.8665C112.208 33.4773 112.364 34.2064 112.364 35.054V42H109.338V35.5938C109.343 34.9261 109.173 34.4053 108.827 34.0312C108.481 33.6525 108.005 33.4631 107.399 33.4631C106.992 33.4631 106.632 33.5507 106.32 33.7259C106.012 33.901 105.771 34.1567 105.595 34.4929C105.425 34.8243 105.337 35.2244 105.333 35.6932ZM117.859 42.206C117.163 42.206 116.543 42.0852 115.998 41.8438C115.454 41.5975 115.023 41.2353 114.706 40.7571C114.393 40.2741 114.237 39.6728 114.237 38.9531C114.237 38.3471 114.348 37.8381 114.571 37.4261C114.793 37.0142 115.096 36.6828 115.48 36.4318C115.863 36.1809 116.299 35.9915 116.787 35.8636C117.279 35.7358 117.795 35.6458 118.335 35.5938C118.97 35.5275 119.481 35.4659 119.869 35.4091C120.257 35.3475 120.539 35.2576 120.714 35.1392C120.89 35.0208 120.977 34.8456 120.977 34.6136V34.571C120.977 34.1212 120.835 33.7732 120.551 33.527C120.272 33.2808 119.874 33.1577 119.358 33.1577C118.813 33.1577 118.38 33.2784 118.058 33.5199C117.736 33.7566 117.523 34.0549 117.419 34.4148L114.621 34.1875C114.763 33.5246 115.042 32.9517 115.459 32.4688C115.875 31.9811 116.413 31.607 117.071 31.3466C117.734 31.0814 118.501 30.9489 119.372 30.9489C119.978 30.9489 120.558 31.0199 121.112 31.1619C121.671 31.304 122.166 31.5241 122.596 31.8224C123.032 32.1207 123.375 32.5043 123.626 32.973C123.877 33.437 124.003 33.9934 124.003 34.642V42H121.133V40.4872H121.048C120.873 40.8281 120.639 41.1288 120.345 41.3892C120.051 41.6449 119.699 41.8461 119.287 41.9929C118.875 42.1349 118.399 42.206 117.859 42.206ZM118.726 40.1179C119.171 40.1179 119.564 40.0303 119.905 39.8551C120.246 39.6752 120.513 39.4337 120.707 39.1307C120.901 38.8277 120.998 38.4844 120.998 38.1009V36.9432C120.904 37.0047 120.773 37.0616 120.608 37.1136C120.447 37.161 120.265 37.206 120.061 37.2486C119.857 37.2865 119.654 37.322 119.45 37.3551C119.247 37.3835 119.062 37.4096 118.896 37.4332C118.541 37.4853 118.231 37.5682 117.966 37.6818C117.701 37.7955 117.495 37.9493 117.348 38.1435C117.201 38.3329 117.128 38.5696 117.128 38.8537C117.128 39.2656 117.277 39.5805 117.575 39.7983C117.878 40.0114 118.262 40.1179 118.726 40.1179ZM132.153 31.0909V33.3636H125.583V31.0909H132.153ZM127.074 28.4773H130.1V38.6477C130.1 38.9271 130.143 39.1449 130.228 39.3011C130.313 39.4527 130.431 39.5592 130.583 39.6207C130.739 39.6823 130.919 39.7131 131.123 39.7131C131.265 39.7131 131.407 39.7012 131.549 39.6776C131.691 39.6491 131.8 39.6278 131.876 39.6136L132.351 41.8651C132.2 41.9124 131.987 41.9669 131.712 42.0284C131.438 42.0947 131.104 42.1349 130.711 42.1491C129.982 42.1776 129.342 42.0805 128.793 41.858C128.249 41.6354 127.825 41.2898 127.522 40.821C127.219 40.3523 127.07 39.7604 127.074 39.0455V28.4773ZM138.978 42.2131C137.856 42.2131 136.89 41.9858 136.08 41.5312C135.275 41.072 134.655 40.4233 134.219 39.5852C133.784 38.7424 133.566 37.7457 133.566 36.5952C133.566 35.473 133.784 34.4882 134.219 33.6406C134.655 32.7931 135.268 32.1326 136.059 31.6591C136.854 31.1856 137.787 30.9489 138.857 30.9489C139.577 30.9489 140.247 31.0649 140.867 31.2969C141.492 31.5241 142.037 31.8674 142.501 32.3267C142.969 32.786 143.334 33.3636 143.594 34.0597C143.855 34.7509 143.985 35.5606 143.985 36.4886V37.3196H134.773V35.4446H141.137C141.137 35.009 141.042 34.6231 140.853 34.2869C140.663 33.9508 140.401 33.688 140.064 33.4986C139.733 33.3045 139.347 33.2074 138.907 33.2074C138.448 33.2074 138.04 33.3139 137.685 33.527C137.335 33.7353 137.06 34.017 136.861 34.3722C136.662 34.7225 136.561 35.1132 136.556 35.544V37.3267C136.556 37.8665 136.655 38.3329 136.854 38.7259C137.058 39.1188 137.344 39.4219 137.714 39.6349C138.083 39.848 138.521 39.9545 139.028 39.9545C139.364 39.9545 139.671 39.9072 139.951 39.8125C140.23 39.7178 140.469 39.5758 140.668 39.3864C140.867 39.197 141.019 38.965 141.123 38.6903L143.921 38.875C143.779 39.5473 143.488 40.1345 143.047 40.6364C142.612 41.1335 142.048 41.5218 141.357 41.8011C140.671 42.0758 139.877 42.2131 138.978 42.2131Z" fill="white"/>
</svg>
