<svg width="206" height="71" viewBox="0 0 206 71" fill="none" xmlns="http://www.w3.org/2000/svg">
<rect width="206" height="71" rx="35.5" fill="#EDC48A"/>
<path d="M55.4982 27.4545H58.538V37.5966C58.538 38.5341 58.3273 39.3485 57.9059 40.0398C57.4892 40.7311 56.9092 41.2637 56.1658 41.6378C55.4225 42.0118 54.5584 42.1989 53.5735 42.1989C52.6976 42.1989 51.9021 42.045 51.1871 41.7372C50.4769 41.4247 49.9135 40.9512 49.4968 40.3168C49.0801 39.6776 48.8742 38.875 48.8789 37.9091H51.94C51.9495 38.2926 52.0276 38.6217 52.1744 38.8963C52.3259 39.1662 52.5318 39.3745 52.7923 39.5213C53.0574 39.6634 53.3699 39.7344 53.7298 39.7344C54.1085 39.7344 54.4281 39.6539 54.6886 39.4929C54.9537 39.3272 55.1549 39.0857 55.2923 38.7685C55.4296 38.4512 55.4982 38.0606 55.4982 37.5966V27.4545ZM64.1346 42.206C63.4386 42.206 62.8183 42.0852 62.2738 41.8438C61.7293 41.5975 61.2984 41.2353 60.9812 40.7571C60.6687 40.2741 60.5124 39.6728 60.5124 38.9531C60.5124 38.3471 60.6237 37.8381 60.8462 37.4261C61.0688 37.0142 61.3718 36.6828 61.7553 36.4318C62.1388 36.1809 62.5745 35.9915 63.0621 35.8636C63.5546 35.7358 64.0707 35.6458 64.6104 35.5938C65.2449 35.5275 65.7563 35.4659 66.1445 35.4091C66.5328 35.3475 66.8145 35.2576 66.9897 35.1392C67.1649 35.0208 67.2525 34.8456 67.2525 34.6136V34.571C67.2525 34.1212 67.1104 33.7732 66.8263 33.527C66.547 33.2808 66.1493 33.1577 65.6332 33.1577C65.0887 33.1577 64.6554 33.2784 64.3335 33.5199C64.0115 33.7566 63.7984 34.0549 63.6942 34.4148L60.896 34.1875C61.038 33.5246 61.3174 32.9517 61.734 32.4688C62.1507 31.9811 62.6881 31.607 63.3462 31.3466C64.0091 31.0814 64.7762 30.9489 65.6474 30.9489C66.2534 30.9489 66.8335 31.0199 67.3874 31.1619C67.9461 31.304 68.4409 31.5241 68.8718 31.8224C69.3074 32.1207 69.6507 32.5043 69.9016 32.973C70.1526 33.437 70.2781 33.9934 70.2781 34.642V42H67.4087V40.4872H67.3235C67.1483 40.8281 66.9139 41.1288 66.6204 41.3892C66.3268 41.6449 65.9741 41.8461 65.5621 41.9929C65.1502 42.1349 64.6744 42.206 64.1346 42.206ZM65.0011 40.1179C65.4461 40.1179 65.8391 40.0303 66.18 39.8551C66.521 39.6752 66.7885 39.4337 66.9826 39.1307C67.1767 38.8277 67.2738 38.4844 67.2738 38.1009V36.9432C67.1791 37.0047 67.0489 37.0616 66.8832 37.1136C66.7222 37.161 66.5399 37.206 66.3363 37.2486C66.1327 37.2865 65.9291 37.322 65.7255 37.3551C65.5219 37.3835 65.3372 37.4096 65.1715 37.4332C64.8164 37.4853 64.5063 37.5682 64.2411 37.6818C63.976 37.7955 63.77 37.9493 63.6232 38.1435C63.4764 38.3329 63.4031 38.5696 63.4031 38.8537C63.4031 39.2656 63.5522 39.5805 63.8505 39.7983C64.1535 40.0114 64.5371 40.1179 65.0011 40.1179ZM82.4052 31.0909L78.5913 42H75.1822L71.3683 31.0909H74.5643L76.8299 38.8963H76.9435L79.2021 31.0909H82.4052ZM86.7713 42.206C86.0753 42.206 85.455 42.0852 84.9105 41.8438C84.366 41.5975 83.9351 41.2353 83.6179 40.7571C83.3054 40.2741 83.1491 39.6728 83.1491 38.9531C83.1491 38.3471 83.2604 37.8381 83.483 37.4261C83.7055 37.0142 84.0085 36.6828 84.392 36.4318C84.7756 36.1809 85.2112 35.9915 85.6989 35.8636C86.1913 35.7358 86.7074 35.6458 87.2472 35.5938C87.8816 35.5275 88.393 35.4659 88.7812 35.4091C89.1695 35.3475 89.4512 35.2576 89.6264 35.1392C89.8016 35.0208 89.8892 34.8456 89.8892 34.6136V34.571C89.8892 34.1212 89.7472 33.7732 89.4631 33.527C89.1837 33.2808 88.786 33.1577 88.2699 33.1577C87.7254 33.1577 87.2921 33.2784 86.9702 33.5199C86.6482 33.7566 86.4351 34.0549 86.331 34.4148L83.5327 34.1875C83.6747 33.5246 83.9541 32.9517 84.3707 32.4688C84.7874 31.9811 85.3248 31.607 85.983 31.3466C86.6458 31.0814 87.4129 30.9489 88.2841 30.9489C88.8902 30.9489 89.4702 31.0199 90.0241 31.1619C90.5829 31.304 91.0777 31.5241 91.5085 31.8224C91.9441 32.1207 92.2874 32.5043 92.5384 32.973C92.7893 33.437 92.9148 33.9934 92.9148 34.642V42H90.0455V40.4872H89.9602C89.785 40.8281 89.5507 41.1288 89.2571 41.3892C88.9635 41.6449 88.6108 41.8461 88.1989 41.9929C87.7869 42.1349 87.3111 42.206 86.7713 42.206ZM87.6378 40.1179C88.0829 40.1179 88.4759 40.0303 88.8168 39.8551C89.1577 39.6752 89.4252 39.4337 89.6193 39.1307C89.8134 38.8277 89.9105 38.4844 89.9105 38.1009V36.9432C89.8158 37.0047 89.6856 37.0616 89.5199 37.1136C89.3589 37.161 89.1766 37.206 88.973 37.2486C88.7694 37.2865 88.5658 37.322 88.3622 37.3551C88.1586 37.3835 87.974 37.4096 87.8082 37.4332C87.4531 37.4853 87.143 37.5682 86.8778 37.6818C86.6127 37.7955 86.4067 37.9493 86.2599 38.1435C86.1132 38.3329 86.0398 38.5696 86.0398 38.8537C86.0398 39.2656 86.1889 39.5805 86.4872 39.7983C86.7902 40.0114 87.1738 40.1179 87.6378 40.1179ZM107.838 31.6378C107.782 31.0649 107.538 30.6198 107.107 30.3026C106.676 29.9853 106.091 29.8267 105.353 29.8267C104.851 29.8267 104.427 29.8977 104.081 30.0398C103.736 30.1771 103.471 30.3688 103.286 30.6151C103.106 30.8613 103.016 31.1406 103.016 31.4531C103.007 31.7135 103.061 31.9408 103.179 32.1349C103.302 32.3291 103.471 32.4972 103.684 32.6392C103.897 32.7765 104.143 32.8973 104.422 33.0014C104.702 33.1009 105 33.1861 105.317 33.2571L106.624 33.5696C107.258 33.7116 107.841 33.901 108.371 34.1378C108.901 34.3745 109.361 34.6657 109.749 35.0114C110.137 35.357 110.438 35.7642 110.651 36.233C110.869 36.7017 110.98 37.2391 110.985 37.8452C110.98 38.7353 110.753 39.5071 110.303 40.1605C109.858 40.8092 109.214 41.3134 108.371 41.6733C107.533 42.0284 106.522 42.206 105.338 42.206C104.164 42.206 103.141 42.026 102.27 41.6662C101.404 41.3063 100.727 40.7737 100.239 40.0682C99.756 39.358 99.5027 38.4796 99.479 37.4332H102.455C102.488 37.9209 102.628 38.3281 102.874 38.6548C103.125 38.9768 103.459 39.2206 103.875 39.3864C104.297 39.5473 104.773 39.6278 105.303 39.6278C105.824 39.6278 106.276 39.5521 106.659 39.4006C107.048 39.2491 107.348 39.0384 107.561 38.7685C107.775 38.4986 107.881 38.1884 107.881 37.8381C107.881 37.5114 107.784 37.2367 107.59 37.0142C107.4 36.7917 107.121 36.6023 106.752 36.446C106.387 36.2898 105.94 36.1477 105.409 36.0199L103.826 35.6222C102.599 35.3239 101.631 34.8575 100.921 34.223C100.211 33.5885 99.8578 32.7339 99.8626 31.6591C99.8578 30.7784 100.092 30.009 100.566 29.3509C101.044 28.6927 101.7 28.179 102.533 27.8097C103.366 27.4403 104.313 27.2557 105.374 27.2557C106.453 27.2557 107.396 27.4403 108.201 27.8097C109.01 28.179 109.64 28.6927 110.09 29.3509C110.54 30.009 110.772 30.7713 110.786 31.6378H107.838ZM117.925 42.2131C116.808 42.2131 115.847 41.9763 115.042 41.5028C114.242 41.0246 113.626 40.3617 113.195 39.5142C112.769 38.6667 112.556 37.6913 112.556 36.5881C112.556 35.4706 112.772 34.4905 113.202 33.6477C113.638 32.8002 114.256 32.1397 115.056 31.6662C115.856 31.188 116.808 30.9489 117.911 30.9489C118.863 30.9489 119.696 31.1217 120.411 31.4673C121.126 31.813 121.692 32.2983 122.109 32.9233C122.525 33.5483 122.755 34.2822 122.798 35.125H119.942C119.862 34.5805 119.649 34.1425 119.303 33.8111C118.962 33.4749 118.515 33.3068 117.961 33.3068C117.492 33.3068 117.083 33.4347 116.732 33.6903C116.387 33.9413 116.117 34.3082 115.923 34.7912C115.728 35.2741 115.631 35.8589 115.631 36.5455C115.631 37.2415 115.726 37.8333 115.915 38.321C116.11 38.8087 116.382 39.1804 116.732 39.4361C117.083 39.6918 117.492 39.8196 117.961 39.8196C118.307 39.8196 118.617 39.7486 118.891 39.6065C119.171 39.4645 119.4 39.2585 119.58 38.9886C119.765 38.714 119.886 38.3849 119.942 38.0014H122.798C122.75 38.8348 122.523 39.5687 122.116 40.2031C121.713 40.8329 121.157 41.3253 120.447 41.6804C119.737 42.0355 118.896 42.2131 117.925 42.2131ZM124.735 42V31.0909H127.668V32.9943H127.782C127.98 32.3172 128.314 31.8059 128.783 31.4602C129.252 31.1098 129.792 30.9347 130.402 30.9347C130.554 30.9347 130.717 30.9441 130.892 30.9631C131.068 30.982 131.221 31.008 131.354 31.0412V33.7259C131.212 33.6832 131.016 33.6454 130.765 33.6122C130.514 33.5791 130.284 33.5625 130.076 33.5625C129.631 33.5625 129.233 33.6596 128.882 33.8537C128.537 34.0431 128.262 34.3082 128.059 34.6491C127.86 34.9901 127.76 35.383 127.76 35.8281V42H124.735ZM132.918 42V31.0909H135.944V42H132.918ZM134.438 29.6847C133.988 29.6847 133.603 29.5355 133.281 29.2372C132.963 28.9342 132.805 28.572 132.805 28.1506C132.805 27.7339 132.963 27.3764 133.281 27.0781C133.603 26.7751 133.988 26.6236 134.438 26.6236C134.888 26.6236 135.272 26.7751 135.589 27.0781C135.911 27.3764 136.072 27.7339 136.072 28.1506C136.072 28.572 135.911 28.9342 135.589 29.2372C135.272 29.5355 134.888 29.6847 134.438 29.6847ZM138.368 46.0909V31.0909H141.35V32.9233H141.485C141.618 32.6297 141.81 32.3314 142.061 32.0284C142.316 31.7206 142.648 31.465 143.055 31.2614C143.467 31.053 143.978 30.9489 144.589 30.9489C145.385 30.9489 146.118 31.1572 146.791 31.5739C147.463 31.9858 148.001 32.6084 148.403 33.4418C148.806 34.2704 149.007 35.3097 149.007 36.5597C149.007 37.7765 148.81 38.804 148.417 39.642C148.029 40.4754 147.499 41.1075 146.826 41.5384C146.159 41.9645 145.411 42.1776 144.582 42.1776C143.995 42.1776 143.495 42.0805 143.083 41.8864C142.676 41.6922 142.342 41.4484 142.082 41.1548C141.822 40.8565 141.623 40.5559 141.485 40.2528H141.393V46.0909H138.368ZM141.329 36.5455C141.329 37.1941 141.419 37.7599 141.599 38.2429C141.779 38.7259 142.039 39.1023 142.38 39.3722C142.721 39.6373 143.136 39.7699 143.623 39.7699C144.116 39.7699 144.532 39.6349 144.873 39.3651C145.214 39.0904 145.472 38.7116 145.647 38.2287C145.827 37.741 145.917 37.1799 145.917 36.5455C145.917 35.9157 145.83 35.3617 145.654 34.8835C145.479 34.4053 145.221 34.0312 144.88 33.7614C144.539 33.4915 144.12 33.3565 143.623 33.3565C143.131 33.3565 142.714 33.4867 142.373 33.7472C142.037 34.0076 141.779 34.3769 141.599 34.8551C141.419 35.3333 141.329 35.8968 141.329 36.5455ZM156.826 31.0909V33.3636H150.257V31.0909H156.826ZM151.748 28.4773H154.774V38.6477C154.774 38.9271 154.816 39.1449 154.902 39.3011C154.987 39.4527 155.105 39.5592 155.257 39.6207C155.413 39.6823 155.593 39.7131 155.797 39.7131C155.939 39.7131 156.081 39.7012 156.223 39.6776C156.365 39.6491 156.474 39.6278 156.549 39.6136L157.025 41.8651C156.874 41.9124 156.661 41.9669 156.386 42.0284C156.111 42.0947 155.778 42.1349 155.385 42.1491C154.655 42.1776 154.016 42.0805 153.467 41.858C152.922 41.6354 152.499 41.2898 152.196 40.821C151.893 40.3523 151.743 39.7604 151.748 39.0455V28.4773Z" fill="black"/>
</svg>
