<svg width="120" height="71" viewBox="0 0 120 71" fill="none" xmlns="http://www.w3.org/2000/svg">
<rect width="120" height="71" rx="35.5" fill="#343434"/>
<path d="M42.5162 27.4545H46.3088L50.3145 37.2273H50.4849L54.4906 27.4545H58.2832V42H55.3002V32.5327H55.1795L51.4153 41.929H49.3841L45.6199 32.4972H45.4991V42H42.5162V27.4545ZM69.8013 27.4545H72.8766V36.9006C72.8766 37.9612 72.6233 38.8892 72.1167 39.6847C71.6148 40.4801 70.9116 41.1004 70.0073 41.5455C69.1029 41.9858 68.0494 42.206 66.8468 42.206C65.6394 42.206 64.5835 41.9858 63.6792 41.5455C62.7748 41.1004 62.0717 40.4801 61.5698 39.6847C61.0679 38.8892 60.8169 37.9612 60.8169 36.9006V27.4545H63.8922V36.6378C63.8922 37.1918 64.013 37.6842 64.2544 38.1151C64.5007 38.5459 64.8463 38.8845 65.2914 39.1307C65.7364 39.3769 66.2549 39.5 66.8468 39.5C67.4434 39.5 67.9618 39.3769 68.4022 39.1307C68.8472 38.8845 69.1905 38.5459 69.432 38.1151C69.6782 37.6842 69.8013 37.1918 69.8013 36.6378V27.4545ZM78.4821 27.4545V42H75.4068V27.4545H78.4821Z" fill="white"/>
</svg>
