<svg width="150" height="71" viewBox="0 0 150 71" fill="none" xmlns="http://www.w3.org/2000/svg">
<rect width="150" height="71" rx="35.5" fill="#C87F50"/>
<path d="M45.649 27.4545H49.4416L53.4473 37.2273H53.6177L57.6234 27.4545H61.416V42H58.4331V32.5327H58.3123L54.5481 41.929H52.5169L48.7527 32.4972H48.6319V42H45.649V27.4545ZM65.7608 46.0909C65.3773 46.0909 65.0175 46.0601 64.6813 45.9986C64.3498 45.9418 64.0752 45.8684 63.8574 45.7784L64.5392 43.5199C64.8944 43.6288 65.214 43.688 65.498 43.6974C65.7869 43.7069 66.0355 43.6406 66.2438 43.4986C66.4569 43.3565 66.6297 43.1151 66.7623 42.7741L66.9398 42.3125L63.0265 31.0909H66.2083L68.4668 39.1023H68.5804L70.8603 31.0909H74.0634L69.8233 43.179C69.6197 43.7661 69.3427 44.2775 68.9924 44.7131C68.6467 45.1534 68.2087 45.492 67.6784 45.7287C67.1481 45.9702 66.5089 46.0909 65.7608 46.0909ZM83.5591 31.6378C83.5023 31.0649 83.2585 30.6198 82.8276 30.3026C82.3967 29.9853 81.812 29.8267 81.0733 29.8267C80.5714 29.8267 80.1477 29.8977 79.802 30.0398C79.4564 30.1771 79.1912 30.3688 79.0066 30.6151C78.8266 30.8613 78.7367 31.1406 78.7367 31.4531C78.7272 31.7135 78.7817 31.9408 78.9 32.1349C79.0231 32.3291 79.1912 32.4972 79.4043 32.6392C79.6174 32.7765 79.8636 32.8973 80.1429 33.0014C80.4223 33.1009 80.7206 33.1861 81.0378 33.2571L82.3446 33.5696C82.9791 33.7116 83.5615 33.901 84.0918 34.1378C84.6221 34.3745 85.0814 34.6657 85.4696 35.0114C85.8579 35.357 86.1586 35.7642 86.3716 36.233C86.5894 36.7017 86.7007 37.2391 86.7054 37.8452C86.7007 38.7353 86.4734 39.5071 86.0236 40.1605C85.5785 40.8092 84.9346 41.3134 84.0918 41.6733C83.2537 42.0284 82.2428 42.206 81.0591 42.206C79.8849 42.206 78.8622 42.026 77.9909 41.6662C77.1245 41.3063 76.4474 40.7737 75.9597 40.0682C75.4767 39.358 75.2234 38.4796 75.1998 37.4332H78.1756C78.2087 37.9209 78.3484 38.3281 78.5946 38.6548C78.8456 38.9768 79.1794 39.2206 79.5961 39.3864C80.0175 39.5473 80.4933 39.6278 81.0236 39.6278C81.5444 39.6278 81.9966 39.5521 82.3801 39.4006C82.7684 39.2491 83.0691 39.0384 83.2821 38.7685C83.4952 38.4986 83.6017 38.1884 83.6017 37.8381C83.6017 37.5114 83.5047 37.2367 83.3105 37.0142C83.1212 36.7917 82.8418 36.6023 82.4725 36.446C82.1079 36.2898 81.6605 36.1477 81.1301 36.0199L79.5463 35.6222C78.32 35.3239 77.3517 34.8575 76.6415 34.223C75.9313 33.5885 75.5785 32.7339 75.5833 31.6591C75.5785 30.7784 75.8129 30.009 76.2864 29.3509C76.7646 28.6927 77.4204 28.179 78.2537 27.8097C79.0871 27.4403 80.034 27.2557 81.0946 27.2557C82.1742 27.2557 83.1164 27.4403 83.9213 27.8097C84.731 28.179 85.3607 28.6927 85.8105 29.3509C86.2604 30.009 86.4924 30.7713 86.5066 31.6378H83.5591ZM95.926 46.0909V40.2528H95.8336C95.6916 40.5559 95.4904 40.8565 95.2299 41.1548C94.9743 41.4484 94.6404 41.6922 94.2285 41.8864C93.8213 42.0805 93.3242 42.1776 92.737 42.1776C91.9084 42.1776 91.158 41.9645 90.4856 41.5384C89.818 41.1075 89.2877 40.4754 88.8947 39.642C88.5065 38.804 88.3123 37.7765 88.3123 36.5597C88.3123 35.3097 88.5136 34.2704 88.916 33.4418C89.3185 32.6084 89.8535 31.9858 90.5211 31.5739C91.1935 31.1572 91.9297 30.9489 92.7299 30.9489C93.3407 30.9489 93.8497 31.053 94.2569 31.2614C94.6689 31.465 95.0003 31.7206 95.2512 32.0284C95.5069 32.3314 95.7011 32.6297 95.8336 32.9233H95.9615V31.0909H98.9444V46.0909H95.926ZM93.6958 39.7699C94.1835 39.7699 94.5955 39.6373 94.9316 39.3722C95.2725 39.1023 95.533 38.7259 95.7129 38.2429C95.8975 37.7599 95.9899 37.1941 95.9899 36.5455C95.9899 35.8968 95.8999 35.3333 95.72 34.8551C95.5401 34.3769 95.2797 34.0076 94.9387 33.7472C94.5978 33.4867 94.1835 33.3565 93.6958 33.3565C93.1987 33.3565 92.7797 33.4915 92.4387 33.7614C92.0978 34.0312 91.8398 34.4053 91.6646 34.8835C91.4894 35.3617 91.4018 35.9157 91.4018 36.5455C91.4018 37.1799 91.4894 37.741 91.6646 38.2287C91.8445 38.7116 92.1026 39.0904 92.4387 39.3651C92.7797 39.6349 93.1987 39.7699 93.6958 39.7699ZM104.399 27.4545V42H101.373V27.4545H104.399Z" fill="white"/>
</svg>
