<svg width="166" height="71" viewBox="0 0 166 71" fill="none" xmlns="http://www.w3.org/2000/svg">
<rect width="166" height="71" rx="35.5" fill="#EDC48A"/>
<path d="M49.3326 42V27.4545H55.0712C56.1744 27.4545 57.1143 27.6652 57.8908 28.0866C58.6673 28.5033 59.2592 29.0833 59.6664 29.8267C60.0783 30.5653 60.2843 31.4176 60.2843 32.3835C60.2843 33.3494 60.0759 34.2017 59.6593 34.9403C59.2426 35.679 58.6389 36.2543 57.8482 36.6662C57.0622 37.0781 56.1105 37.2841 54.9931 37.2841H51.3354V34.8196H54.4959C55.0878 34.8196 55.5755 34.7178 55.959 34.5142C56.3472 34.3059 56.6361 34.0194 56.8255 33.6548C57.0196 33.2855 57.1167 32.8617 57.1167 32.3835C57.1167 31.9006 57.0196 31.4792 56.8255 31.1193C56.6361 30.7547 56.3472 30.473 55.959 30.2741C55.5707 30.0705 55.0783 29.9688 54.4817 29.9688H52.4078V42H49.3326ZM64.0929 46.0909C63.7093 46.0909 63.3495 46.0601 63.0133 45.9986C62.6819 45.9418 62.4073 45.8684 62.1895 45.7784L62.8713 43.5199C63.2264 43.6288 63.546 43.688 63.8301 43.6974C64.1189 43.7069 64.3675 43.6406 64.5758 43.4986C64.7889 43.3565 64.9617 43.1151 65.0943 42.7741L65.2718 42.3125L61.3585 31.0909H64.5403L66.7988 39.1023H66.9125L69.1923 31.0909H72.3954L68.1554 43.179C67.9518 43.7661 67.6748 44.2775 67.3244 44.7131C66.9788 45.1534 66.5408 45.492 66.0105 45.7287C65.4802 45.9702 64.841 46.0909 64.0929 46.0909ZM79.7463 31.0909V33.3636H73.1767V31.0909H79.7463ZM74.6681 28.4773H77.6937V38.6477C77.6937 38.9271 77.7363 39.1449 77.8216 39.3011C77.9068 39.4527 78.0252 39.5592 78.1767 39.6207C78.3329 39.6823 78.5128 39.7131 78.7164 39.7131C78.8585 39.7131 79.0005 39.7012 79.1426 39.6776C79.2846 39.6491 79.3935 39.6278 79.4693 39.6136L79.9451 41.8651C79.7936 41.9124 79.5806 41.9669 79.3059 42.0284C79.0313 42.0947 78.6975 42.1349 78.3045 42.1491C77.5753 42.1776 76.9361 42.0805 76.3869 41.858C75.8424 41.6354 75.4186 41.2898 75.1156 40.821C74.8126 40.3523 74.6634 39.7604 74.6681 39.0455V28.4773ZM84.9771 35.6932V42H81.9515V27.4545H84.8919V33.0156H85.0197C85.2659 32.3717 85.6636 31.8674 86.2129 31.5028C86.7621 31.1335 87.4511 30.9489 88.2797 30.9489C89.0372 30.9489 89.6977 31.1146 90.2612 31.446C90.8294 31.7727 91.2697 32.2438 91.5822 32.8594C91.8994 33.4702 92.0557 34.2017 92.051 35.054V42H89.0254V35.5938C89.0301 34.9214 88.8597 34.3982 88.514 34.0241C88.1731 33.6501 87.6949 33.4631 87.0794 33.4631C86.6674 33.4631 86.3029 33.5507 85.9856 33.7259C85.6731 33.901 85.4269 34.1567 85.247 34.4929C85.0718 34.8243 84.9818 35.2244 84.9771 35.6932ZM99.361 42.2131C98.2578 42.2131 97.3037 41.9787 96.4988 41.5099C95.6986 41.0365 95.0807 40.3783 94.6451 39.5355C94.2095 38.688 93.9917 37.7055 93.9917 36.5881C93.9917 35.4612 94.2095 34.4763 94.6451 33.6335C95.0807 32.786 95.6986 32.1278 96.4988 31.6591C97.3037 31.1856 98.2578 30.9489 99.361 30.9489C100.464 30.9489 101.416 31.1856 102.216 31.6591C103.021 32.1278 103.641 32.786 104.077 33.6335C104.512 34.4763 104.73 35.4612 104.73 36.5881C104.73 37.7055 104.512 38.688 104.077 39.5355C103.641 40.3783 103.021 41.0365 102.216 41.5099C101.416 41.9787 100.464 42.2131 99.361 42.2131ZM99.3752 39.8693C99.8771 39.8693 100.296 39.7273 100.632 39.4432C100.968 39.1544 101.222 38.7614 101.392 38.2642C101.567 37.767 101.655 37.2012 101.655 36.5668C101.655 35.9323 101.567 35.3665 101.392 34.8693C101.222 34.3722 100.968 33.9792 100.632 33.6903C100.296 33.4015 99.8771 33.2571 99.3752 33.2571C98.8685 33.2571 98.4424 33.4015 98.0968 33.6903C97.7559 33.9792 97.4978 34.3722 97.3226 34.8693C97.1522 35.3665 97.0669 35.9323 97.0669 36.5668C97.0669 37.2012 97.1522 37.767 97.3226 38.2642C97.4978 38.7614 97.7559 39.1544 98.0968 39.4432C98.4424 39.7273 98.8685 39.8693 99.3752 39.8693ZM109.723 35.6932V42H106.698V31.0909H109.581V33.0156H109.709C109.95 32.3812 110.355 31.8793 110.923 31.5099C111.492 31.1359 112.181 30.9489 112.99 30.9489C113.748 30.9489 114.408 31.1146 114.972 31.446C115.535 31.7775 115.973 32.2509 116.286 32.8665C116.598 33.4773 116.754 34.2064 116.754 35.054V42H113.729V35.5938C113.734 34.9261 113.563 34.4053 113.218 34.0312C112.872 33.6525 112.396 33.4631 111.79 33.4631C111.383 33.4631 111.023 33.5507 110.71 33.7259C110.403 33.901 110.161 34.1567 109.986 34.4929C109.816 34.8243 109.728 35.2244 109.723 35.6932Z" fill="black"/>
</svg>
