<svg width="130" height="71" viewBox="0 0 130 71" fill="none" xmlns="http://www.w3.org/2000/svg">
<rect width="130" height="71" rx="35.5" fill="#343434"/>
<path d="M38.7564 42V27.4545H44.495C45.5935 27.4545 46.531 27.651 47.3075 28.044C48.0888 28.4323 48.683 28.9839 49.0902 29.6989C49.5021 30.4091 49.7081 31.2448 49.7081 32.206C49.7081 33.1719 49.4998 34.0028 49.0831 34.6989C48.6664 35.3902 48.0627 35.9205 47.272 36.2898C46.486 36.6591 45.5343 36.8438 44.4169 36.8438H40.5746V34.3722H43.9197C44.5069 34.3722 44.9946 34.2917 45.3828 34.1307C45.7711 33.9697 46.0599 33.7282 46.2493 33.4062C46.4434 33.0843 46.5405 32.6842 46.5405 32.206C46.5405 31.723 46.4434 31.3158 46.2493 30.9844C46.0599 30.6529 45.7687 30.402 45.3757 30.2315C44.9875 30.0563 44.4974 29.9688 43.9055 29.9688H41.8317V42H38.7564ZM46.6115 35.3807L50.2266 42H46.8317L43.2947 35.3807H46.6115ZM56.6204 42.2131C55.4982 42.2131 54.5323 41.9858 53.7227 41.5312C52.9177 41.072 52.2975 40.4233 51.8619 39.5852C51.4263 38.7424 51.2085 37.7457 51.2085 36.5952C51.2085 35.473 51.4263 34.4882 51.8619 33.6406C52.2975 32.7931 52.9106 32.1326 53.7013 31.6591C54.4968 31.1856 55.4296 30.9489 56.4996 30.9489C57.2193 30.9489 57.8893 31.0649 58.5096 31.2969C59.1346 31.5241 59.6791 31.8674 60.1431 32.3267C60.6119 32.786 60.9764 33.3636 61.2369 34.0597C61.4973 34.7509 61.6275 35.5606 61.6275 36.4886V37.3196H52.4158V35.4446H58.7795C58.7795 35.009 58.6848 34.6231 58.4954 34.2869C58.306 33.9508 58.0432 33.688 57.707 33.4986C57.3756 33.3045 56.9897 33.2074 56.5494 33.2074C56.0901 33.2074 55.6829 33.3139 55.3278 33.527C54.9774 33.7353 54.7028 34.017 54.5039 34.3722C54.305 34.7225 54.2032 35.1132 54.1985 35.544V37.3267C54.1985 37.8665 54.2979 38.3329 54.4968 38.7259C54.7004 39.1188 54.9869 39.4219 55.3562 39.6349C55.7255 39.848 56.1635 39.9545 56.6701 39.9545C57.0063 39.9545 57.314 39.9072 57.5934 39.8125C57.8728 39.7178 58.1119 39.5758 58.3107 39.3864C58.5096 39.197 58.6611 38.965 58.7653 38.6903L61.5636 38.875C61.4215 39.5473 61.1303 40.1345 60.69 40.6364C60.2544 41.1335 59.6909 41.5218 58.9996 41.8011C58.3131 42.0758 57.52 42.2131 56.6204 42.2131ZM66.7127 42.206C66.0167 42.206 65.3964 42.0852 64.8519 41.8438C64.3074 41.5975 63.8765 41.2353 63.5593 40.7571C63.2468 40.2741 63.0906 39.6728 63.0906 38.9531C63.0906 38.3471 63.2018 37.8381 63.4244 37.4261C63.6469 37.0142 63.9499 36.6828 64.3335 36.4318C64.717 36.1809 65.1526 35.9915 65.6403 35.8636C66.1327 35.7358 66.6488 35.6458 67.1886 35.5938C67.823 35.5275 68.3344 35.4659 68.7227 35.4091C69.1109 35.3475 69.3926 35.2576 69.5678 35.1392C69.743 35.0208 69.8306 34.8456 69.8306 34.6136V34.571C69.8306 34.1212 69.6886 33.7732 69.4045 33.527C69.1251 33.2808 68.7274 33.1577 68.2113 33.1577C67.6668 33.1577 67.2335 33.2784 66.9116 33.5199C66.5896 33.7566 66.3765 34.0549 66.2724 34.4148L63.4741 34.1875C63.6161 33.5246 63.8955 32.9517 64.3121 32.4688C64.7288 31.9811 65.2662 31.607 65.9244 31.3466C66.5872 31.0814 67.3543 30.9489 68.2255 30.9489C68.8316 30.9489 69.4116 31.0199 69.9656 31.1619C70.5243 31.304 71.0191 31.5241 71.4499 31.8224C71.8855 32.1207 72.2288 32.5043 72.4798 32.973C72.7307 33.437 72.8562 33.9934 72.8562 34.642V42H69.9869V40.4872H69.9016C69.7264 40.8281 69.4921 41.1288 69.1985 41.3892C68.9049 41.6449 68.5522 41.8461 68.1403 41.9929C67.7283 42.1349 67.2525 42.206 66.7127 42.206ZM67.5792 40.1179C68.0243 40.1179 68.4173 40.0303 68.7582 39.8551C69.0991 39.6752 69.3666 39.4337 69.5607 39.1307C69.7549 38.8277 69.8519 38.4844 69.8519 38.1009V36.9432C69.7572 37.0047 69.627 37.0616 69.4613 37.1136C69.3003 37.161 69.118 37.206 68.9144 37.2486C68.7108 37.2865 68.5072 37.322 68.3036 37.3551C68.1 37.3835 67.9154 37.4096 67.7496 37.4332C67.3945 37.4853 67.0844 37.5682 66.8192 37.6818C66.5541 37.7955 66.3481 37.9493 66.2013 38.1435C66.0546 38.3329 65.9812 38.5696 65.9812 38.8537C65.9812 39.2656 66.1303 39.5805 66.4286 39.7983C66.7317 40.0114 67.1152 40.1179 67.5792 40.1179ZM80.1325 42.2131C79.015 42.2131 78.0539 41.9763 77.2489 41.5028C76.4487 41.0246 75.8332 40.3617 75.4023 39.5142C74.9762 38.6667 74.7631 37.6913 74.7631 36.5881C74.7631 35.4706 74.9786 34.4905 75.4094 33.6477C75.8451 32.8002 76.4629 32.1397 77.2631 31.6662C78.0633 31.188 79.015 30.9489 80.1183 30.9489C81.07 30.9489 81.9033 31.1217 82.6183 31.4673C83.3332 31.813 83.899 32.2983 84.3157 32.9233C84.7324 33.5483 84.962 34.2822 85.0046 35.125H82.1495C82.069 34.5805 81.8559 34.1425 81.5103 33.8111C81.1694 33.4749 80.7219 33.3068 80.168 33.3068C79.6992 33.3068 79.2897 33.4347 78.9393 33.6903C78.5936 33.9413 78.3237 34.3082 78.1296 34.7912C77.9355 35.2741 77.8384 35.8589 77.8384 36.5455C77.8384 37.2415 77.9331 37.8333 78.1225 38.321C78.3166 38.8087 78.5889 39.1804 78.9393 39.4361C79.2897 39.6918 79.6992 39.8196 80.168 39.8196C80.5136 39.8196 80.8237 39.7486 81.0984 39.6065C81.3777 39.4645 81.6074 39.2585 81.7873 38.9886C81.9719 38.714 82.0927 38.3849 82.1495 38.0014H85.0046C84.9573 38.8348 84.73 39.5687 84.3228 40.2031C83.9203 40.8329 83.364 41.3253 82.6538 41.6804C81.9435 42.0355 81.1031 42.2131 80.1325 42.2131ZM92.7443 31.0909V33.3636H86.1747V31.0909H92.7443ZM87.6662 28.4773H90.6918V38.6477C90.6918 38.9271 90.7344 39.1449 90.8196 39.3011C90.9048 39.4527 91.0232 39.5592 91.1747 39.6207C91.331 39.6823 91.5109 39.7131 91.7145 39.7131C91.8565 39.7131 91.9986 39.7012 92.1406 39.6776C92.2827 39.6491 92.3916 39.6278 92.4673 39.6136L92.9432 41.8651C92.7917 41.9124 92.5786 41.9669 92.304 42.0284C92.0294 42.0947 91.6955 42.1349 91.3026 42.1491C90.5734 42.1776 89.9342 42.0805 89.3849 41.858C88.8404 41.6354 88.4167 41.2898 88.1136 40.821C87.8106 40.3523 87.6615 39.7604 87.6662 39.0455V28.4773Z" fill="white"/>
</svg>
