<svg width="96" height="71" viewBox="0 0 96 71" fill="none" xmlns="http://www.w3.org/2000/svg">
<rect width="96" height="71" rx="35.5" fill="#E5E0D5"/>
<path d="M44.5103 31.6378C44.4535 31.0649 44.2096 30.6198 43.7788 30.3026C43.3479 29.9853 42.7631 29.8267 42.0245 29.8267C41.5226 29.8267 41.0988 29.8977 40.7532 30.0398C40.4076 30.1771 40.1424 30.3688 39.9577 30.6151C39.7778 30.8613 39.6879 31.1406 39.6879 31.4531C39.6784 31.7135 39.7328 31.9408 39.8512 32.1349C39.9743 32.3291 40.1424 32.4972 40.3555 32.6392C40.5685 32.7765 40.8147 32.8973 41.0941 33.0014C41.3735 33.1009 41.6718 33.1861 41.989 33.2571L43.2958 33.5696C43.9303 33.7116 44.5127 33.901 45.043 34.1378C45.5733 34.3745 46.0326 34.6657 46.4208 35.0114C46.8091 35.357 47.1097 35.7642 47.3228 36.233C47.5406 36.7017 47.6519 37.2391 47.6566 37.8452C47.6519 38.7353 47.4246 39.5071 46.9748 40.1605C46.5297 40.8092 45.8858 41.3134 45.043 41.6733C44.2049 42.0284 43.194 42.206 42.0103 42.206C40.8361 42.206 39.8133 42.026 38.9421 41.6662C38.0756 41.3063 37.3986 40.7737 36.9109 40.0682C36.4279 39.358 36.1746 38.4796 36.1509 37.4332H39.1268C39.1599 37.9209 39.2996 38.3281 39.5458 38.6548C39.7968 38.9768 40.1306 39.2206 40.5472 39.3864C40.9686 39.5473 41.4445 39.6278 41.9748 39.6278C42.4956 39.6278 42.9478 39.5521 43.3313 39.4006C43.7196 39.2491 44.0202 39.0384 44.2333 38.7685C44.4464 38.4986 44.5529 38.1884 44.5529 37.8381C44.5529 37.5114 44.4558 37.2367 44.2617 37.0142C44.0723 36.7917 43.793 36.6023 43.4237 36.446C43.0591 36.2898 42.6116 36.1477 42.0813 36.0199L40.4975 35.6222C39.2712 35.3239 38.3029 34.8575 37.5927 34.223C36.8825 33.5885 36.5297 32.7339 36.5344 31.6591C36.5297 30.7784 36.7641 30.009 37.2376 29.3509C37.7158 28.6927 38.3716 28.179 39.2049 27.8097C40.0382 27.4403 40.9852 27.2557 42.0458 27.2557C43.1254 27.2557 44.0676 27.4403 44.8725 27.8097C45.6822 28.179 46.3119 28.6927 46.7617 29.3509C47.2115 30.009 47.4435 30.7713 47.4577 31.6378H44.5103ZM55.0163 42.1989C53.9557 42.1989 53.0111 42.0166 52.1825 41.652C51.3587 41.2827 50.7076 40.776 50.2294 40.1321C49.7559 39.4834 49.5121 38.7353 49.4979 37.8878H52.5945C52.6134 38.2429 52.7294 38.5554 52.9425 38.8253C53.1603 39.0904 53.4491 39.2964 53.8089 39.4432C54.1688 39.59 54.5736 39.6634 55.0234 39.6634C55.4922 39.6634 55.9065 39.5805 56.2663 39.4148C56.6262 39.2491 56.9079 39.0194 57.1115 38.7259C57.3151 38.4323 57.4169 38.0937 57.4169 37.7102C57.4169 37.322 57.308 36.9787 57.0902 36.6804C56.8771 36.3774 56.5694 36.1406 56.1669 35.9702C55.7692 35.7997 55.2957 35.7145 54.7464 35.7145H53.3899V33.456H54.7464C55.2105 33.456 55.62 33.3755 55.9751 33.2145C56.335 33.0535 56.6143 32.831 56.8132 32.5469C57.0121 32.258 57.1115 31.9219 57.1115 31.5384C57.1115 31.1738 57.0239 30.8542 56.8487 30.5795C56.6783 30.3002 56.4368 30.0824 56.1243 29.9261C55.8165 29.7699 55.4567 29.6918 55.0447 29.6918C54.6281 29.6918 54.2469 29.7675 53.9013 29.919C53.5556 30.0658 53.2786 30.2765 53.0703 30.5511C52.862 30.8258 52.7507 31.1477 52.7365 31.517H49.7891C49.8033 30.679 50.0424 29.9403 50.5064 29.3011C50.9704 28.6619 51.5954 28.1624 52.3814 27.8026C53.1721 27.438 54.0646 27.2557 55.0589 27.2557C56.0627 27.2557 56.9411 27.438 57.6939 27.8026C58.4467 28.1671 59.0315 28.6596 59.4482 29.2798C59.8696 29.8954 60.0779 30.5866 60.0732 31.3537C60.0779 32.1681 59.8246 32.8475 59.3132 33.392C58.8066 33.9366 58.1461 34.2822 57.3317 34.429V34.5426C58.4018 34.6799 59.2161 35.0516 59.7749 35.6577C60.3383 36.259 60.6177 37.0118 60.6129 37.9162C60.6177 38.7448 60.3786 39.4811 59.8956 40.125C59.4174 40.7689 58.7569 41.2756 57.9141 41.6449C57.0713 42.0142 56.1054 42.1989 55.0163 42.1989Z" fill="#262525"/>
</svg>
