<svg width="206" height="71" viewBox="0 0 206 71" fill="none" xmlns="http://www.w3.org/2000/svg">
<rect width="206" height="71" rx="35.5" fill="#343434"/>
<path d="M57.1451 31.6378C57.0882 31.0649 56.8444 30.6198 56.4135 30.3026C55.9827 29.9853 55.3979 29.8267 54.6593 29.8267C54.1574 29.8267 53.7336 29.8977 53.388 30.0398C53.0423 30.1771 52.7772 30.3688 52.5925 30.6151C52.4126 30.8613 52.3226 31.1406 52.3226 31.4531C52.3132 31.7135 52.3676 31.9408 52.486 32.1349C52.6091 32.3291 52.7772 32.4972 52.9902 32.6392C53.2033 32.7765 53.4495 32.8973 53.7289 33.0014C54.0082 33.1009 54.3065 33.1861 54.6238 33.2571L55.9306 33.5696C56.565 33.7116 57.1474 33.901 57.6777 34.1378C58.208 34.3745 58.6673 34.6657 59.0556 35.0114C59.4438 35.357 59.7445 35.7642 59.9576 36.233C60.1754 36.7017 60.2866 37.2391 60.2914 37.8452C60.2866 38.7353 60.0594 39.5071 59.6096 40.1605C59.1645 40.8092 58.5205 41.3134 57.6777 41.6733C56.8397 42.0284 55.8288 42.206 54.6451 42.206C53.4708 42.206 52.4481 42.026 51.5769 41.6662C50.7104 41.3063 50.0333 40.7737 49.5456 40.0682C49.0627 39.358 48.8094 38.4796 48.7857 37.4332H51.7615C51.7947 37.9209 51.9344 38.3281 52.1806 38.6548C52.4315 38.9768 52.7653 39.2206 53.182 39.3864C53.6034 39.5473 54.0792 39.6278 54.6096 39.6278C55.1304 39.6278 55.5826 39.5521 55.9661 39.4006C56.3543 39.2491 56.655 39.0384 56.8681 38.7685C57.0811 38.4986 57.1877 38.1884 57.1877 37.8381C57.1877 37.5114 57.0906 37.2367 56.8965 37.0142C56.7071 36.7917 56.4277 36.6023 56.0584 36.446C55.6938 36.2898 55.2464 36.1477 54.7161 36.0199L53.1323 35.6222C51.906 35.3239 50.9377 34.8575 50.2275 34.223C49.5172 33.5885 49.1645 32.7339 49.1692 31.6591C49.1645 30.7784 49.3989 30.009 49.8723 29.3509C50.3506 28.6927 51.0063 28.179 51.8397 27.8097C52.673 27.4403 53.62 27.2557 54.6806 27.2557C55.7601 27.2557 56.7024 27.4403 57.5073 27.8097C58.3169 28.179 58.9467 28.6927 59.3965 29.3509C59.8463 30.009 60.0783 30.7713 60.0925 31.6378H57.1451ZM62.3031 46.0909V31.0909H65.286V32.9233H65.421C65.5536 32.6297 65.7453 32.3314 65.9963 32.0284C66.252 31.7206 66.5834 31.465 66.9906 31.2614C67.4025 31.053 67.9139 30.9489 68.5247 30.9489C69.3201 30.9489 70.054 31.1572 70.7264 31.5739C71.3987 31.9858 71.9361 32.6084 72.3386 33.4418C72.7411 34.2704 72.9423 35.3097 72.9423 36.5597C72.9423 37.7765 72.7458 38.804 72.3528 39.642C71.9645 40.4754 71.4342 41.1075 70.7619 41.5384C70.0943 41.9645 69.3462 42.1776 68.5176 42.1776C67.9305 42.1776 67.4309 42.0805 67.019 41.8864C66.6118 41.6922 66.278 41.4484 66.0176 41.1548C65.7572 40.8565 65.5583 40.5559 65.421 40.2528H65.3287V46.0909H62.3031ZM65.2647 36.5455C65.2647 37.1941 65.3547 37.7599 65.5346 38.2429C65.7145 38.7259 65.975 39.1023 66.3159 39.3722C66.6568 39.6373 67.0711 39.7699 67.5588 39.7699C68.0512 39.7699 68.4679 39.6349 68.8088 39.3651C69.1497 39.0904 69.4077 38.7116 69.5829 38.2287C69.7628 37.741 69.8528 37.1799 69.8528 36.5455C69.8528 35.9157 69.7652 35.3617 69.59 34.8835C69.4148 34.4053 69.1568 34.0312 68.8159 33.7614C68.475 33.4915 68.0559 33.3565 67.5588 33.3565C67.0663 33.3565 66.6497 33.4867 66.3088 33.7472C65.9726 34.0076 65.7145 34.3769 65.5346 34.8551C65.3547 35.3333 65.2647 35.8968 65.2647 36.5455ZM74.9593 42V31.0909H77.8926V32.9943H78.0062C78.2051 32.3172 78.5389 31.8059 79.0076 31.4602C79.4764 31.1098 80.0162 30.9347 80.627 30.9347C80.7785 30.9347 80.9418 30.9441 81.117 30.9631C81.2922 30.982 81.4461 31.008 81.5787 31.0412V33.7259C81.4366 33.6832 81.2401 33.6454 80.9892 33.6122C80.7382 33.5791 80.5086 33.5625 80.3002 33.5625C79.8552 33.5625 79.4574 33.6596 79.1071 33.8537C78.7614 34.0431 78.4868 34.3082 78.2832 34.6491C78.0843 34.9901 77.9849 35.383 77.9849 35.8281V42H74.9593ZM83.1429 42V31.0909H86.1685V42H83.1429ZM84.6628 29.6847C84.213 29.6847 83.8271 29.5355 83.5051 29.2372C83.1879 28.9342 83.0293 28.572 83.0293 28.1506C83.0293 27.7339 83.1879 27.3764 83.5051 27.0781C83.8271 26.7751 84.213 26.6236 84.6628 26.6236C85.1126 26.6236 85.4962 26.7751 85.8134 27.0781C86.1354 27.3764 86.2963 27.7339 86.2963 28.1506C86.2963 28.572 86.1354 28.9342 85.8134 29.2372C85.4962 29.5355 85.1126 29.6847 84.6628 29.6847ZM91.6177 35.6932V42H88.5922V31.0909H91.4757V33.0156H91.6035C91.845 32.3812 92.2498 31.8793 92.818 31.5099C93.3862 31.1359 94.0751 30.9489 94.8848 30.9489C95.6423 30.9489 96.3029 31.1146 96.8663 31.446C97.4297 31.7775 97.8677 32.2509 98.1802 32.8665C98.4927 33.4773 98.649 34.2064 98.649 35.054V42H95.6234V35.5938C95.6281 34.9261 95.4577 34.4053 95.112 34.0312C94.7664 33.6525 94.2905 33.4631 93.6845 33.4631C93.2773 33.4631 92.9174 33.5507 92.6049 33.7259C92.2972 33.901 92.0557 34.1567 91.8805 34.4929C91.71 34.8243 91.6225 35.2244 91.6177 35.6932ZM105.948 46.3182C104.968 46.3182 104.128 46.1832 103.427 45.9134C102.731 45.6482 102.177 45.286 101.765 44.8267C101.353 44.3674 101.086 43.8513 100.963 43.2784L103.761 42.902C103.846 43.1198 103.981 43.3234 104.166 43.5128C104.35 43.7022 104.594 43.8537 104.897 43.9673C105.205 44.0857 105.579 44.1449 106.019 44.1449C106.677 44.1449 107.22 43.9839 107.646 43.6619C108.077 43.3447 108.292 42.812 108.292 42.0639V40.0682H108.164C108.032 40.3712 107.833 40.6577 107.568 40.9276C107.302 41.1974 106.962 41.4176 106.545 41.5881C106.128 41.7585 105.631 41.8438 105.053 41.8438C104.234 41.8438 103.489 41.6544 102.816 41.2756C102.149 40.892 101.616 40.3073 101.218 39.5213C100.825 38.7306 100.629 37.7315 100.629 36.5241C100.629 35.2884 100.83 34.2562 101.232 33.4276C101.635 32.599 102.17 31.9787 102.838 31.5668C103.51 31.1548 104.246 30.9489 105.046 30.9489C105.657 30.9489 106.169 31.053 106.58 31.2614C106.992 31.465 107.324 31.7206 107.575 32.0284C107.83 32.3314 108.027 32.6297 108.164 32.9233H108.278V31.0909H111.282V42.1065C111.282 43.0346 111.055 43.8111 110.6 44.4361C110.146 45.0611 109.516 45.5298 108.711 45.8423C107.911 46.1596 106.99 46.3182 105.948 46.3182ZM106.012 39.571C106.5 39.571 106.912 39.4503 107.248 39.2088C107.589 38.9626 107.849 38.6122 108.029 38.1577C108.214 37.6984 108.306 37.1491 108.306 36.5099C108.306 35.8707 108.216 35.3168 108.036 34.848C107.856 34.3745 107.596 34.0076 107.255 33.7472C106.914 33.4867 106.5 33.3565 106.012 33.3565C105.515 33.3565 105.096 33.4915 104.755 33.7614C104.414 34.0265 104.156 34.3958 103.981 34.8693C103.806 35.3428 103.718 35.8897 103.718 36.5099C103.718 37.1397 103.806 37.6842 103.981 38.1435C104.161 38.598 104.419 38.9508 104.755 39.2017C105.096 39.4479 105.515 39.571 106.012 39.571ZM118.376 42V27.4545H124.199C125.269 27.4545 126.162 27.6132 126.877 27.9304C127.592 28.2476 128.129 28.688 128.489 29.2514C128.849 29.8101 129.029 30.4541 129.029 31.1832C129.029 31.7514 128.915 32.2509 128.688 32.6818C128.461 33.108 128.148 33.4583 127.751 33.733C127.358 34.0028 126.908 34.1946 126.401 34.3082V34.4503C126.955 34.474 127.474 34.6302 127.956 34.919C128.444 35.2079 128.84 35.6127 129.143 36.1335C129.446 36.6496 129.597 37.2652 129.597 37.9801C129.597 38.7519 129.405 39.4408 129.022 40.0469C128.643 40.6482 128.082 41.1241 127.339 41.4744C126.595 41.8248 125.679 42 124.59 42H118.376ZM121.451 39.4858H123.958C124.815 39.4858 125.44 39.3224 125.833 38.9957C126.226 38.6643 126.422 38.224 126.422 37.6747C126.422 37.2723 126.325 36.9171 126.131 36.6094C125.937 36.3016 125.66 36.0601 125.3 35.8849C124.945 35.7098 124.521 35.6222 124.029 35.6222H121.451V39.4858ZM121.451 33.5412H123.731C124.152 33.5412 124.526 33.4678 124.853 33.321C125.184 33.1695 125.445 32.9564 125.634 32.6818C125.828 32.4072 125.925 32.0781 125.925 31.6946C125.925 31.169 125.738 30.7453 125.364 30.4233C124.995 30.1013 124.469 29.9403 123.787 29.9403H121.451V33.5412ZM136.47 42.2131C135.367 42.2131 134.413 41.9787 133.608 41.5099C132.808 41.0365 132.19 40.3783 131.754 39.5355C131.319 38.688 131.101 37.7055 131.101 36.5881C131.101 35.4612 131.319 34.4763 131.754 33.6335C132.19 32.786 132.808 32.1278 133.608 31.6591C134.413 31.1856 135.367 30.9489 136.47 30.9489C137.574 30.9489 138.525 31.1856 139.325 31.6591C140.13 32.1278 140.751 32.786 141.186 33.6335C141.622 34.4763 141.84 35.4612 141.84 36.5881C141.84 37.7055 141.622 38.688 141.186 39.5355C140.751 40.3783 140.13 41.0365 139.325 41.5099C138.525 41.9787 137.574 42.2131 136.47 42.2131ZM136.485 39.8693C136.986 39.8693 137.405 39.7273 137.742 39.4432C138.078 39.1544 138.331 38.7614 138.502 38.2642C138.677 37.767 138.764 37.2012 138.764 36.5668C138.764 35.9323 138.677 35.3665 138.502 34.8693C138.331 34.3722 138.078 33.9792 137.742 33.6903C137.405 33.4015 136.986 33.2571 136.485 33.2571C135.978 33.2571 135.552 33.4015 135.206 33.6903C134.865 33.9792 134.607 34.3722 134.432 34.8693C134.262 35.3665 134.176 35.9323 134.176 36.5668C134.176 37.2012 134.262 37.767 134.432 38.2642C134.607 38.7614 134.865 39.1544 135.206 39.4432C135.552 39.7273 135.978 39.8693 136.485 39.8693ZM148.736 42.2131C147.633 42.2131 146.679 41.9787 145.874 41.5099C145.074 41.0365 144.456 40.3783 144.02 39.5355C143.584 38.688 143.367 37.7055 143.367 36.5881C143.367 35.4612 143.584 34.4763 144.02 33.6335C144.456 32.786 145.074 32.1278 145.874 31.6591C146.679 31.1856 147.633 30.9489 148.736 30.9489C149.839 30.9489 150.791 31.1856 151.591 31.6591C152.396 32.1278 153.016 32.786 153.452 33.6335C153.887 34.4763 154.105 35.4612 154.105 36.5881C154.105 37.7055 153.887 38.688 153.452 39.5355C153.016 40.3783 152.396 41.0365 151.591 41.5099C150.791 41.9787 149.839 42.2131 148.736 42.2131ZM148.75 39.8693C149.252 39.8693 149.671 39.7273 150.007 39.4432C150.343 39.1544 150.597 38.7614 150.767 38.2642C150.942 37.767 151.03 37.2012 151.03 36.5668C151.03 35.9323 150.942 35.3665 150.767 34.8693C150.597 34.3722 150.343 33.9792 150.007 33.6903C149.671 33.4015 149.252 33.2571 148.75 33.2571C148.244 33.2571 147.817 33.4015 147.472 33.6903C147.131 33.9792 146.873 34.3722 146.698 34.8693C146.527 35.3665 146.442 35.9323 146.442 36.5668C146.442 37.2012 146.527 37.767 146.698 38.2642C146.873 38.7614 147.131 39.1544 147.472 39.4432C147.817 39.7273 148.244 39.8693 148.75 39.8693ZM161.875 31.0909V33.3636H155.306V31.0909H161.875ZM156.797 28.4773H159.823V38.6477C159.823 38.9271 159.865 39.1449 159.95 39.3011C160.036 39.4527 160.154 39.5592 160.306 39.6207C160.462 39.6823 160.642 39.7131 160.845 39.7131C160.987 39.7131 161.129 39.7012 161.271 39.6776C161.414 39.6491 161.522 39.6278 161.598 39.6136L162.074 41.8651C161.923 41.9124 161.709 41.9669 161.435 42.0284C161.16 42.0947 160.826 42.1349 160.433 42.1491C159.704 42.1776 159.065 42.0805 158.516 41.858C157.971 41.6354 157.548 41.2898 157.244 40.821C156.941 40.3523 156.792 39.7604 156.797 39.0455V28.4773Z" fill="white"/>
</svg>
