<svg width="206" height="71" viewBox="0 0 206 71" fill="none" xmlns="http://www.w3.org/2000/svg">
<rect width="206" height="71" rx="35.5" fill="#2E4A62"/>
<path d="M49.2456 27.4545L52.7612 38.5057H52.8961L56.4189 27.4545H59.8279L54.8137 42H50.8507L45.8294 27.4545H49.2456ZM65.263 42.2131C64.1408 42.2131 63.1749 41.9858 62.3652 41.5312C61.5603 41.072 60.94 40.4233 60.5044 39.5852C60.0688 38.7424 59.851 37.7457 59.851 36.5952C59.851 35.473 60.0688 34.4882 60.5044 33.6406C60.94 32.7931 61.5532 32.1326 62.3439 31.6591C63.1394 31.1856 64.0721 30.9489 65.1422 30.9489C65.8619 30.9489 66.5319 31.0649 67.1522 31.2969C67.7772 31.5241 68.3217 31.8674 68.7857 32.3267C69.2544 32.786 69.619 33.3636 69.8794 34.0597C70.1399 34.7509 70.2701 35.5606 70.2701 36.4886V37.3196H61.0584V35.4446H67.4221C67.4221 35.009 67.3274 34.6231 67.138 34.2869C66.9486 33.9508 66.6858 33.688 66.3496 33.4986C66.0182 33.3045 65.6323 33.2074 65.1919 33.2074C64.7327 33.2074 64.3255 33.3139 63.9703 33.527C63.62 33.7353 63.3453 34.017 63.1465 34.3722C62.9476 34.7225 62.8458 35.1132 62.8411 35.544V37.3267C62.8411 37.8665 62.9405 38.3329 63.1394 38.7259C63.343 39.1188 63.6294 39.4219 63.9988 39.6349C64.3681 39.848 64.806 39.9545 65.3127 39.9545C65.6489 39.9545 65.9566 39.9072 66.236 39.8125C66.5153 39.7178 66.7544 39.5758 66.9533 39.3864C67.1522 39.197 67.3037 38.965 67.4078 38.6903L70.2061 38.875C70.0641 39.5473 69.7729 40.1345 69.3326 40.6364C68.897 41.1335 68.3335 41.5218 67.6422 41.8011C66.9557 42.0758 66.1626 42.2131 65.263 42.2131ZM72.2445 42V31.0909H75.1777V32.9943H75.2914C75.4902 32.3172 75.824 31.8059 76.2928 31.4602C76.7615 31.1098 77.3013 30.9347 77.9121 30.9347C78.0636 30.9347 78.227 30.9441 78.4022 30.9631C78.5774 30.982 78.7312 31.008 78.8638 31.0412V33.7259C78.7218 33.6832 78.5253 33.6454 78.2743 33.6122C78.0234 33.5791 77.7937 33.5625 77.5854 33.5625C77.1403 33.5625 76.7426 33.6596 76.3922 33.8537C76.0466 34.0431 75.772 34.3082 75.5684 34.6491C75.3695 34.9901 75.2701 35.383 75.2701 35.8281V42H72.2445ZM89.5048 34.2017L86.7349 34.3722C86.6876 34.1354 86.5858 33.9223 86.4295 33.733C86.2733 33.5388 86.0673 33.3849 85.8116 33.2713C85.5607 33.1529 85.26 33.0938 84.9096 33.0938C84.4409 33.0938 84.0455 33.1932 83.7235 33.392C83.4016 33.5862 83.2406 33.8466 83.2406 34.1733C83.2406 34.4337 83.3448 34.6539 83.5531 34.8338C83.7614 35.0137 84.1189 35.1581 84.6255 35.267L86.6 35.6648C87.6606 35.8826 88.4513 36.233 88.9721 36.7159C89.493 37.1989 89.7534 37.8333 89.7534 38.6193C89.7534 39.3343 89.5427 39.9616 89.1213 40.5014C88.7046 41.0412 88.1317 41.4626 87.4025 41.7656C86.6781 42.0639 85.8424 42.2131 84.8954 42.2131C83.4513 42.2131 82.3007 41.9124 81.4437 41.3111C80.5914 40.705 80.0919 39.8812 79.9451 38.8395L82.921 38.6832C83.0109 39.1236 83.2288 39.4598 83.5744 39.6918C83.92 39.919 84.3627 40.0327 84.9025 40.0327C85.4328 40.0327 85.859 39.9309 86.1809 39.7273C86.5076 39.5189 86.6734 39.2514 86.6781 38.9247C86.6734 38.6501 86.5574 38.4252 86.3301 38.25C86.1028 38.0701 85.7524 37.9328 85.2789 37.8381L83.3897 37.4616C82.3244 37.2486 81.5313 36.8793 81.0105 36.3537C80.4944 35.8281 80.2363 35.1581 80.2363 34.3438C80.2363 33.643 80.4257 33.0393 80.8045 32.5327C81.188 32.026 81.7254 31.6354 82.4167 31.3608C83.1127 31.0862 83.9271 30.9489 84.8599 30.9489C86.2377 30.9489 87.322 31.2401 88.1127 31.8224C88.9082 32.4048 89.3722 33.1979 89.5048 34.2017ZM91.6586 42V31.0909H94.6841V42H91.6586ZM93.1784 29.6847C92.7286 29.6847 92.3427 29.5355 92.0208 29.2372C91.7035 28.9342 91.5449 28.572 91.5449 28.1506C91.5449 27.7339 91.7035 27.3764 92.0208 27.0781C92.3427 26.7751 92.7286 26.6236 93.1784 26.6236C93.6283 26.6236 94.0118 26.7751 94.329 27.0781C94.651 27.3764 94.812 27.7339 94.812 28.1506C94.812 28.572 94.651 28.9342 94.329 29.2372C94.0118 29.5355 93.6283 29.6847 93.1784 29.6847ZM102.037 42.2131C100.934 42.2131 99.9795 41.9787 99.1745 41.5099C98.3743 41.0365 97.7565 40.3783 97.3208 39.5355C96.8852 38.688 96.6674 37.7055 96.6674 36.5881C96.6674 35.4612 96.8852 34.4763 97.3208 33.6335C97.7565 32.786 98.3743 32.1278 99.1745 31.6591C99.9795 31.1856 100.934 30.9489 102.037 30.9489C103.14 30.9489 104.092 31.1856 104.892 31.6591C105.697 32.1278 106.317 32.786 106.753 33.6335C107.188 34.4763 107.406 35.4612 107.406 36.5881C107.406 37.7055 107.188 38.688 106.753 39.5355C106.317 40.3783 105.697 41.0365 104.892 41.5099C104.092 41.9787 103.14 42.2131 102.037 42.2131ZM102.051 39.8693C102.553 39.8693 102.972 39.7273 103.308 39.4432C103.644 39.1544 103.898 38.7614 104.068 38.2642C104.243 37.767 104.331 37.2012 104.331 36.5668C104.331 35.9323 104.243 35.3665 104.068 34.8693C103.898 34.3722 103.644 33.9792 103.308 33.6903C102.972 33.4015 102.553 33.2571 102.051 33.2571C101.544 33.2571 101.118 33.4015 100.773 33.6903C100.432 33.9792 100.174 34.3722 99.9984 34.8693C99.8279 35.3665 99.7427 35.9323 99.7427 36.5668C99.7427 37.2012 99.8279 37.767 99.9984 38.2642C100.174 38.7614 100.432 39.1544 100.773 39.4432C101.118 39.7273 101.544 39.8693 102.051 39.8693ZM112.399 35.6932V42H109.373V31.0909H112.257V33.0156H112.385C112.626 32.3812 113.031 31.8793 113.599 31.5099C114.167 31.1359 114.856 30.9489 115.666 30.9489C116.424 30.9489 117.084 31.1146 117.648 31.446C118.211 31.7775 118.649 32.2509 118.961 32.8665C119.274 33.4773 119.43 34.2064 119.43 35.054V42H116.405V35.5938C116.409 34.9261 116.239 34.4053 115.893 34.0312C115.548 33.6525 115.072 33.4631 114.466 33.4631C114.059 33.4631 113.699 33.5507 113.386 33.7259C113.078 33.901 112.837 34.1567 112.662 34.4929C112.491 34.8243 112.404 35.2244 112.399 35.6932ZM135.238 34.7273C135.238 36.3134 134.937 37.6629 134.336 38.7756C133.74 39.8883 132.925 40.7382 131.893 41.3253C130.865 41.9077 129.71 42.1989 128.427 42.1989C127.134 42.1989 125.974 41.9053 124.947 41.3182C123.919 40.7311 123.107 39.8812 122.511 38.7685C121.914 37.6558 121.616 36.3087 121.616 34.7273C121.616 33.1411 121.914 31.7917 122.511 30.679C123.107 29.5663 123.919 28.7187 124.947 28.1364C125.974 27.5492 127.134 27.2557 128.427 27.2557C129.71 27.2557 130.865 27.5492 131.893 28.1364C132.925 28.7187 133.74 29.5663 134.336 30.679C134.937 31.7917 135.238 33.1411 135.238 34.7273ZM132.12 34.7273C132.12 33.6998 131.966 32.8333 131.659 32.1278C131.356 31.4223 130.927 30.8873 130.373 30.5227C129.819 30.1581 129.17 29.9759 128.427 29.9759C127.684 29.9759 127.035 30.1581 126.481 30.5227C125.927 30.8873 125.496 31.4223 125.188 32.1278C124.885 32.8333 124.734 33.6998 124.734 34.7273C124.734 35.7547 124.885 36.6212 125.188 37.3267C125.496 38.0322 125.927 38.5672 126.481 38.9318C127.035 39.2964 127.684 39.4787 128.427 39.4787C129.17 39.4787 129.819 39.2964 130.373 38.9318C130.927 38.5672 131.356 38.0322 131.659 37.3267C131.966 36.6212 132.12 35.7547 132.12 34.7273ZM140.485 35.6932V42H137.459V31.0909H140.343V33.0156H140.471C140.712 32.3812 141.117 31.8793 141.685 31.5099C142.253 31.1359 142.942 30.9489 143.752 30.9489C144.51 30.9489 145.17 31.1146 145.733 31.446C146.297 31.7775 146.735 32.2509 147.047 32.8665C147.36 33.4773 147.516 34.2064 147.516 35.054V42H144.491V35.5938C144.495 34.9261 144.325 34.4053 143.979 34.0312C143.634 33.6525 143.158 33.4631 142.552 33.4631C142.144 33.4631 141.785 33.5507 141.472 33.7259C141.164 33.901 140.923 34.1567 140.748 34.4929C140.577 34.8243 140.49 35.2244 140.485 35.6932ZM154.872 42.2131C153.75 42.2131 152.784 41.9858 151.975 41.5312C151.17 41.072 150.549 40.4233 150.114 39.5852C149.678 38.7424 149.46 37.7457 149.46 36.5952C149.46 35.473 149.678 34.4882 150.114 33.6406C150.549 32.7931 151.163 32.1326 151.953 31.6591C152.749 31.1856 153.682 30.9489 154.752 30.9489C155.471 30.9489 156.141 31.0649 156.762 31.2969C157.387 31.5241 157.931 31.8674 158.395 32.3267C158.864 32.786 159.228 33.3636 159.489 34.0597C159.749 34.7509 159.879 35.5606 159.879 36.4886V37.3196H150.668V35.4446H157.031C157.031 35.009 156.937 34.6231 156.747 34.2869C156.558 33.9508 156.295 33.688 155.959 33.4986C155.628 33.3045 155.242 33.2074 154.801 33.2074C154.342 33.2074 153.935 33.3139 153.58 33.527C153.229 33.7353 152.955 34.017 152.756 34.3722C152.557 34.7225 152.455 35.1132 152.45 35.544V37.3267C152.45 37.8665 152.55 38.3329 152.749 38.7259C152.952 39.1188 153.239 39.4219 153.608 39.6349C153.977 39.848 154.415 39.9545 154.922 39.9545C155.258 39.9545 155.566 39.9072 155.845 39.8125C156.125 39.7178 156.364 39.5758 156.563 39.3864C156.762 39.197 156.913 38.965 157.017 38.6903L159.816 38.875C159.673 39.5473 159.382 40.1345 158.942 40.6364C158.506 41.1335 157.943 41.5218 157.252 41.8011C156.565 42.0758 155.772 42.2131 154.872 42.2131Z" fill="white"/>
</svg>
